<?xml version="1.0" encoding="utf-8" ?>
<svg xmlns="http://www.w3.org/2000/svg" xmlns:xlink="http://www.w3.org/1999/xlink" width="30" height="28">
	<defs>
		<clipPath id="clip_0">
			<rect x="-383" y="-391" width="1440" height="1659" clip-rule="evenodd"/>
		</clipPath>
	</defs>
	<g clip-path="url(#clip_0)">
		<path fill="rgb(0,183,239)" stroke="none" transform="translate(4.11719 24.1176)" d="M2.40834 2.82516C3.79968 2.55157 4.75196 1.30582 5.29412 0.0200218L4.55832 0.0200218C4.24452 0.0200218 3.93386 0.0138488 3.62677 0C3.30783 0.646762 2.82367 1.20624 2.10076 1.31816C1.87761 1.12675 1.59072 1.0071 1.27226 1.0071C0.569553 1.0071 0 1.57173 0 2.26826C0 2.96478 0.569607 3.52941 1.27226 3.52941C1.77245 3.52941 2.20067 3.24095 2.40834 2.82516Z"/>
	</g>
	<defs>
		<clipPath id="clip_1">
			<rect x="-383" y="-391" width="1440" height="1659" clip-rule="evenodd"/>
		</clipPath>
	</defs>
	<g clip-path="url(#clip_1)">
		<path fill="rgb(0,183,239)" stroke="none" transform="translate(21.7656 24.1176)" d="M3.54266 3.52941C4.18514 3.52941 4.70588 2.97832 4.70588 2.29851C4.70588 1.61869 4.18509 1.0676 3.54266 1.0676C3.28605 1.0676 3.05073 1.15824 2.85858 1.30755C2.29427 1.10868 1.88899 0.584149 1.60728 0C1.1765 0.0791613 0.79344 0.104204 0.506087 0.104204L0.429891 0.104204L0.385828 0.104204L0 0.104204C0.406176 1.28403 1.15803 2.42974 2.47459 2.78443C2.65257 3.2223 3.06355 3.52941 3.54266 3.52941Z"/>
	</g>
	<defs>
		<clipPath id="clip_2">
			<rect x="-383" y="-391" width="1440" height="1659" clip-rule="evenodd"/>
		</clipPath>
	</defs>
	<g clip-path="url(#clip_2)">
		<path fill="rgb(0,183,239)" stroke="none" transform="translate(18.8242 1.76471)" d="M4.70588 2.45635L2.24821 0C1.79703 0.114911 0.413511 1.00643 0 1.43774L3.27052 4.70588C3.69923 4.29605 4.58203 2.92724 4.70588 2.45635Z"/>
	</g>
	<defs>
		<clipPath id="clip_3">
			<rect x="-383" y="-391" width="1440" height="1659" clip-rule="evenodd"/>
		</clipPath>
	</defs>
	<g clip-path="url(#clip_3)">
		<path fill="rgb(0,183,239)" stroke="none" transform="translate(18.2344 4.70588)" d="M0.172508 0.588235C0.216699 0.588235 0.260818 0.571307 0.294656 0.537848L0.538555 0.293817C0.554067 0.278297 0.564781 0.260358 0.573042 0.241698C0.601324 0.178208 0.590286 0.101906 0.538555 0.0498224C0.486788 -0.00229725 0.410202 -0.0130171 0.346747 0.0152805C0.328133 0.023546 0.310168 0.0346268 0.294692 0.0498224L0.050432 0.293492C-0.0168107 0.360808 -0.0168107 0.470208 0.050432 0.537523C0.0841977 0.571307 0.128353 0.588235 0.172508 0.588235Z"/>
	</g>
	<defs>
		<clipPath id="clip_4">
			<rect x="-383" y="-391" width="1440" height="1659" clip-rule="evenodd"/>
		</clipPath>
	</defs>
	<g clip-path="url(#clip_4)">
		<path fill="rgb(0,183,239)" stroke="none" transform="translate(17.0586 5.29412)" d="M0.172094 0.588235C0.216218 0.588235 0.260305 0.571364 0.294118 0.537908L0.53784 0.294167C0.605034 0.226932 0.605034 0.117661 0.53784 0.0504264C0.470646 -0.0168088 0.361348 -0.0168088 0.294118 0.0504264L0.0503955 0.294167C-0.0167985 0.361402 -0.0167985 0.470673 0.0503955 0.537908C0.0841727 0.571688 0.127935 0.588235 0.172094 0.588235Z"/>
	</g>
	<defs>
		<clipPath id="clip_5">
			<rect x="-383" y="-391" width="1440" height="1659" clip-rule="evenodd"/>
		</clipPath>
	</defs>
	<g clip-path="url(#clip_5)">
		<path fill="rgb(0,183,239)" stroke="none" transform="translate(16.4707 6.47059)" d="M0.172087 0.588235C0.216208 0.588235 0.260329 0.571326 0.294104 0.537905L0.537816 0.294185C0.605043 0.226946 0.605043 0.117669 0.537816 0.0504294C0.470625 -0.0168098 0.361331 -0.0168098 0.294104 0.0504294L0.0503932 0.294185C-0.0167977 0.361388 -0.0167977 0.470702 0.0503932 0.537905C0.0838445 0.571326 0.128002 0.588235 0.172087 0.588235Z"/>
	</g>
	<defs>
		<clipPath id="clip_6">
			<rect x="-383" y="-391" width="1440" height="1659" clip-rule="evenodd"/>
		</clipPath>
	</defs>
	<g clip-path="url(#clip_6)">
		<path fill="rgb(0,183,239)" stroke="none" transform="translate(18.8242 5.29412)" d="M0.572955 0.241586C0.60125 0.178099 0.590531 0.101519 0.538453 0.0497918C0.486339 -0.00229584 0.410045 -0.0130092 0.346563 0.0152711C0.327941 0.0235316 0.310004 0.0346056 0.294485 0.0497918L0.0504808 0.293998C-0.016827 0.361272 -0.016827 0.470605 0.0504808 0.537879C0.0843332 0.571715 0.128471 0.588235 0.172645 0.588235C0.216856 0.588235 0.260994 0.571318 0.294846 0.537879L0.53885 0.293673C0.553936 0.278487 0.564655 0.260559 0.572955 0.241586Z"/>
	</g>
	<defs>
		<clipPath id="clip_7">
			<rect x="-383" y="-391" width="1440" height="1659" clip-rule="evenodd"/>
		</clipPath>
	</defs>
	<g clip-path="url(#clip_7)">
		<path fill="rgb(0,183,239)" stroke="none" transform="translate(18.2344 6.47059)" d="M0.537774 0.0504264C0.470589 -0.0168088 0.361304 -0.0168088 0.294082 0.0504264L0.0503893 0.294167C-0.0167964 0.361402 -0.0167964 0.470673 0.0503893 0.537908C0.0841985 0.571688 0.12828 0.588235 0.172398 0.588235C0.216552 0.588235 0.260633 0.571364 0.294442 0.537908L0.538135 0.294167C0.604996 0.226932 0.604996 0.117625 0.537774 0.0504264Z"/>
	</g>
	<defs>
		<clipPath id="clip_8">
			<rect x="-383" y="-391" width="1440" height="1659" clip-rule="evenodd"/>
		</clipPath>
	</defs>
	<g clip-path="url(#clip_8)">
		<path fill="rgb(0,183,239)" stroke="none" transform="translate(17.0586 7.05882)" d="M0.53775 0.0503986C0.470567 -0.0167995 0.361287 -0.0167995 0.294068 0.0503986L0.050387 0.294329C-0.0167957 0.361527 -0.0167957 0.470738 0.050387 0.537936C0.0841946 0.571697 0.128274 0.588235 0.172426 0.588235C0.216542 0.588235 0.260621 0.571373 0.294429 0.537936L0.53811 0.294005C0.605004 0.226807 0.605004 0.117597 0.53775 0.0503986Z"/>
	</g>
	<defs>
		<clipPath id="clip_9">
			<rect x="-383" y="-391" width="1440" height="1659" clip-rule="evenodd"/>
		</clipPath>
	</defs>
	<g clip-path="url(#clip_9)">
		<path fill="rgb(0,183,239)" stroke="none" transform="translate(20 5.88235)" d="M0.172272 0.588235C0.216489 0.588235 0.260633 0.571344 0.294454 0.537849L0.538492 0.293823C0.554049 0.278302 0.564769 0.260328 0.573035 0.241704C0.601334 0.178216 0.590289 0.101915 0.538492 0.049796C0.486732 -0.0023227 0.410102 -0.0130063 0.346611 0.0152908C0.32795 0.0235562 0.309686 0.0346007 0.29449 0.049796L0.0504879 0.293823C-0.0168293 0.361137 -0.0168293 0.470535 0.0504879 0.537849C0.0839118 0.571669 0.128128 0.588235 0.172272 0.588235Z"/>
	</g>
	<defs>
		<clipPath id="clip_10">
			<rect x="-383" y="-391" width="1440" height="1659" clip-rule="evenodd"/>
		</clipPath>
	</defs>
	<g clip-path="url(#clip_10)">
		<path fill="rgb(0,183,239)" stroke="none" transform="translate(18.8242 7.05882)" d="M0.172078 0.588235C0.216235 0.588235 0.26032 0.571362 0.294131 0.537905L0.537843 0.294149C0.605034 0.22691 0.605034 0.117633 0.537843 0.0504294C0.470616 -0.0168098 0.361358 -0.0168098 0.294131 0.0504294L0.0504202 0.294149C-0.0168067 0.361388 -0.0168067 0.470666 0.0504202 0.537905C0.0838715 0.571362 0.127993 0.588235 0.172078 0.588235Z"/>
	</g>
	<defs>
		<clipPath id="clip_11">
			<rect x="-383" y="-391" width="1440" height="1659" clip-rule="evenodd"/>
		</clipPath>
	</defs>
	<g clip-path="url(#clip_11)">
		<path fill="rgb(0,183,239)" stroke="none" transform="translate(17.6465 8.23529)" d="M0.172094 0.588235C0.216218 0.588235 0.260305 0.571363 0.294118 0.537908L0.53784 0.294167C0.605034 0.226932 0.605034 0.117661 0.53784 0.0504263C0.470646 -0.0168088 0.361348 -0.0168088 0.294118 0.0504263L0.0503955 0.294167C-0.0167985 0.361402 -0.0167985 0.470673 0.0503955 0.537908C0.0842088 0.571363 0.128296 0.588235 0.172094 0.588235Z"/>
	</g>
	<defs>
		<clipPath id="clip_12">
			<rect x="-383" y="-391" width="1440" height="1659" clip-rule="evenodd"/>
		</clipPath>
	</defs>
	<g clip-path="url(#clip_12)">
		<path fill="rgb(0,183,239)" stroke="none" d="M28.2787 11.7644L29.0164 11.7644C29.5598 11.7644 29.9999 12.2031 30 12.7448L30 13.7252C30 14.2404 29.6002 14.6581 29.0164 14.7056L28.5875 14.7056L27.4687 19.5711C26.551 22.379 24.5867 23.2387 23.0744 23.4608C22.7317 23.5113 22.412 23.5289 22.1331 23.5289C22.1331 23.5289 21.4461 23.5245 21.4475 23.5294L9.36938 23.5289L8.48364 23.5289C8.25349 23.5289 8.02725 23.5245 7.80348 23.5176C5.49148 23.4431 3.54052 22.8661 2.57707 19.3123L1.88857 16.0241C1.76658 15.5212 1.6702 15.0849 1.59542 14.7055L0.983606 14.7055C0.440192 14.7055 0 14.2668 0 13.7252L0 12.7448C0 12.2031 0.440192 11.7644 0.983606 11.7644L1.72132 11.7644L14.968 13.2644L26.5574 11.7644L26.5574 0.980369L25.1051 0.980369L23.4969 2.45582C23.5928 2.84304 23.4797 3.27148 23.3577 3.5852L21.6688 1.90143C21.9517 1.78671 22.4101 1.64999 22.8118 1.75144L24.5794 0.129383C24.6703 0.0460837 24.7894 0 24.9128 0L27.0492 0C27.3211 0 27.541 0.219603 27.541 0.490159L27.541 11.7644L28.2787 11.7644Z" fill-rule="evenodd"/>
	</g>

</svg>