<?xml version="1.0" encoding="utf-8" ?>
<svg xmlns="http://www.w3.org/2000/svg" xmlns:xlink="http://www.w3.org/1999/xlink" width="30" height="20">
	<defs>
		<clipPath id="clip_0">
			<rect x="-291" y="-400" width="1440" height="1659" clip-rule="evenodd"/>
		</clipPath>
	</defs>
	<g clip-path="url(#clip_0)">
		<path fill="rgb(0,183,239)" stroke="none" transform="translate(2.70313 0.0617409)" d="M3.54994 2.91441L9.92311 2.91441C10.9127 2.91441 11.7853 3.42373 12.2936 4.1936C12.802 3.42366 13.6745 2.91441 14.6641 2.91441L21.0373 2.91441C22.6028 2.91441 23.8764 4.18807 23.8764 5.75354L23.8764 5.88429L24.5871 5.88429L24.5871 3.11571C24.5871 1.3977 23.1894 0 21.4714 0C21.4714 0 15.3468 0.869565 12.2846 0.869565C9.22827 0.869565 3.11571 0 3.11571 0C1.3977 0 0 1.3977 0 3.11571L0 5.88429L0.710745 5.88429L0.710745 5.75354C0.710808 4.18807 1.98441 2.91441 3.54994 2.91441Z"/>
	</g>
	<defs>
		<clipPath id="clip_1">
			<rect x="-291" y="-400" width="1440" height="1659" clip-rule="evenodd"/>
		</clipPath>
	</defs>
	<g clip-path="url(#clip_1)">
		<path fill="rgb(0,183,239)" stroke="none" transform="translate(0 7.2718)" d="M28.802 0L1.19323 0C0.535279 0 0 0.53528 0 1.19323L0 8.12019C0 8.77814 0.535279 9.31342 1.19323 9.31342L1.68994 9.31342L1.10304 10.9698C0.980745 11.3149 1.16143 11.6938 1.50646 11.816C1.57969 11.8419 1.65441 11.8543 1.72789 11.8543C2.00075 11.8543 2.2564 11.6845 2.35273 11.4125L3.09652 9.31335L26.8988 9.31335L27.6425 11.4125C27.7389 11.6845 27.9945 11.8543 28.2674 11.8543C28.3409 11.8543 28.4156 11.8419 28.4888 11.816C28.8339 11.6937 29.0145 11.3148 28.8922 10.9698L28.3053 9.31342L28.802 9.31342C29.46 9.31342 29.9953 8.77814 29.9953 8.12019L29.9953 1.19323C29.9953 0.53528 29.46 0 28.802 0Z"/>
	</g>
	<defs>
		<clipPath id="clip_2">
			<rect x="-291" y="-400" width="1440" height="1659" clip-rule="evenodd"/>
		</clipPath>
	</defs>
	<g clip-path="url(#clip_2)">
		<path fill="rgb(0,183,239)" stroke="none" transform="translate(15.8555 4.30199)" d="M1.51329 0C0.678882 0 0 0.67882 0 1.51323L0 1.64398L9.39975 1.64398L9.39975 1.51323C9.39975 0.67882 8.72093 0 7.88652 0L1.51329 0Z"/>
	</g>
	<defs>
		<clipPath id="clip_3">
			<rect x="-291" y="-400" width="1440" height="1659" clip-rule="evenodd"/>
		</clipPath>
	</defs>
	<g clip-path="url(#clip_3)">
		<path fill="rgb(0,183,239)" stroke="none" transform="translate(4.74023 4.30199)" d="M1.51329 0C0.67882 0 0 0.678882 0 1.51329L0 1.64398L9.39975 1.64398L9.39975 1.51323C9.39975 0.67882 8.72093 1.76532e-15 7.88646 1.76532e-15L1.51329 1.76532e-15L1.51329 0Z"/>
	</g>

</svg>