<?xml version="1.0" encoding="utf-8" ?>
<svg xmlns="http://www.w3.org/2000/svg" xmlns:xlink="http://www.w3.org/1999/xlink" width="51" height="51">
	<defs>
		<clipPath id="clip_0">
			<rect x="-585" y="-1582" width="1440" height="3699" clip-rule="evenodd"/>
		</clipPath>
	</defs>
	<g clip-path="url(#clip_0)">
		<path fill="rgb(100,100,100)" stroke="none" d="M6.37496 7.9689L6.37496 1.59376C6.37496 0.712741 7.0877 0 7.96894 0C8.84975 0 9.56249 0.712741 9.56249 1.59376L9.56249 7.9689C9.56249 8.84971 8.84975 9.56245 7.96894 9.56245C7.0877 9.56256 6.37496 8.84971 6.37496 7.9689ZM33.4691 9.56256C34.3497 9.56256 35.0629 8.84982 35.0629 7.96901L35.0629 1.59376C35.0629 0.712741 34.3497 0 33.4691 0C32.5881 0 31.8748 0.712741 31.8748 1.59376L31.8748 7.9689C31.8748 8.84971 32.5881 9.56256 33.4691 9.56256ZM3.18764 15.9374L3.18764 37.9327C3.18764 38.1005 3.30925 38.2496 3.45367 38.2497L22.3127 38.2497L22.3127 41.4378L3.45367 41.4378C1.54573 41.4378 0 39.8626 0 37.9328L0 9.8802C0 7.94399 1.54573 6.37493 3.45367 6.37493L4.7814 6.37493L4.7814 7.96901C4.7814 9.72443 6.21026 11.1564 7.96904 11.1564C9.72741 11.1564 11.1562 9.72443 11.1562 7.96901L11.1562 6.37493L30.2817 6.37493L30.2817 7.96901C30.2817 9.72443 31.7106 11.1564 33.4692 11.1564C35.2273 11.1564 36.6563 9.72443 36.6563 7.96901L36.6563 6.37493L37.9856 6.37493C39.8935 6.37493 41.4377 7.94399 41.4377 9.8802L41.4377 22.3125L38.2501 22.3125L38.2501 15.9374L3.18764 15.9374ZM6.37496 19.125L12.7501 19.125L12.7501 25.4999L6.37496 25.4999L6.37496 19.125ZM22.3127 25.4999L15.9375 25.4999L15.9375 19.125L22.3127 19.125L22.3127 25.4999ZM31.8748 25.4999L31.8748 19.125L25.5002 19.125L25.5002 25.4999L31.8748 25.4999ZM38.25 51C45.2913 51 51 45.2915 51 38.2496C51 31.2087 45.2913 25.4999 38.25 25.4999C31.209 25.4999 25.5001 31.2088 25.5001 38.2496C25.5001 45.2915 31.2091 51 38.25 51ZM6.37496 35.0625L12.7501 35.0625L12.7501 28.6873L6.37496 28.6873L6.37496 35.0625ZM15.9375 35.0625L22.3127 35.0625L22.3127 28.6873L15.9375 28.6873L15.9375 35.0625ZM47.8129 38.2496C47.8129 32.9773 43.5234 28.6873 38.2501 28.6873C32.9772 28.6873 28.6877 32.9772 28.6877 38.2496C28.6877 43.523 32.9772 47.8124 38.2501 47.8124C43.5234 47.8124 47.8129 43.523 47.8129 38.2496ZM38.25 38.2496L43.0314 38.2496C43.9124 38.2496 44.6251 38.9629 44.6251 39.8439C44.6251 40.7245 43.9124 41.4377 43.0314 41.4377L36.6562 41.4377C35.7752 41.4377 35.0629 40.7245 35.0629 39.8439L35.0629 33.4682C35.0629 32.5877 35.7752 31.875 36.6562 31.875C37.5372 31.875 38.25 32.5877 38.25 33.4682L38.25 38.2496Z" fill-rule="evenodd"/>
	</g>

</svg>