<?xml version="1.0" encoding="utf-8" ?>
<svg xmlns="http://www.w3.org/2000/svg" xmlns:xlink="http://www.w3.org/1999/xlink" width="22" height="22">
	<defs>
		<clipPath id="clip_0">
			<rect x="-122" y="-2513" width="1440" height="3878" clip-rule="evenodd"/>
		</clipPath>
	</defs>
	<g clip-path="url(#clip_0)">
		<path fill="rgb(0,183,239)" stroke="none" d="M3 0L19 0Q19.1538 0 19.3051 0.0139819Q19.4565 0.0279637 19.6043 0.0558134Q19.7521 0.0836631 19.8951 0.125154Q20.038 0.166644 20.175 0.221437Q20.312 0.276229 20.4419 0.343877Q20.5717 0.411525 20.6935 0.491477Q20.8152 0.571429 20.9278 0.663032Q21.0404 0.754635 21.1429 0.857143Q21.2454 0.959651 21.337 1.07223Q21.4286 1.1848 21.5085 1.30653Q21.5885 1.42826 21.6561 1.55814Q21.7238 1.68802 21.7786 1.825Q21.8334 1.96199 21.8749 2.10495Q21.9163 2.24791 21.9442 2.39569Q21.972 2.54347 21.986 2.69485Q22 2.84624 22 3L22 19Q22 19.1538 21.986 19.3051Q21.972 19.4565 21.9442 19.6043Q21.9163 19.7521 21.8749 19.8951Q21.8334 20.038 21.7786 20.175Q21.7238 20.312 21.6561 20.4419Q21.5885 20.5717 21.5085 20.6935Q21.4286 20.8152 21.337 20.9278Q21.2454 21.0404 21.1429 21.1429Q21.0404 21.2454 20.9278 21.337Q20.8152 21.4286 20.6935 21.5085Q20.5717 21.5885 20.4419 21.6561Q20.312 21.7238 20.175 21.7786Q20.038 21.8334 19.8951 21.8749Q19.7521 21.9163 19.6043 21.9442Q19.4565 21.972 19.3051 21.986Q19.1538 22 19 22L3 22Q2.84624 22 2.69485 21.986Q2.54347 21.972 2.39569 21.9442Q2.24791 21.9163 2.10495 21.8748Q1.96199 21.8334 1.825 21.7786Q1.68802 21.7238 1.55814 21.6561Q1.42826 21.5885 1.30653 21.5085Q1.1848 21.4286 1.07223 21.337Q0.959651 21.2454 0.857143 21.1429Q0.754635 21.0404 0.663032 20.9278Q0.571429 20.8152 0.491477 20.6935Q0.411525 20.5717 0.343877 20.4419Q0.276229 20.312 0.221437 20.175Q0.166644 20.038 0.125154 19.8951Q0.0836631 19.7521 0.0558134 19.6043Q0.0279637 19.4565 0.0139819 19.3051Q0 19.1538 0 19L0 3Q0 2.84624 0.0139819 2.69485Q0.0279637 2.54347 0.0558134 2.39569Q0.0836631 2.24791 0.125154 2.10495Q0.166644 1.96199 0.221437 1.825Q0.276229 1.68802 0.343877 1.55814Q0.411525 1.42826 0.491477 1.30653Q0.571429 1.1848 0.663032 1.07223Q0.754635 0.959651 0.857143 0.857143Q0.959651 0.754635 1.07223 0.663032Q1.1848 0.571429 1.30653 0.491477Q1.42826 0.411525 1.55814 0.343877Q1.68802 0.276229 1.825 0.221437Q1.96199 0.166644 2.10495 0.125154Q2.24791 0.0836631 2.39569 0.0558134Q2.54347 0.0279637 2.69485 0.0139819Q2.84624 0 3 0Z"/>
	</g>
	<defs>
		<clipPath id="clip_1">
			<rect x="-122" y="-2513" width="1440" height="3878" clip-rule="evenodd"/>
		</clipPath>
	</defs>
	<g clip-path="url(#clip_1)">
		<path fill="none" stroke="rgb(255,255,255)" stroke-width="2" stroke-linecap="round" stroke-linejoin="round" transform="translate(6.38013 6.66809)" d="M0 4.17355L3.38863 7.56218L10.9508 0"/>
	</g>

</svg>