<?xml version="1.0" encoding="utf-8" ?>
<svg xmlns="http://www.w3.org/2000/svg" xmlns:xlink="http://www.w3.org/1999/xlink" width="40" height="40">
	<defs>
		<clipPath id="clip_0">
			<rect x="-1166" y="-580" width="1440" height="2621" clip-rule="evenodd"/>
		</clipPath>
	</defs>
	<g clip-path="url(#clip_0)">
		<rect fill="rgb(255,255,255)" stroke="none" width="40" height="40"/>
	</g>
	<defs>
		<clipPath id="clip_1">
			<path d="M17.9574 6.66675C20.9733 6.66675 23.8086 7.84118 25.9411 9.97373C28.0736 12.1062 29.248 14.9415 29.2481 17.9574C29.2481 20.6457 28.3149 23.1906 26.6017 25.2221L25.811 24.4024C25.4744 24.0535 24.9582 24.0042 24.5708 24.2546C26.1332 22.6146 27.0936 20.396 27.0936 17.9574C27.0936 12.9196 22.9952 8.82112 17.9574 8.82112C12.9197 8.82112 8.82112 12.9196 8.82112 17.9574C8.82112 22.9951 12.9196 27.0936 17.9574 27.0936C20.4025 27.0936 22.6264 26.1281 24.2678 24.5583C24.0054 24.9628 24.0467 25.5161 24.3917 25.8738L25.1511 26.6611C23.1314 28.3364 20.6145 29.2481 17.9574 29.2481C14.9416 29.2481 12.1062 28.0736 9.97373 25.9411C7.84118 23.8086 6.66675 20.9733 6.66675 17.9574C6.66675 14.9415 7.84118 12.1062 9.97373 9.97373C12.1062 7.84118 14.9415 6.66675 17.9574 6.66675ZM24.2678 24.5583C24.3035 24.5033 24.3448 24.4511 24.3917 24.4024C24.447 24.3451 24.5072 24.2958 24.5708 24.2546C24.4722 24.3582 24.3711 24.4594 24.2678 24.5583ZM25.1511 26.6611C25.4238 26.4349 25.6874 26.1947 25.9411 25.9411C26.1727 25.7095 26.393 25.4696 26.6017 25.2221L32.4086 31.2418C32.8004 31.6481 32.8004 32.3069 32.4086 32.7132C32.2126 32.9163 31.9557 33.0179 31.6989 33.0179C31.442 33.0179 31.1851 32.9163 30.9892 32.7132L25.1511 26.6611Z" clip-rule="evenodd"/>
		</clipPath>
	</defs>
	<g clip-path="url(#clip_1)">
		<path fill="rgb(100,100,100)" stroke="none" d="M0 0L40 0L40 40L0 40L0 0Z"/>
	</g>

</svg>