<svg width="32" height="32" viewBox="0 0 32 32" fill="none" xmlns="http://www.w3.org/2000/svg">
<path d="M6.97968 17.2454H6.52485C6.3827 17.2454 6.24054 17.1885 6.15529 17.0749C6.07003 16.9613 6.01313 16.8475 6.04168 16.7053C6.07003 16.4496 6.29745 16.2505 6.58178 16.2505H7.0933C7.23546 16.2505 7.37762 16.3641 7.40597 16.5063C7.43432 16.5915 7.51958 16.6768 7.60503 16.6768H8.20202C8.25893 16.6768 8.31563 16.6484 8.37254 16.5915C8.40089 16.5346 8.42944 16.4779 8.42944 16.421C8.37254 15.7957 7.88934 15.3125 7.26402 15.2272V14.7157C7.26402 14.6021 7.17877 14.4883 7.03661 14.4883H6.43961C6.32601 14.4883 6.2122 14.5735 6.2122 14.7157V15.2272C5.44472 15.3694 4.90462 16.08 4.99009 16.8758C5.07535 17.6433 5.75758 18.2401 6.58176 18.2401L6.97968 18.2403C7.12183 18.2403 7.26399 18.2972 7.34924 18.4108C7.43449 18.5244 7.4914 18.6382 7.46285 18.7803C7.4345 19.0361 7.20708 19.2352 6.92275 19.2352L6.41123 19.235C6.26907 19.235 6.12692 19.1214 6.09856 18.9792C6.07021 18.8939 5.98496 18.8087 5.8995 18.8087H5.30251C5.2456 18.8087 5.1889 18.837 5.132 18.8939C5.10364 18.9508 5.07509 19.0075 5.07509 19.0644C5.132 19.6898 5.61519 20.173 6.24051 20.2582V20.7698C6.24051 20.8834 6.32576 20.9972 6.46792 20.9972H7.06492C7.17852 20.9972 7.29233 20.9119 7.29233 20.7698V20.2297C7.94602 20.0875 8.45775 19.5474 8.51444 18.8938C8.54279 18.4675 8.42918 18.041 8.11652 17.7283C7.8324 17.4159 7.40593 17.2454 6.97968 17.2454L6.97968 17.2454Z" fill="#00AEEF"/>
<path d="M15.8477 15.4541H10.4188C10.0493 15.4541 9.76514 15.7384 9.76514 16.1078C9.76514 16.4774 10.0495 16.7615 10.4188 16.7615H15.8477C16.2173 16.7615 16.5014 16.4772 16.5014 16.1078C16.4729 15.7382 16.1887 15.4541 15.8475 15.4541H15.8477Z" fill="#00AEEF"/>
<path d="M15.5066 18.752H10.4188C10.0493 18.752 9.76514 19.0363 9.76514 19.4056C9.76514 19.7752 10.0495 20.0593 10.4188 20.0593L15.5066 20.0595C15.8762 20.0595 16.1603 19.7752 16.1603 19.4058C16.132 19.0646 15.8477 18.752 15.5066 18.752V18.752Z" fill="#00AEEF"/>
<path d="M28.5531 9.37195L26.0518 7.58122C25.5403 7.21166 24.858 7.32546 24.4885 7.83699L21.6745 11.7595H3.17127C2.51758 11.7595 2.00586 12.271 2.00586 12.9249V22.6173C2.00586 23.271 2.51738 23.8111 3.17127 23.8111H23.3804C24.0341 23.8111 24.5742 23.271 24.5742 22.6173V16.8189L28.8093 10.9353C29.1504 10.4237 29.0365 9.71314 28.5534 9.37211L28.5531 9.37195ZM19.3723 17.16L21.5894 18.7517L21.1631 19.3487L19.1449 19.8318L18.9175 17.8422L19.3723 17.16ZM22.3568 17.7001L20.1398 16.1084L23.8063 10.9922L26.0234 12.5839L22.3568 17.7001ZM23.2663 22.4751H3.31299V13.0385H20.765L17.8374 17.0747C17.6669 17.3021 17.61 17.5578 17.6383 17.8422L17.8658 20.1444C17.8941 20.4571 18.0648 20.7414 18.3206 20.9403C18.5196 21.0824 18.7468 21.1393 18.9743 21.1393C19.0595 21.1393 19.1448 21.1393 19.23 21.111L21.504 20.5995C21.7597 20.5426 22.0155 20.372 22.1577 20.1732L23.2662 18.6098L23.2663 22.4751ZM26.7625 11.5321L24.5455 9.94042L25.4266 8.71831L27.6436 10.31L26.7625 11.5321Z" fill="#00AEEF"/>
</svg>
