<svg width="32" height="32" viewBox="0 0 32 32" fill="none" xmlns="http://www.w3.org/2000/svg">
<path d="M25.3334 6H6.66675C5.60588 6 4.58847 6.42143 3.83832 7.17157C3.08818 7.92172 2.66675 8.93913 2.66675 10V22C2.66675 23.0609 3.08818 24.0783 3.83832 24.8284C4.58847 25.5786 5.60588 26 6.66675 26H25.3334C26.3943 26 27.4117 25.5786 28.1618 24.8284C28.912 24.0783 29.3334 23.0609 29.3334 22V10C29.3334 8.93913 28.912 7.92172 28.1618 7.17157C27.4117 6.42143 26.3943 6 25.3334 6ZM26.6667 22C26.6667 22.3536 26.5263 22.6928 26.2762 22.9428C26.0262 23.1929 25.687 23.3333 25.3334 23.3333H6.66675C6.31313 23.3333 5.97399 23.1929 5.72394 22.9428C5.47389 22.6928 5.33341 22.3536 5.33341 22V10C5.33341 9.64638 5.47389 9.30724 5.72394 9.05719C5.97399 8.80714 6.31313 8.66667 6.66675 8.66667H25.3334C25.687 8.66667 26.0262 8.80714 26.2762 9.05719C26.5263 9.30724 26.6667 9.64638 26.6667 10V22ZM21.3334 14C20.6245 14.005 19.9297 14.1982 19.3201 14.56C18.7128 14.1996 18.0209 14.0065 17.3147 14.0002C16.6085 13.9938 15.9133 14.1746 15.2996 14.524C14.6859 14.8735 14.1757 15.3792 13.8208 15.9897C13.4659 16.6002 13.2789 17.2938 13.2789 18C13.2789 18.7062 13.4659 19.3998 13.8208 20.0103C14.1757 20.6208 14.6859 21.1265 15.2996 21.476C15.9133 21.8254 16.6085 22.0062 17.3147 21.9998C18.0209 21.9935 18.7128 21.8004 19.3201 21.44C19.8505 21.7547 20.4465 21.9425 21.0615 21.9887C21.6764 22.0349 22.2938 21.9382 22.8653 21.7063C23.4367 21.4744 23.9468 21.1135 24.3557 20.6518C24.7646 20.1901 25.0611 19.6401 25.2222 19.0448C25.3833 18.4494 25.4046 17.8249 25.2843 17.2201C25.1641 16.6152 24.9056 16.0463 24.5291 15.5578C24.1526 15.0694 23.6682 14.6746 23.1138 14.4044C22.5595 14.1341 21.9501 13.9957 21.3334 14V14ZM17.5601 19.3333C17.4847 19.3398 17.4088 19.3398 17.3334 19.3333C16.9798 19.3333 16.6407 19.1929 16.3906 18.9428C16.1406 18.6928 16.0001 18.3536 16.0001 18C16.0001 17.6464 16.1406 17.3072 16.3906 17.0572C16.6407 16.8071 16.9798 16.6667 17.3334 16.6667C17.4088 16.6602 17.4847 16.6602 17.5601 16.6667C17.2584 17.4933 17.2584 18.4 17.5601 19.2267V19.3333ZM21.3334 19.3333C21.0697 19.3333 20.8119 19.2551 20.5927 19.1086C20.3734 18.9621 20.2025 18.7539 20.1016 18.5102C20.0007 18.2666 19.9743 17.9985 20.0257 17.7399C20.0771 17.4812 20.2041 17.2437 20.3906 17.0572C20.5771 16.8707 20.8147 16.7437 21.0733 16.6923C21.3319 16.6408 21.6 16.6672 21.8437 16.7682C22.0873 16.8691 22.2955 17.04 22.442 17.2592C22.5886 17.4785 22.6667 17.7363 22.6667 18C22.6667 18.3536 22.5263 18.6928 22.2762 18.9428C22.0262 19.1929 21.687 19.3333 21.3334 19.3333Z" fill="#00AEEF"/>
</svg>
