<svg width="32" height="32" viewBox="0 0 32 32" fill="none" xmlns="http://www.w3.org/2000/svg">
<path fill-rule="evenodd" clip-rule="evenodd" d="M16.6168 4.10285C16.3372 3.96702 16.0104 3.96702 15.7309 4.10285L3.24337 10.1779C2.89487 10.3474 2.67383 10.7011 2.67383 11.0885V13.7886C2.67383 14.3478 3.12697 14.8011 3.68634 14.8011H5.37371V24.9263H3.68634C3.12697 24.9263 2.67383 25.3796 2.67383 25.9388C2.67383 26.4979 3.12697 26.9513 3.68634 26.9513H28.6613C29.2205 26.9513 29.6738 26.4979 29.6738 25.9388C29.6738 25.3796 29.2205 24.9263 28.6613 24.9263H26.9739V14.8011H28.6613C29.2205 14.8011 29.6738 14.3478 29.6738 13.7886V11.0885C29.6738 10.7011 29.4528 10.3474 29.1043 10.1779L16.6168 4.10285ZM27.6491 12.7763V11.7222L16.1742 6.13963L4.69919 11.7222V12.7763H27.6491ZM24.9492 14.8014V24.9265H22.5866V14.8014H24.9492ZM20.5615 14.8014V24.9265H11.7868V14.8014H20.5615ZM9.76176 14.8014V24.9265H7.39908V14.8014H9.76176Z" fill="#00AEEF"/>
</svg>
