<svg width="32" height="32" viewBox="0 0 32 32" fill="none" xmlns="http://www.w3.org/2000/svg">
<path d="M26.6975 4H4.3025C3.6924 4.00199 3.10789 4.24532 2.67652 4.67673C2.24512 5.10793 2.00198 5.6926 2 6.3025V16.6974C2.00199 17.3075 2.24512 17.892 2.67652 18.3234C3.10792 18.7548 3.6924 18.9979 4.3025 18.9999H26.6975C27.3076 18.9979 27.8921 18.7548 28.3235 18.3234C28.7549 17.892 28.998 17.3075 29 16.6974V6.3025C28.998 5.6926 28.7549 5.10789 28.3235 4.67673C27.8921 4.24533 27.3076 4.00198 26.6975 4V4ZM7.99989 17.5004V15.2504H22.9996V17.5004H7.99989ZM27.5001 16.6978C27.5001 16.9107 27.4156 17.1147 27.2651 17.2652C27.1146 17.4157 26.9104 17.5004 26.6975 17.5004H24.5002V14.5003C24.5002 14.3015 24.4211 14.1106 24.2805 13.9699C24.1397 13.8293 23.9491 13.7502 23.7501 13.7502H7.25005C7.05105 13.7502 6.8604 13.8293 6.71964 13.9699C6.57909 14.1106 6.49997 14.3015 6.49997 14.5003V17.5004H4.30261C4.08969 17.5004 3.88552 17.4157 3.73505 17.2652C3.58456 17.1147 3.50006 16.9107 3.50006 16.6978V6.30291C3.50006 6.09019 3.58456 5.88603 3.73505 5.73556C3.88554 5.58506 4.08971 5.50057 4.30261 5.50057H26.6976C26.9105 5.50057 27.1147 5.58506 27.2652 5.73556C27.4156 5.88605 27.5001 6.09022 27.5001 6.30291L27.5001 16.6978Z" fill="#00AEEF"/>
<path d="M8.74988 7H5.74999C5.48201 7 5.23449 7.14294 5.10049 7.37494C4.9665 7.60694 4.9665 7.89283 5.10049 8.125C5.23448 8.357 5.48199 8.49994 5.74999 8.49994H8.75009H8.74989C9.01787 8.49994 9.26559 8.357 9.39959 8.125C9.53338 7.8928 9.53338 7.60691 9.39959 7.37494C9.2656 7.14294 9.01789 7 8.74989 7H8.74988Z" fill="#00AEEF"/>
<path d="M26.0004 7.74986C26.0004 8.16416 25.6646 8.49992 25.2503 8.49992C24.8362 8.49992 24.5005 8.16414 24.5005 7.74986C24.5005 7.33576 24.8363 7 25.2503 7C25.6646 7 26.0004 7.33578 26.0004 7.74986" fill="#00AEEF"/>
<path d="M23.7504 7.74986C23.7504 8.16416 23.4146 8.49992 23.0003 8.49992C22.5862 8.49992 22.2505 8.16414 22.2505 7.74986C22.2505 7.33576 22.5863 7 23.0003 7C23.4146 7 23.7504 7.33578 23.7504 7.74986Z" fill="#00AEEF"/>
<path d="M9.50016 22.5931L10.1153 21.6632C10.2339 21.4415 10.2339 21.1751 10.1149 20.9537C9.99598 20.7322 9.77392 20.5851 9.52364 20.5618C9.27314 20.5386 9.02782 20.6423 8.87017 20.8381L8.24775 21.7606C7.9066 22.2801 7.75412 22.9007 7.81555 23.519C7.87698 24.1374 8.14855 24.716 8.58511 25.1581C8.78033 25.3519 8.902 25.6076 8.92943 25.8811C8.95686 26.1549 8.88808 26.4296 8.7352 26.6581L8.12011 27.588V27.5882C8.01156 27.7534 7.9728 27.955 8.01216 28.1489C8.05152 28.3427 8.16583 28.5133 8.33024 28.6232C8.4531 28.7093 8.60021 28.754 8.75011 28.7507C9.00099 28.7495 9.23458 28.6226 9.37273 28.4131L9.99515 27.4907C10.3361 26.9712 10.4888 26.3505 10.4273 25.7322C10.3659 25.114 10.0942 24.5352 9.65759 24.0931C9.46137 23.9003 9.33812 23.6452 9.30949 23.3715C9.28067 23.0977 9.34806 22.8226 9.50014 22.5932L9.50016 22.5931Z" fill="#00AEEF"/>
<path d="M13.8126 22.5934L14.4277 21.6635H14.4275C14.5368 21.499 14.5768 21.2981 14.5388 21.1042C14.5011 20.9106 14.3881 20.7396 14.2251 20.6285C14.0591 20.5176 13.8558 20.4772 13.6601 20.5168C13.4645 20.5561 13.2925 20.6719 13.1826 20.8384L12.5675 21.7609C12.2224 22.279 12.0673 22.9006 12.1289 23.5201C12.1904 24.1395 12.4647 24.7184 12.9051 25.1584C13.0977 25.3538 13.2172 25.6098 13.2432 25.883C13.2691 26.1563 13.2001 26.4301 13.0474 26.6583L12.4323 27.5882L12.4325 27.5884C12.324 27.7536 12.2852 27.9552 12.3244 28.1491C12.3637 28.3429 12.478 28.5135 12.6424 28.6234C12.7633 28.7079 12.9076 28.7526 13.055 28.7508C13.3058 28.7497 13.5394 28.6228 13.6776 28.4133L14.3 27.4908C14.6457 26.9756 14.8046 26.3573 14.7501 25.7392C14.6954 25.121 14.4308 24.5401 14 24.0933C13.8002 23.9035 13.6724 23.6504 13.6382 23.3769C13.604 23.1033 13.6656 22.8266 13.8126 22.5934L13.8126 22.5934Z" fill="#00AEEF"/>
<path d="M17.9523 22.5918L18.5674 21.6619H18.5672C18.6996 21.4975 18.7567 21.2849 18.7242 21.0764C18.692 20.8681 18.5734 20.6828 18.3974 20.5661C18.2215 20.4496 18.0046 20.4126 17.8 20.4641C17.5955 20.5156 17.4219 20.6508 17.3221 20.8369L16.6997 21.7593C16.3588 22.2788 16.2063 22.8994 16.2677 23.5177C16.3289 24.1362 16.6007 24.7147 17.0373 25.1568C17.2311 25.3514 17.352 25.6069 17.3794 25.8801C17.4066 26.1534 17.3388 26.4278 17.1872 26.6568L16.5721 27.5868L16.5723 27.587C16.4629 27.7514 16.423 27.9522 16.4609 28.146C16.4987 28.3398 16.6116 28.5108 16.7746 28.6219C16.8989 28.7052 17.0452 28.7497 17.1947 28.7493C17.4456 28.7481 17.6792 28.6213 17.8171 28.4118L18.4322 27.4893C18.7773 26.9712 18.9324 26.3496 18.8708 25.7304C18.8094 25.1109 18.535 24.5318 18.0947 24.0919C17.902 23.8964 17.7825 23.6406 17.7565 23.3672C17.7307 23.0939 17.7996 22.8201 17.9523 22.5919L17.9523 22.5918Z" fill="#00AEEF"/>
<path d="M22.2502 22.5931L22.8653 21.6632H22.8651C22.9839 21.4415 22.9839 21.1751 22.8649 20.9537C22.746 20.7322 22.5239 20.5851 22.2734 20.5618C22.0231 20.5386 21.7778 20.6423 21.6202 20.8381L20.9977 21.7606H20.9975C20.6566 22.2801 20.5041 22.9007 20.5656 23.519C20.627 24.1374 20.8985 24.716 21.3351 25.1581C21.5303 25.3519 21.652 25.6076 21.6794 25.8811C21.7067 26.1549 21.6381 26.4296 21.4852 26.6581L20.8701 27.588V27.5882C20.7616 27.7534 20.7228 27.955 20.7622 28.1489C20.8013 28.3427 20.9156 28.5133 21.08 28.6232C21.2029 28.7093 21.3502 28.754 21.5001 28.7507C21.751 28.7495 21.9846 28.6226 22.1225 28.4131L22.745 27.4907H22.7452C23.0861 26.9712 23.2386 26.3505 23.1771 25.7322C23.1157 25.114 22.8442 24.5352 22.4076 24.0931C22.2112 23.9003 22.0881 23.6452 22.0593 23.3715C22.0307 23.0977 22.0981 22.8226 22.2501 22.5932L22.2502 22.5931Z" fill="#00AEEF"/>
</svg>
