<svg width="32" height="32" viewBox="0 0 32 32" fill="none" xmlns="http://www.w3.org/2000/svg">
<path d="M19.7889 18.616C19.8793 18.616 19.9683 18.5965 20.0505 18.5593C22.0777 17.6426 24.4794 15.6611 24.5758 13.0932C24.5822 12.9248 24.5215 12.7607 24.4069 12.637C24.2924 12.5134 24.1333 12.4403 23.9649 12.4341C23.7963 12.4276 23.6323 12.4886 23.5087 12.6033C23.385 12.7179 23.3121 12.877 23.3061 13.0456C23.2363 14.906 21.3578 16.574 19.5269 17.4018L19.5267 17.4016C19.2542 17.525 19.1044 17.8221 19.1678 18.1146C19.2309 18.4073 19.4897 18.616 19.7888 18.616L19.7889 18.616Z" fill="black"/>
<path d="M25.5059 23.8692C25.3708 23.8698 25.2358 23.8782 25.1018 23.8944L23.6979 19.339L23.6977 19.3392C25.0502 18.3027 26.1461 16.9688 26.9003 15.4408C27.6546 13.9128 28.047 12.2317 28.0472 10.5278C28.0472 10.1768 27.7627 9.89258 27.412 9.89258H6.44698C6.09623 9.89258 5.81174 10.1769 5.81174 10.5278C5.81262 11.1666 5.86846 11.8043 5.97858 12.4336H2.63525C2.28449 12.4336 2 12.7181 2 13.0691C2 13.4198 2.2845 13.7043 2.63525 13.7043H6.27661C6.96948 16.0127 8.39109 18.0346 10.329 19.4674L7.73587 30.0713C7.69533 30.2351 7.72192 30.4083 7.80922 30.5526C7.89652 30.6968 8.03788 30.8005 8.20185 30.8406C8.36559 30.8807 8.53865 30.8539 8.68289 30.7662C8.82714 30.6784 8.9304 30.5371 8.97006 30.3731L9.55079 27.9987H22.0725C22.2345 28.8733 22.7241 29.6532 23.4416 30.1792C24.1591 30.7052 25.05 30.9377 25.933 30.8291C26.816 30.7208 27.6243 30.2794 28.1929 29.5954C28.7617 28.9113 29.0479 28.0362 28.9934 27.1483C28.9391 26.2604 28.5478 25.4266 27.8997 24.8173C27.2516 24.2079 26.3954 23.8689 25.5058 23.8691L25.5059 23.8692ZM7.10259 11.1631H26.7561C26.5946 13.6596 25.4891 16.001 23.664 17.7118C21.8389 19.4228 19.4308 20.3749 16.9292 20.3749C14.4276 20.3749 12.0198 19.4228 10.1945 17.7118C8.36933 16.0011 7.26368 13.6596 7.10213 11.1631H7.10259ZM11.4579 20.2003C13.1596 21.1666 15.0869 21.6651 17.0436 21.6452C19.0003 21.6253 20.917 21.0875 22.5987 20.0866L23.8879 24.2695C22.9382 24.7678 22.2693 25.6739 22.0728 26.7281H9.86133L11.4579 20.2003ZM25.506 29.5869C24.9164 29.5869 24.3507 29.3527 23.9337 28.9357C23.5167 28.5187 23.2825 27.953 23.2825 27.3634C23.2825 26.7736 23.5167 26.2081 23.9337 25.7911C24.3507 25.3741 24.9164 25.1397 25.506 25.1397C26.0958 25.1397 26.6613 25.3741 27.0783 25.7911C27.4953 26.2081 27.7297 26.7735 27.7297 27.3634C27.7291 27.9528 27.4944 28.518 27.0776 28.9348C26.6608 29.3518 26.0956 29.5862 25.506 29.5869V29.5869Z" fill="black"/>
<path d="M22.1649 4.87503C22.4831 5.82912 22.5994 6.50095 22.1977 6.90266H22.1979C22.0787 7.02165 22.0118 7.18318 22.0115 7.3518C22.0115 7.5202 22.0785 7.68195 22.1977 7.80116C22.3169 7.92015 22.4784 7.98706 22.647 7.98706C22.8154 7.98706 22.9772 7.92014 23.0962 7.80094C24.1338 6.76329 23.6373 5.27362 23.3705 4.47331L23.2105 3.99382C22.9036 3.07785 22.7297 2.44987 23.0962 2.08315C23.3432 1.83499 23.3426 1.43373 23.0951 1.18601C22.8473 0.938513 22.4461 0.937849 22.1979 1.18491C21.2473 2.13525 21.6859 3.44301 22.0058 4.39778L22.1649 4.87503Z" fill="black"/>
<path d="M16.4473 4.87503C16.7655 5.82912 16.8818 6.50095 16.4801 6.90266C16.3609 7.02165 16.294 7.18318 16.294 7.3518C16.294 7.5202 16.3609 7.68195 16.4799 7.80116C16.5991 7.92015 16.7609 7.98706 16.9293 7.98706C17.0979 7.98706 17.2594 7.92014 17.3784 7.80094C18.416 6.76329 17.9195 5.27362 17.6527 4.47331L17.4927 3.99382C17.1858 3.07785 17.0119 2.44987 17.3784 2.08315C17.6254 1.83499 17.6248 1.43373 17.3773 1.18601C17.1298 0.938513 16.7283 0.937849 16.4801 1.18491C15.5296 2.13525 15.9681 3.44301 16.288 4.39778L16.4473 4.87503Z" fill="black"/>
<path d="M10.6477 4.99199C10.9546 5.90796 11.1285 6.53595 10.762 6.90266C10.6428 7.02165 10.5759 7.18318 10.5759 7.3518C10.5759 7.5202 10.6428 7.68195 10.762 7.80116C10.881 7.92015 11.0428 7.98706 11.2112 7.98706C11.3798 7.98706 11.5413 7.92014 11.6605 7.80094C12.6111 6.85059 12.1726 5.54283 11.8526 4.58806L11.6935 4.11079C11.3754 3.1567 11.259 2.48487 11.6607 2.08315H11.6605C11.9074 1.83499 11.9069 1.43373 11.6592 1.18601C11.4117 0.938513 11.0104 0.937849 10.7621 1.18491C9.72442 2.22255 10.221 3.71222 10.4878 4.51253L10.6477 4.99199Z" fill="black"/>
</svg>
