<svg width="32" height="32" viewBox="0 0 32 32" fill="none" xmlns="http://www.w3.org/2000/svg">
<path d="M28.7244 14.655C28.4802 14.3422 28.1053 14.1598 27.7085 14.161H25.3337L24.4934 11.5389C24.2704 10.8378 23.8295 10.2256 23.2351 9.79186C22.6405 9.35783 21.9234 9.12485 21.1875 9.12616H9.81391C9.07813 9.12488 8.36089 9.35783 7.7663 9.79186C7.17195 10.2256 6.73105 10.8378 6.50804 11.5389L5.66774 14.161H3.29293C2.89661 14.1613 2.52244 14.343 2.27731 14.6542C2.03213 14.9654 1.94318 15.3719 2.03596 15.757L2.19677 16.4352C2.26534 16.7176 2.42666 16.9686 2.65528 17.1481C2.88364 17.3275 3.16603 17.4249 3.45656 17.4246H3.78101L3.07935 18.3016C2.60505 18.8998 2.33947 19.6368 2.32394 20.4001V20.4134V20.4705V29.5873C2.3247 29.9303 2.46131 30.2591 2.70394 30.5015C2.94683 30.7439 3.27561 30.8802 3.61869 30.8807H8.07627C8.41805 30.8782 8.74478 30.7411 8.98586 30.4987C9.22671 30.2566 9.36204 29.9288 9.36255 29.5873V28.3302H21.6392L21.6389 29.5873C21.6394 29.9301 21.7758 30.2588 22.0184 30.5012C22.2608 30.7439 22.5896 30.8802 22.9324 30.8807H27.39C27.733 30.8802 28.0621 30.7439 28.3047 30.5015C28.5476 30.2591 28.6842 29.9303 28.685 29.5873V20.4705V20.4134V20.4001V20.4004C28.6676 19.6363 28.4 18.8992 27.9234 18.3018L27.2218 17.4249H27.5465C27.8362 17.4241 28.1174 17.326 28.3447 17.1463C28.5723 16.9666 28.7326 16.7158 28.8004 16.4339L28.9612 15.7616C29.0583 15.376 28.9709 14.9672 28.7244 14.6552L28.7244 14.655ZM15.5004 27.2343H3.41363V23.303L9.22304 23.7414L9.58546 24.6752C9.66753 24.8862 9.87066 25.0249 10.097 25.0246H20.9075C21.1339 25.0249 21.337 24.8862 21.419 24.6752L21.7845 23.7414L27.5939 23.303V27.2343H15.5004ZM7.87839 21.6194C8.21379 21.6589 8.49975 21.8803 8.62232 22.1951L8.78162 22.6057L3.41366 22.1979V21.0872L7.87839 21.6194ZM27.5865 22.204L22.2185 22.6118L22.3778 22.2012V22.201C22.5002 21.8867 22.7856 21.6652 23.1203 21.6252L27.5865 21.0933L27.5865 22.204ZM22.9903 20.526C22.6284 20.5685 22.285 20.709 21.997 20.9325C21.709 21.1557 21.4876 21.4532 21.3563 21.7931L20.8741 23.0325V23.0427L20.5321 23.9197H10.4725L10.1305 23.0427V23.0325L9.64825 21.7931H9.648C9.51649 21.4524 9.29399 21.1542 9.00497 20.9309C8.71595 20.7076 8.37112 20.5675 8.00821 20.5259L3.49504 19.9882H3.49529C3.56003 19.6227 3.71015 19.2776 3.93367 18.9812L5.70802 16.7668C6.20705 17.1897 6.83964 17.4226 7.49386 17.4247H23.5032C24.1571 17.4226 24.7898 17.1897 25.289 16.7668L27.0647 18.987C27.2882 19.2834 27.4386 19.6285 27.5033 19.994L22.9903 20.526ZM7.55249 11.8737C7.70515 11.3941 8.00666 10.9758 8.41315 10.6794C8.81991 10.3827 9.31027 10.2237 9.81338 10.225H21.187C21.6901 10.2237 22.1805 10.3828 22.5872 10.6794C22.9938 10.9758 23.2953 11.394 23.4479 11.8737L24.7077 15.8053V15.8051C24.3937 16.1356 23.9592 16.3245 23.5035 16.3283H7.49677C7.04107 16.3245 6.60649 16.1356 6.29253 15.8051L7.55249 11.8737ZM3.46035 16.3282C3.36987 16.3295 3.28984 16.2694 3.26588 16.1822L3.10507 15.504H3.10532C3.0913 15.4451 3.10532 15.3829 3.1433 15.3358C3.18 15.2886 3.23683 15.2611 3.29673 15.2614H5.31654L5.1835 15.675L4.65745 16.3325L3.46035 16.3282ZM8.26713 29.5868C8.2656 29.6951 8.17818 29.7826 8.06986 29.7841H3.61228C3.5037 29.7826 3.41603 29.6951 3.41374 29.5868V28.3298H8.26717L8.26713 29.5868ZM27.388 29.7841H22.9304H22.9307C22.8224 29.7826 22.735 29.6951 22.7334 29.5868V28.3298H27.5869V29.5868C27.583 29.6941 27.4956 29.7795 27.3883 29.781L27.388 29.7841ZM27.7387 16.1778L27.739 16.1775C27.7178 16.2677 27.6373 16.3314 27.5445 16.3312H26.3431L25.817 15.6736L25.684 15.26H27.7081V15.2597C27.7693 15.2597 27.8266 15.2885 27.8631 15.3372C27.9005 15.3846 27.914 15.4466 27.8998 15.5054L27.7387 16.1778ZM15.5006 6.91613C16.0118 6.91562 16.502 6.71249 16.8634 6.35109C17.2248 5.98943 17.4279 5.49931 17.4284 4.9883C17.1679 3.94516 16.6511 2.9835 15.9244 2.1909C15.8171 2.06958 15.6627 2 15.5006 2C15.3385 2 15.184 2.06958 15.0768 2.1909C14.3501 2.9835 13.8332 3.94516 13.5728 4.9883C13.5733 5.49931 13.7764 5.98943 14.1378 6.35109C14.4992 6.71249 14.9893 6.91562 15.5006 6.91613H15.5006ZM15.5006 3.43925V3.439C15.8791 3.89445 16.1617 4.42127 16.3322 4.98832C16.3322 5.44759 15.9599 5.81994 15.5006 5.81994C15.0413 5.81994 14.669 5.44759 14.669 4.98832C14.8395 4.42125 15.1221 3.89441 15.5006 3.439V3.43925ZM9.65445 8.37776V8.37751C10.1657 8.377 10.6558 8.17387 11.0172 7.81247C11.3786 7.45107 11.582 6.96095 11.5823 6.44968C11.3218 5.40653 10.8049 4.44488 10.0783 3.65254C9.971 3.53096 9.8168 3.46139 9.65445 3.46139C9.49236 3.46139 9.33816 3.53096 9.23061 3.65254C8.50423 4.44494 7.98709 5.40653 7.72689 6.44968C7.72715 6.96094 7.93053 7.45107 8.29193 7.81247C8.65334 8.17387 9.14346 8.37699 9.65446 8.37751L9.65445 8.37776ZM9.65445 4.90089V4.90063C10.0329 5.35583 10.3158 5.88291 10.4861 6.4497C10.4861 6.90897 10.1137 7.28132 9.65445 7.28132C9.19517 7.28132 8.82308 6.90896 8.82308 6.4497C8.99334 5.88287 9.27624 5.35579 9.65445 4.90063V4.90089ZM21.3465 8.37776L21.3467 8.37751C21.8577 8.377 22.3479 8.17387 22.7092 7.81247C23.0707 7.45107 23.274 6.96095 23.2743 6.44968C23.0141 5.40653 22.497 4.44488 21.7706 3.65254C21.663 3.53096 21.5088 3.46139 21.3467 3.46139C21.1844 3.46139 21.0302 3.53096 20.9229 3.65254C20.1962 4.44494 19.6794 5.40653 19.4189 6.44968C19.4192 6.96094 19.6225 7.45107 19.9839 7.81247C20.3454 8.17387 20.8355 8.37699 21.3467 8.37751L21.3465 8.37776ZM21.3465 4.90089L21.3467 4.90063C21.7249 5.35583 22.0079 5.88291 22.1781 6.4497C22.1781 6.90897 21.806 7.28132 21.3467 7.28132C20.8875 7.28132 20.5151 6.90896 20.5151 6.4497C20.6854 5.88287 20.9683 5.35579 21.3467 4.90063L21.3465 4.90089Z" fill="#00AEEF"/>
</svg>
