<svg width="32" height="32" viewBox="0 0 32 32" fill="none" xmlns="http://www.w3.org/2000/svg">
<path fill-rule="evenodd" clip-rule="evenodd" d="M20.3445 4.16475C20.5642 3.94508 20.9203 3.94508 21.14 4.16475L28.8353 11.86C29.0549 12.0797 29.0549 12.4358 28.8353 12.6555L25.9498 15.541C25.8443 15.6465 25.7012 15.7058 25.552 15.7058C25.4028 15.7058 25.2598 15.6465 25.1543 15.541L24.8243 15.2111C24.8151 16.0212 24.5346 16.8292 23.9832 17.4877L25.9975 19.502L25.9998 19.5044C26.6321 20.1442 26.8392 21.2246 26.2521 22.0351L26.2517 22.0356C25.9489 22.4528 25.5247 22.7072 25.0736 22.7984C25.2283 23.3369 25.1634 23.9371 24.8086 24.4339L24.8078 24.435C24.3093 25.1297 23.4615 25.3798 22.7183 25.17C22.6221 25.6157 22.3669 26.0331 21.9508 26.33C21.4552 26.6879 20.8557 26.7506 20.3194 26.5953C20.2277 27.0463 19.973 27.4698 19.5546 27.7701L19.5535 27.7709C18.7499 28.3447 17.6699 28.1606 17.0234 27.5141L15.5009 25.9916L15.4269 26.0645C15.4173 26.0745 15.4077 26.0844 15.3979 26.0942C15.386 26.106 15.3738 26.1172 15.3613 26.1278C14.7127 26.7259 13.6728 26.8885 12.8915 26.3289L12.891 26.3285C12.4712 26.027 12.2163 25.6027 12.1246 25.1512C11.5875 25.306 10.988 25.2441 10.4902 24.8869L10.4901 24.8868C10.0766 24.5898 9.82109 24.1723 9.72478 23.7266C8.98135 23.9364 8.1349 23.687 7.63404 22.99L7.63353 22.9893C7.27726 22.4919 7.21395 21.8926 7.36884 21.3556C6.91835 21.2643 6.49484 21.0096 6.19305 20.5902C5.60407 19.7802 5.8097 18.6994 6.44809 18.0606L6.44821 18.0605L7.0189 17.4898C6.46633 16.8311 6.18512 16.0224 6.17571 15.2115L5.84571 15.5415C5.74023 15.647 5.59716 15.7062 5.44798 15.7062C5.2988 15.7062 5.15573 15.647 5.05024 15.5415L2.16475 12.656C2.05926 12.5505 2 12.4074 2 12.2583C2 12.1091 2.05926 11.966 2.16475 11.8605L9.86004 4.16523C9.96553 4.05975 10.1086 4.00049 10.2578 4.00049C10.407 4.00049 10.55 4.05975 10.6555 4.16523L13.541 7.05073C13.7607 7.27039 13.7607 7.62654 13.541 7.8462L12.9018 8.4854C13.8024 8.43023 14.7167 8.65424 15.5032 9.15808C15.7684 8.98955 16.0443 8.8546 16.329 8.748L16.3311 8.74719C16.8992 8.53714 17.5027 8.45046 18.1002 8.48696L17.459 7.84571C17.3535 7.74023 17.2942 7.59716 17.2942 7.44798C17.2942 7.2988 17.3535 7.15573 17.459 7.05025L20.3445 4.16475ZM20.1051 10.5444C19.1919 9.63097 17.862 9.38103 16.7224 9.80191C16.4907 9.88875 16.2706 9.99889 16.0611 10.137C16.0162 10.167 15.9705 10.1994 15.9256 10.2329C15.4683 10.9647 15.0112 11.6965 14.5541 12.4284C14.2465 12.921 13.9388 13.4135 13.631 13.9062L14.0946 14.209L14.0965 14.2102C14.8782 14.7255 15.9296 14.51 16.4446 13.7294C16.4448 13.7293 16.4449 13.7291 16.445 13.7289L17.5637 12.0254C17.6566 11.884 17.8082 11.7919 17.9765 11.7747C18.1448 11.7574 18.312 11.8168 18.4316 11.9365L23.183 16.6878C23.9362 15.7114 23.8652 14.3092 22.9739 13.4189L20.1051 10.5444ZM22.8118 17.9073C22.8078 17.9035 22.8038 17.8996 22.7998 17.8956L18.1247 13.2205L17.3847 14.3474L17.3841 14.3482C16.527 15.648 14.7783 16.0062 13.4786 15.1503C13.4782 15.15 13.4778 15.1498 13.4774 15.1495L12.9282 14.7908L12.9267 14.7898C12.4555 14.4798 12.3255 13.8471 12.6337 13.3793C12.9555 12.8643 13.2772 12.3492 13.599 11.834C13.9787 11.2261 14.3584 10.6182 14.7381 10.0104C13.5163 9.32478 11.9354 9.50299 10.8948 10.5433C10.8948 10.5433 10.8948 10.5433 10.8948 10.5433C10.8946 10.5434 10.8945 10.5436 10.8944 10.5437L8.02577 13.4179C7.11195 14.3318 7.06084 15.7834 7.8767 16.7619C8.49801 16.4322 9.28829 16.4118 9.91585 16.8682C10.3352 17.17 10.5899 17.5935 10.6812 18.0439C11.2182 17.8891 11.8175 17.9524 12.3149 18.3086L12.3156 18.3091C13.0127 18.81 13.2621 19.6565 13.0522 20.3999C13.498 20.4962 13.9155 20.7517 14.2124 21.1652L14.2125 21.1653C14.5698 21.6631 14.6316 22.2626 14.4769 22.7997C14.9284 22.8914 15.3526 23.1463 15.6541 23.5661L15.6545 23.5667C15.9413 23.9671 16.0384 24.4354 15.9844 24.8842L17.8189 26.7186C18.1283 27.0281 18.6004 27.0688 18.8992 26.8558C19.3068 26.5626 19.3436 25.9868 18.9977 25.6409C18.9909 25.6341 18.9843 25.6271 18.9779 25.6201L16.1122 22.7541C15.8926 22.5344 15.8926 22.1783 16.1123 21.9586C16.3319 21.739 16.6881 21.739 16.9077 21.9586L19.7914 24.8426C19.7975 24.8487 19.8034 24.8549 19.8091 24.8612L20.2663 25.313C20.5774 25.5931 21.0146 25.619 21.293 25.4175L21.2966 25.4149C21.6804 25.1416 21.7418 24.6209 21.472 24.2666L21.4226 24.2143C21.4163 24.2085 21.41 24.2025 21.4039 24.1964L18.0371 20.8297C17.8175 20.61 17.8175 20.2539 18.0371 20.0342C18.2568 19.8145 18.6129 19.8145 18.8326 20.0342L22.1693 23.3709C22.1839 23.3835 22.1981 23.397 22.2117 23.4114L22.3001 23.5051C22.3004 23.5053 22.3006 23.5056 22.3009 23.5058L22.6814 23.8811C22.6824 23.8821 22.6835 23.8832 22.6846 23.8843C22.6857 23.8854 22.6869 23.8866 22.688 23.8877C23.0166 24.2228 23.596 24.1937 23.8935 23.7795C24.1061 23.4811 24.066 23.0147 23.7563 22.7049L23.7537 22.7023L23.3288 22.2718L23.3262 22.2692C23.3215 22.2645 23.317 22.2597 23.3125 22.2549L19.962 18.9043C19.7423 18.6846 19.7423 18.3285 19.962 18.1088C20.1816 17.8892 20.5378 17.8892 20.7574 18.1088L24.1242 21.4756C24.1285 21.4799 24.1327 21.4843 24.1369 21.4887C24.4826 21.8199 25.0448 21.7827 25.341 21.3752C25.5522 21.0837 25.5123 20.6124 25.2006 20.2961C25.2003 20.2958 25.2 20.2954 25.1996 20.2951L22.8118 17.9073ZM14.6243 25.2761C14.9133 24.9671 14.9474 24.5115 14.7401 24.2219C14.4511 23.8201 13.8916 23.7775 13.5432 24.1L13.4167 24.2265C13.103 24.5756 13.1484 25.1283 13.5471 25.4147C13.844 25.6268 14.3147 25.5857 14.6237 25.2767L14.6243 25.2761ZM13.1967 22.855C13.4752 22.5377 13.4997 22.1014 13.2986 21.8213C13.0003 21.4061 12.4215 21.3716 12.0788 21.7143C12.0788 21.7143 12.0788 21.7143 12.0788 21.7143C12.0781 21.715 12.0774 21.7157 12.0766 21.7164C12.068 21.7264 12.0589 21.7361 12.0494 21.7456L11.04 22.7554C11.0311 22.7643 11.0219 22.7729 11.0125 22.7811C10.6986 23.1266 10.7421 23.6826 11.1462 23.9729M10.2802 21.9242L11.2538 20.9503C11.2546 20.9495 11.2553 20.9488 11.2561 20.9481C11.2647 20.9381 11.2738 20.9283 11.2833 20.9188C11.2833 20.9188 11.2833 20.9188 11.2833 20.9188L11.7664 20.4358L11.7686 20.4335C12.1061 20.0998 12.0761 19.5227 11.6596 19.223C11.3634 19.0111 10.8989 19.0515 10.5893 19.3609L10.5862 19.3639L10.1673 19.7762C10.1546 19.792 10.1409 19.8073 10.1262 19.822L9.11646 20.8318C9.10141 20.8468 9.08571 20.8608 9.06947 20.8738L8.68884 21.2606L8.6858 21.2637C8.37633 21.5733 8.33597 22.0378 8.54796 22.334C8.84766 22.7505 9.42473 22.7805 9.75841 22.443L9.76066 22.4407L10.2437 21.9577C10.2437 21.9577 10.2437 21.9577 10.2437 21.9577C10.2555 21.9459 10.2677 21.9347 10.2802 21.9242ZM8.36924 19.988L9.31657 19.0407C9.32958 19.0244 9.34363 19.0087 9.35871 18.9937C9.70449 18.6481 9.66975 18.0765 9.25807 17.7808L9.25491 17.7785C8.96323 17.5659 8.49451 17.6059 8.18164 17.9188C8.1758 17.9246 8.16986 17.9303 8.16383 17.9358L7.2438 18.8559C6.93091 19.1689 6.89094 19.6377 7.1034 19.9293L7.10568 19.9324C7.40137 20.3441 7.97296 20.3788 8.31855 20.0331C8.33474 20.0169 8.35167 20.0019 8.36924 19.988ZM13.1967 22.855L12.7251 23.3262C12.7252 23.3262 12.7251 23.3262 12.7251 23.3262C12.7188 23.3326 12.7126 23.3391 12.7066 23.3457L12.6778 23.3744C12.6687 23.3824 12.6598 23.3908 12.6511 23.3995C12.6511 23.3995 12.6511 23.3995 12.6511 23.3995L12.1799 23.871C11.8626 24.1495 11.4265 24.174 11.1463 23.973M18.6522 7.44798L25.552 14.3478L27.642 12.2578L20.7422 5.35795L18.6522 7.44798ZM3.35795 12.2583L5.44798 14.3483L12.3478 7.44847L10.2578 5.35844L3.35795 12.2583Z" fill="black"/>
</svg>
