<svg width="32" height="32" viewBox="0 0 32 32" fill="none" xmlns="http://www.w3.org/2000/svg">
<path d="M26.2152 20.0328L21.4974 17.8577L18.9776 16.1352L18.9914 14.1502H18.9912C19.52 13.6745 19.9465 13.0959 20.2448 12.4501H20.5084C21.1819 12.4518 21.8089 12.1065 22.1676 11.5365C22.5263 10.9665 22.5663 10.2519 22.2733 9.64547C21.9804 9.03887 21.3957 8.62598 20.7262 8.55267V4.10562C20.7254 3.7061 20.5878 3.319 20.3366 3.00834C20.0854 2.69767 19.7355 2.48247 19.3449 2.39806C16.8093 1.86731 14.1912 1.86731 11.6554 2.39806C11.2648 2.48244 10.9151 2.69785 10.6639 3.00834C10.4125 3.31901 10.275 3.70612 10.2743 4.10562V8.55267C9.60471 8.62597 9.02012 9.0389 8.72712 9.64547C8.43414 10.2519 8.47419 10.9665 8.83288 11.5365C9.19157 12.1065 9.81858 12.4519 10.492 12.4501H10.7556C11.0552 13.0988 11.4841 13.6797 12.0162 14.1566V16.1397L9.50303 17.8577L4.78518 20.0328C3.95482 20.4174 3.25167 21.0312 2.7582 21.8018C2.26477 22.5724 2.00174 23.4679 2 24.383V29.4342C2 29.6747 2.195 29.8697 2.43549 29.8697C2.67598 29.8697 2.87098 29.6747 2.87098 29.4342V24.383C2.87253 23.6343 3.08775 22.9018 3.49136 22.2711C3.89496 21.6406 4.47023 21.1386 5.1497 20.8239L5.91939 20.4689V29.4339C5.91939 29.6744 6.11439 29.8694 6.35488 29.8694C6.59537 29.8694 6.79036 29.6744 6.79036 29.4339V20.0672L9.58177 18.7804L16.8064 28.3706V29.4338C16.8064 29.6743 17.0014 29.8693 17.2419 29.8693C17.4824 29.8693 17.6774 29.6743 17.6774 29.4338V28.2248C17.6774 28.1303 17.6466 28.0383 17.5897 27.9629L16.0451 25.9126L21.4182 18.7806L24.2096 20.0674V29.4341C24.2096 29.6746 24.4046 29.8696 24.6451 29.8696C24.8856 29.8696 25.0806 29.6746 25.0806 29.4341V20.469L25.8503 20.8238V20.824C26.5298 21.1388 27.1051 21.6408 27.5086 22.2712C27.9122 22.9019 28.1275 23.6345 28.129 24.3832V29.4343C28.129 29.6748 28.324 29.8698 28.5645 29.8698C28.805 29.8698 29 29.6748 29 29.4343V24.3832C28.9983 23.4681 28.7352 22.5726 28.2418 21.802C27.7484 21.0313 27.0452 20.4176 26.2148 20.033L26.2152 20.0328ZM17.1123 23.0491L16.8761 22.5257L17.5758 21.6223L17.9584 21.9261L17.1123 23.0491ZM14.8427 22.0307L14.1067 21.0806L15.5002 19.974L16.8938 21.0806L16.1577 22.0307H14.8427ZM13.0422 21.9261L13.4248 21.6223L14.1245 22.5257L13.8883 23.0491L13.0422 21.9261ZM18.4826 21.2302L16.1535 19.3805L18.6012 16.933L20.66 18.3404L18.4826 21.2302ZM21.5971 10.4903C21.5967 10.7699 21.489 11.0386 21.2961 11.2409C21.1033 11.4433 20.84 11.5638 20.5609 11.5778C20.6666 11.1505 20.7221 10.7125 20.7261 10.2725V9.42334C20.9719 9.47389 21.1925 9.60765 21.3512 9.80206C21.5098 9.99628 21.5967 10.2395 21.5971 10.4903L21.5971 10.4903ZM11.1454 4.10529C11.1456 3.90544 11.214 3.7118 11.3394 3.55628C11.4648 3.40075 11.6396 3.29265 11.8348 3.25008C14.2521 2.74402 16.7482 2.74402 19.1654 3.25008C19.3606 3.29266 19.5356 3.40055 19.661 3.55608C19.7864 3.71181 19.8548 3.90545 19.855 4.1053V5.99656C16.9922 5.31107 14.008 5.31107 11.1452 5.99656L11.1454 4.10529ZM10.4396 11.5778C10.0831 11.5607 9.75745 11.3701 9.56808 11.0674C9.37891 10.7647 9.34994 10.3885 9.49089 10.0606C9.63184 9.7324 9.92463 9.49444 10.2744 9.42327V10.2724C10.2792 10.7124 10.3346 11.1504 10.4396 11.5778H10.4396ZM11.1454 10.2724V6.90167C14.0039 6.1808 16.9968 6.1808 19.8551 6.90167V10.2724C19.8551 11.8284 19.0252 13.266 17.6777 14.0439C16.3302 14.8217 14.6703 14.8217 13.3228 14.0439C11.9754 13.266 11.1454 11.8283 11.1454 10.2724V10.2724ZM15.5003 15.4983C16.4195 15.4981 17.3221 15.2535 18.1157 14.7897L18.106 16.1963L15.5003 18.8018L12.8874 16.1889V14.7911C13.6804 15.254 14.5821 15.4979 15.5003 15.4983L15.5003 15.4983ZM12.3993 16.9327L14.847 19.3802L12.5296 21.2207L10.3421 18.3389L12.3993 16.9327ZM14.4856 23.8422L14.9104 22.9017H16.0899L16.5147 23.8422L15.5002 25.189L14.4856 23.8422ZM15.5003 28.563C15.5003 28.7392 15.3941 28.898 15.2314 28.9653C15.0687 29.0327 14.8814 28.9956 14.7568 28.871C14.6322 28.7464 14.5951 28.5591 14.6625 28.3964C14.7298 28.2337 14.8886 28.1275 15.0648 28.1275C15.1803 28.1275 15.2911 28.1734 15.3727 28.2551C15.4544 28.3367 15.5003 28.4475 15.5003 28.563Z" fill="black"/>
</svg>
