<svg width="32" height="32" viewBox="0 0 32 32" fill="none" xmlns="http://www.w3.org/2000/svg">
<path d="M9.52377 10.8702C10.3575 10.8702 11.1571 10.5386 11.7459 9.94866C12.335 9.35874 12.6651 8.5587 12.6639 7.72501C12.6626 6.89131 12.3298 6.09255 11.7388 5.50428C11.1481 4.91623 10.3475 4.58736 9.51376 4.58986C8.68027 4.59256 7.88172 4.92663 7.29468 5.51845C6.70748 6.11023 6.37983 6.91128 6.38383 7.74498C6.3884 8.57494 6.72122 9.36934 7.3097 9.95489C7.89796 10.5402 8.6938 10.8693 9.52377 10.8702V10.8702ZM9.52377 5.33526C10.1565 5.33526 10.7633 5.58675 11.2108 6.03397C11.6582 6.4814 11.9095 7.08818 11.9095 7.72096C11.9095 8.35374 11.6582 8.96048 11.2108 9.40795C10.7633 9.85542 10.1565 10.1067 9.52377 10.1067C8.8912 10.1067 8.28446 9.85537 7.83699 9.40795C7.38956 8.96052 7.13828 8.35374 7.13828 7.72096C7.13828 7.08818 7.38956 6.48144 7.83699 6.03397C8.28442 5.58675 8.8912 5.33526 9.52377 5.33526V5.33526Z" fill="#00AEEF"/>
<path d="M5.76673 15.0578L6.1813 27.3199C6.18775 27.5212 6.35271 27.6808 6.55406 27.6808H8.04508C8.22272 27.6816 8.37624 27.5566 8.41181 27.3825L9.53008 21.7166L10.6454 27.3825C10.681 27.5566 10.8345 27.6816 11.0121 27.6808H12.5032C12.7045 27.6808 12.8695 27.5212 12.8759 27.3199L13.2784 15.0578L15.7922 10.8441L18.5625 15.0189L17.1372 22.9304C17.11 23.0835 17.1798 23.2376 17.3132 23.3179C17.7165 23.529 18.1427 23.6929 18.5835 23.8069V27.308C18.5835 27.4068 18.6228 27.5016 18.6927 27.5715C18.7626 27.6414 18.8574 27.6807 18.9562 27.6807H20.4473C20.6251 27.6815 20.7786 27.5565 20.8142 27.3824L21.4374 24.2186H21.9293H22.4244L23.0476 27.3824C23.0832 27.5565 23.2367 27.6815 23.4145 27.6807H24.9056C25.1067 27.6743 25.2665 27.5093 25.2662 27.308V23.8069C25.7064 23.6942 26.1318 23.5301 26.5337 23.3179C26.6687 23.239 26.7402 23.0843 26.7126 22.9304L25.2873 15.0311L28.9999 9.42167C29.2332 9.06805 29.274 8.62125 29.1084 8.23125C28.9431 7.84122 28.5934 7.56002 28.177 7.48222C27.7605 7.40442 27.3328 7.54025 27.0377 7.84416L23.3877 11.6225H20.4622L16.8122 7.84416C16.5297 7.55336 16.1245 7.4167 15.7237 7.47744C15.3231 7.41732 14.9179 7.55378 14.6352 7.84416L10.9852 11.6225H8.05973L4.42184 7.85912C4.12854 7.54981 3.70087 7.40649 3.28046 7.47638C2.86028 7.54648 2.50209 7.82064 2.32508 8.20816C2.14786 8.59589 2.1749 9.04601 2.39685 9.4096L5.76673 15.0578ZM20.1344 26.9354H19.3292V23.9862C19.7758 24.0734 20.2267 24.136 20.68 24.1741L20.1344 26.9354ZM24.5209 26.9354H23.7157L23.179 24.1741C23.6325 24.136 24.0835 24.0734 24.5299 23.9863L24.5209 26.9354ZM27.5716 8.36309C27.7582 8.17193 28.0596 8.15363 28.268 8.32108C28.4764 8.48852 28.5235 8.78681 28.3768 9.0102L24.9683 14.1841L24.005 12.0577L27.5716 8.36309ZM20.5457 12.3532H23.3041L24.5358 15.0638L25.9284 22.7841C25.565 22.9413 25.1889 23.067 24.8041 23.16C24.6013 23.2076 24.3866 23.2523 24.172 23.2912V23.291C23.6869 23.3771 23.1968 23.4329 22.7048 23.458C22.2098 23.482 21.6313 23.482 21.1483 23.458C20.9455 23.458 20.7458 23.4312 20.552 23.4104H20.5518C20.0496 23.3615 19.5514 23.2779 19.0607 23.16C18.6759 23.067 18.2998 22.9413 17.9364 22.7841L19.3022 15.0638L20.5457 12.3532ZM15.5867 8.31549C15.6774 8.24372 15.7899 8.20483 15.9056 8.20524C16.0462 8.20545 16.1806 8.26244 16.2783 8.36312L19.8567 12.0578L18.8934 14.1841L15.4733 9.01028C15.3241 8.78459 15.3734 8.48214 15.5866 8.31551L15.5867 8.31549ZM3.1691 8.34232C3.38626 8.17196 3.69683 8.19401 3.88777 8.39308L7.63323 12.2698C7.70416 12.3418 7.80068 12.3825 7.90178 12.383H11.1432C11.2441 12.3825 11.3408 12.3418 11.4115 12.2698L14.659 8.89108C14.6813 9.08078 14.7476 9.26259 14.8529 9.42193L15.3359 10.1556L12.5895 14.7597C12.5568 14.814 12.5385 14.8753 12.5358 14.9386L12.1452 26.9355H11.3132L9.89077 19.7099C9.85852 19.5324 9.70418 19.4035 9.52384 19.4035C9.3437 19.4035 9.18936 19.5324 9.15711 19.7099L7.7318 26.9355H6.9145L6.50909 14.9386C6.50638 14.8753 6.48787 14.814 6.45542 14.7597L3.03799 9.0283C2.90674 8.79865 2.96227 8.50744 3.16904 8.34248L3.1691 8.34232Z" fill="#00AEEF"/>
<path d="M16.2395 7.00028C16.911 7.38552 17.6642 7.60623 18.4373 7.6443C18.5559 7.64368 18.6745 7.63577 18.7922 7.62059V7.73083C18.7263 8.60239 19.0264 9.46191 19.6207 10.1028C20.2151 10.7437 21.0494 11.1079 21.9234 11.1079C22.7973 11.1079 23.6316 10.7437 24.2259 10.1028C24.8202 9.46191 25.1203 8.60239 25.0544 7.73083V7.62059C25.1721 7.63577 25.2907 7.64368 25.4093 7.6443C26.1825 7.60623 26.9357 7.38553 27.6071 7.00028C27.781 6.90377 27.8582 6.69471 27.7889 6.50813C27.759 6.42326 27.6955 6.3542 27.6133 6.31697C27.5312 6.27973 27.4374 6.27786 27.3535 6.31135C27.2373 6.31135 26.8527 6.13246 26.5336 5.20496V5.20516C26.3938 4.69554 26.0404 4.27141 25.5645 4.04195C25.1333 3.87159 24.6528 3.877 24.2255 4.05693C23.8357 4.2352 23.5195 4.54284 23.3308 4.92769C22.4474 4.47838 21.4023 4.47838 20.5187 4.92769C20.33 4.54286 20.014 4.23521 19.624 4.05693C19.198 3.87721 18.7183 3.8718 18.2882 4.04195C17.8114 4.27056 17.4578 4.69491 17.319 5.20516C17 6.12955 16.6332 6.3205 16.5228 6.31449C16.3468 6.25271 16.1531 6.33903 16.0814 6.51127C16.0071 6.69099 16.0741 6.89796 16.2395 7.0003L16.2395 7.00028ZM24.5413 4.73691H24.5415C24.7803 4.64413 25.0451 4.64413 25.2839 4.73691C25.5624 4.88688 25.764 5.14815 25.8387 5.45558C25.976 5.913 26.2156 6.33316 26.5395 6.68408C26.0325 6.90062 25.4713 6.95574 24.9321 6.84217C24.757 6.26184 24.4184 5.74408 23.957 5.35114C24.0654 5.07886 24.2749 4.85878 24.5415 4.7369L24.5413 4.73691ZM21.9231 5.33326H21.9233C22.5559 5.33326 23.1626 5.58454 23.6101 6.03197C24.0575 6.4794 24.3088 7.08618 24.3088 7.71896C24.3088 8.35153 24.0575 8.95848 23.6101 9.40573C23.1626 9.85316 22.5559 10.1047 21.9233 10.1047C21.2905 10.1047 20.6838 9.85316 20.2363 9.40573C19.7889 8.95851 19.5376 8.35153 19.5376 7.71896C19.5384 7.08682 19.7901 6.48066 20.2374 6.03383C20.6846 5.58723 21.2909 5.33614 21.9233 5.33614L21.9231 5.33326ZM18.0077 5.44351C18.0845 5.13628 18.2869 4.87543 18.5654 4.72483C18.8032 4.63185 19.0673 4.63185 19.3051 4.72483C19.573 4.83987 19.7865 5.05329 19.9015 5.3214C19.4399 5.71434 19.1013 6.2321 18.9263 6.81243C18.387 6.926 17.8258 6.87068 17.319 6.65434C17.6358 6.30821 17.8711 5.89551 18.0078 5.44661L18.0077 5.44351Z" fill="#00AEEF"/>
</svg>
