<svg width="32" height="32" viewBox="0 0 32 32" fill="none" xmlns="http://www.w3.org/2000/svg">
<path d="M28.3103 11.8817H26.1227V10.8449C26.1227 10.3781 25.8144 10 25.4345 10H22.5579C22.178 10 21.8697 10.3781 21.8697 10.8449L21.8694 15.6549H9.12816V10.8449C9.12816 10.3781 8.81989 10 8.43993 10H5.56405C5.18409 10 4.87582 10.3781 4.87582 10.8449V11.8809H2.68823C2.30826 11.8809 2 12.2589 2 12.7258V20.2734C2 20.7399 2.30826 21.1183 2.68823 21.1183H4.87582V22.1551C4.87582 22.6215 5.18409 23 5.56405 23H8.44058C8.82055 23 9.12881 22.6215 9.12881 22.1551V17.3448H21.8709V22.1548C21.8709 22.6212 22.1791 22.9997 22.5591 22.9997H25.4356C25.8156 22.9997 26.1239 22.6212 26.1239 22.1548V21.1192H28.3114C28.6914 21.1192 28.9997 20.7408 28.9997 20.2743L29 12.7267C28.999 12.2599 28.6908 11.8818 28.3108 11.8818L28.3103 11.8817ZM3.37606 19.4276V13.5712H4.87546V19.4284H3.37606V19.4276ZM7.75133 21.3097H6.25193V11.6903H7.75166V21.3097H7.75133ZM24.7457 21.3097H23.2459V11.6899H24.7457V21.3097ZM27.6215 19.4288H26.1225V13.572H27.6218L27.6215 19.4288Z" fill="#00AEEF"/>
</svg>
