<svg width="32" height="32" viewBox="0 0 32 32" fill="none" xmlns="http://www.w3.org/2000/svg">
<path d="M25.8651 11.7925H25.6699V10.0648C25.6699 9.25203 25.3471 8.47246 24.7724 7.89774C24.1975 7.32281 23.4179 7 22.6051 7H8.39495C7.58215 7 6.80258 7.32283 6.22765 7.89774C5.65293 8.47246 5.33011 9.25203 5.33011 10.0648V11.7923H5.13498V11.7925C4.34765 11.816 3.59604 12.1264 3.02152 12.6651C2.44679 13.2039 2.0886 13.9339 2.01437 14.718C1.95217 15.3697 2.09289 16.0244 2.41708 16.5929C2.74127 17.1616 3.23297 17.616 3.82541 17.8945V19.622C3.82443 20.1085 3.9667 20.5843 4.23414 20.9907C4.50177 21.3969 4.8829 21.7154 5.3301 21.9067V23.3834C5.3301 23.6821 5.48928 23.9581 5.74797 24.1074C6.00665 24.2567 6.32523 24.2567 6.58391 24.1074C6.8424 23.9581 7.00177 23.6822 7.00177 23.3834V22.1296H23.9982V23.2721C23.9982 23.5708 24.1576 23.8466 24.4161 23.9961C24.6748 24.1453 24.9934 24.1453 25.252 23.9961C25.5107 23.8466 25.6699 23.5708 25.6699 23.2721V21.9067C26.1171 21.7155 26.4982 21.3969 26.7659 20.9907C27.0333 20.5843 27.1756 20.1086 27.1746 19.6221V17.8946C27.767 17.6161 28.2587 17.1617 28.5829 16.593C28.9071 16.0245 29.0478 15.3697 28.9856 14.718C28.9114 13.934 28.5532 13.2039 27.9785 12.6652C27.404 12.1264 26.6524 11.8161 25.865 11.7925L25.8651 11.7925ZM7.00179 10.0648C7.00179 9.69536 7.14853 9.34104 7.40994 9.07983C7.67116 8.81861 8.02547 8.67168 8.39495 8.67168H22.6051C22.9746 8.67168 23.3289 8.81861 23.5901 9.07983C23.8515 9.34104 23.9983 9.69535 23.9983 10.0648V12.3219C23.8369 12.4368 23.6877 12.5674 23.5524 12.712C23.2467 13.0056 23.0008 13.3557 22.828 13.7428H8.17206C7.99927 13.3557 7.75341 13.0057 7.44767 12.712C7.31239 12.5674 7.16312 12.4368 7.00181 12.3219L7.00179 10.0648ZM8.42276 15.4145H22.5772V17.0306H8.42276V15.4145ZM27.3139 14.8573H27.3141C27.351 15.2266 27.2529 15.5968 27.0377 15.8991C26.8224 16.2015 26.5048 16.4155 26.1439 16.5014C25.9619 16.5449 25.8 16.6481 25.6838 16.7947C25.5678 16.9412 25.504 17.1224 25.5029 17.3093V19.622C25.5029 19.8435 25.4148 20.0562 25.2582 20.213C25.1013 20.3699 24.8887 20.4579 24.6669 20.4579H6.33305C6.11129 20.4579 5.89866 20.3699 5.74181 20.213C5.58516 20.0562 5.49711 19.8436 5.49711 19.622V17.3093C5.49594 17.1224 5.43219 16.9412 5.31616 16.7947C5.19994 16.6481 5.03804 16.5449 4.85612 16.5014C4.4952 16.4155 4.17761 16.2015 3.96226 15.8991C3.74711 15.5969 3.64896 15.2266 3.68589 14.8573C3.72534 14.4871 3.89599 14.1432 4.16673 13.8879C4.43766 13.6323 4.79081 13.4821 5.16263 13.4642H5.21841C5.6184 13.4572 6.00286 13.6191 6.27726 13.91C6.58279 14.1882 6.75519 14.5835 6.75091 14.9967V17.8666C6.7579 18.086 6.84808 18.2948 7.00338 18.4501C7.15867 18.6052 7.36721 18.6956 7.58686 18.7026H23.4131C23.6327 18.6956 23.8412 18.6052 23.9965 18.4501C24.1518 18.2948 24.242 18.0861 24.249 17.8666V14.9967C24.2447 14.5835 24.4171 14.1882 24.7227 13.91C25.0163 13.6133 25.42 13.4518 25.8373 13.4642C26.2091 13.4821 26.5622 13.6323 26.8332 13.8879C27.1039 14.1433 27.2746 14.4871 27.314 14.8573H27.3139Z" fill="#00AEEF"/>
</svg>
