<svg width="32" height="32" viewBox="0 0 32 32" fill="none" xmlns="http://www.w3.org/2000/svg">
<path d="M27.5 2.87501C27.5 2.37775 27.3025 1.90062 26.951 1.54905C26.5991 1.19749 26.1223 1 25.625 1H6.87501C6.37775 1 5.90088 1.19749 5.54905 1.54905C5.19749 1.90062 5 2.37774 5 2.87501V31H27.5L27.5 2.87501ZM6.87503 1.74995H25.625C25.9235 1.74995 26.2097 1.86844 26.4205 2.07928C26.6316 2.29037 26.7501 2.57654 26.7501 2.87501V6.99988H5.75009V2.87501C5.75009 2.57655 5.86858 2.29038 6.07968 2.07928C6.29051 1.86845 6.57668 1.74995 6.87515 1.74995H6.87503ZM26.75 7.74981V28.7498H5.75003V7.74981H26.75ZM5.75003 30.2498V29.4999H26.75V30.2498H5.75003Z" fill="#00AEEF"/>
<path d="M16.2506 27.2501C18.538 27.2501 20.7319 26.3414 22.3493 24.7238C23.9668 23.1062 24.8756 20.9126 24.8756 18.6251C24.8756 16.3376 23.9669 14.1437 22.3493 12.5264C20.7319 10.9088 18.538 10 16.2506 10C13.9631 10 11.7692 10.9087 10.1518 12.5264C8.53426 14.1437 7.62549 16.3376 7.62549 18.6251C7.62549 20.9126 8.53419 23.1062 10.1518 24.7238C11.7692 26.3414 13.9631 27.2501 16.2506 27.2501ZM16.2506 10.7501V10.7499C18.3392 10.7499 20.3422 11.5796 21.819 13.0565C23.2959 14.5334 24.1256 16.5363 24.1256 18.6249C24.1256 20.7134 23.2959 22.7166 21.819 24.1934C20.3421 25.6703 18.3392 26.4997 16.2506 26.4997C14.1619 26.4997 12.1589 25.6702 10.6821 24.1934C9.20517 22.7165 8.37549 20.7133 8.37549 18.6249C8.37549 16.5363 9.20524 14.5333 10.6821 13.0565C12.159 11.5796 14.1619 10.7499 16.2506 10.7499V10.7501Z" fill="#00AEEF"/>
<path d="M8.56236 5.49998H9.68743C10.1564 5.49998 10.5896 5.24965 10.824 4.84368C11.0587 4.4377 11.0587 3.93731 10.824 3.53104C10.5896 3.12507 10.1565 2.875 9.68743 2.875H8.56236C8.09362 2.875 7.66016 3.12507 7.42578 3.53104C7.19141 3.93727 7.19141 4.43767 7.42578 4.84368C7.66016 5.24968 8.0936 5.49998 8.56236 5.49998ZM8.56236 3.62498H9.68743C9.99819 3.62498 10.2498 3.87688 10.2498 4.18737C10.2498 4.49813 9.99819 4.75003 9.68743 4.75003H8.56236C8.25187 4.75003 7.99997 4.49813 7.99997 4.18737C7.99997 3.87688 8.25187 3.62498 8.56236 3.62498V3.62498Z" fill="#00AEEF"/>
<path d="M13.4376 5.49998H14.5626C15.0314 5.49998 15.4648 5.24965 15.6992 4.84368C15.9336 4.4377 15.9336 3.93731 15.6992 3.53104C15.4648 3.12507 15.0314 2.875 14.5626 2.875H13.4376C12.9685 2.875 12.5354 3.12507 12.301 3.53104C12.0663 3.93727 12.0663 4.43767 12.301 4.84368C12.5354 5.24965 12.9685 5.49998 13.4376 5.49998ZM13.4376 3.62498H14.5626C14.8731 3.62498 15.125 3.87688 15.125 4.18737C15.125 4.49813 14.8731 4.75003 14.5626 4.75003H13.4376C13.1268 4.75003 12.8752 4.49813 12.8752 4.18737C12.8752 3.87688 13.1268 3.62498 13.4376 3.62498Z" fill="#00AEEF"/>
<path d="M23.75 6.25003C24.2473 6.25003 24.7241 6.05253 25.076 5.70097C25.4275 5.34915 25.625 4.87229 25.625 4.37501C25.625 3.87774 25.4275 3.40088 25.076 3.04905C24.7241 2.69749 24.2473 2.5 23.75 2.5C23.2527 2.5 22.7759 2.69749 22.4241 3.04905C22.0725 3.40088 21.875 3.87774 21.875 4.37501C21.875 4.87229 22.0725 5.34914 22.4241 5.70097C22.7759 6.05253 23.2527 6.25003 23.75 6.25003ZM23.75 3.24996C24.0265 3.24917 24.2936 3.35041 24.5005 3.53404C24.7071 3.71766 24.839 3.97113 24.8706 4.2458C24.9025 4.52046 24.8319 4.79721 24.6726 5.02319C24.5133 5.24916 24.2763 5.40875 24.0069 5.47101C23.7375 5.53327 23.4547 5.49429 23.2122 5.36141C22.9697 5.22826 22.7848 5.01063 22.6925 4.7501H23.75V3.9999H22.6925C22.7699 3.78122 22.913 3.59157 23.1024 3.45738C23.2917 3.32319 23.518 3.25074 23.75 3.24995L23.75 3.24996Z" fill="#00AEEF"/>
<path d="M9.5005 18.6255C9.49762 20.4158 10.206 22.1339 11.4696 23.4017C12.7333 24.6699 14.449 25.3837 16.2393 25.3869C18.0295 25.3897 19.7476 24.6814 21.0155 23.4177C22.2836 22.154 22.9975 20.4383 23.0006 18.648C23.0045 16.2365 21.7217 14.0061 19.6354 12.7968C17.5488 11.5875 14.9759 11.583 12.8854 12.7855C10.7948 13.9877 9.50478 16.214 9.50056 18.6255L9.5005 18.6255ZM16.2505 24.6254C14.8152 24.6236 13.4283 24.1072 12.3412 23.17C11.2541 22.233 10.5389 20.9371 10.3254 19.5181C11.0911 20.1059 12.0165 20.4483 12.9804 20.5006H13.1005C14.2967 20.5006 15.4479 19.9607 16.5167 18.8919C17.4655 17.9395 18.4517 17.4707 19.4904 17.5006C20.5327 17.5812 21.5119 18.0321 22.2506 18.7719C22.2124 20.3377 21.5634 21.8266 20.4423 22.9202C19.3211 24.0139 17.8168 24.626 16.2504 24.6255L16.2505 24.6254ZM16.2505 12.6254C17.6858 12.6275 19.0727 13.1439 20.1598 14.0808C21.2469 15.018 21.9621 16.3137 22.1756 17.733C21.4099 17.1452 20.4844 16.8025 19.5206 16.7505C18.2794 16.7167 17.0905 17.2566 15.9842 18.3592C15.0355 19.3116 14.0493 19.7842 13.0106 19.7505C11.9685 19.6689 10.9896 19.2182 10.2504 18.4792C10.2886 16.9134 10.9376 15.4245 12.0587 14.3309C13.1798 13.2369 14.6842 12.6248 16.2506 12.6253L16.2505 12.6254Z" fill="#00AEEF"/>
</svg>
