<svg width="32" height="32" viewBox="0 0 32 32" fill="none" xmlns="http://www.w3.org/2000/svg">
<path d="M4.40625 5.6875C4.6649 5.6875 4.875 5.4774 4.875 5.21875V4.28125C4.875 4.02302 5.08552 3.8125 5.34375 3.8125H5.8125V6.15625C5.8125 6.93159 6.44341 7.5625 7.21875 7.5625H10.0313C10.8066 7.5625 11.4375 6.93159 11.4375 6.15625V3.8125H11.9063C12.1645 3.8125 12.375 4.02302 12.375 4.28125V5.21875C12.375 5.4774 12.5851 5.6875 12.8438 5.6875C13.1024 5.6875 13.3125 5.4774 13.3125 5.21875V4.28125C13.3125 3.67102 12.9193 3.15539 12.375 2.9612V2.40625C12.375 1.63091 11.7441 1 10.9688 1H6.28125C5.50591 1 4.875 1.63091 4.875 2.40625V2.9612C4.33071 3.15539 3.9375 3.67102 3.9375 4.28125V5.21875C3.9375 5.4774 4.1476 5.6875 4.40625 5.6875ZM10.5 6.15625C10.5 6.41448 10.2895 6.625 10.0313 6.625H7.21875C6.96052 6.625 6.75 6.41448 6.75 6.15625V3.8125H10.5V6.15625ZM5.8125 2.40625C5.8125 2.14802 6.02302 1.9375 6.28125 1.9375H10.9688C11.227 1.9375 11.4375 2.14802 11.4375 2.40625V2.875H5.8125V2.40625Z" fill="black"/>
<path d="M18.4688 5.6875C18.728 5.6875 18.9375 5.4774 18.9375 5.21875V4.28125C18.9375 4.02302 19.1476 3.8125 19.4063 3.8125H19.875V6.15625C19.875 6.93159 20.5059 7.5625 21.2813 7.5625H24.0938C24.8691 7.5625 25.5 6.93159 25.5 6.15625V3.8125H25.9688C26.2274 3.8125 26.4375 4.02302 26.4375 4.28125V5.21875C26.4375 5.4774 26.647 5.6875 26.9063 5.6875C27.1655 5.6875 27.375 5.4774 27.375 5.21875V4.28125C27.375 3.67102 26.9818 3.15539 26.4375 2.9612V2.40625C26.4375 1.63091 25.8066 1 25.0313 1H20.3438C19.5684 1 18.9375 1.63091 18.9375 2.40625V2.9612C18.3932 3.15539 18 3.67102 18 4.28125V5.21875C18 5.4774 18.2095 5.6875 18.4688 5.6875ZM24.5625 6.15625C24.5625 6.41448 24.3524 6.625 24.0938 6.625H21.2813C21.0226 6.625 20.8125 6.41448 20.8125 6.15625V3.8125H24.5625V6.15625ZM19.875 2.40625C19.875 2.14802 20.0851 1.9375 20.3438 1.9375H25.0313C25.2899 1.9375 25.5 2.14802 25.5 2.40625V2.875H19.875V2.40625Z" fill="black"/>
<path d="M26.9063 26.3125C26.647 26.3125 26.4375 26.5226 26.4375 26.7813V27.7188C26.4375 27.977 26.2274 28.1875 25.9688 28.1875H25.5V25.8438C25.5 25.0684 24.8691 24.4375 24.0938 24.4375H21.2813C20.5059 24.4375 19.875 25.0684 19.875 25.8438V28.1875H19.4063C19.1476 28.1875 18.9375 27.977 18.9375 27.7188V26.7813C18.9375 26.5226 18.728 26.3125 18.4688 26.3125C18.2095 26.3125 18 26.5226 18 26.7813V27.7188C18 28.329 18.3932 28.8446 18.9375 29.0388V29.5938C18.9375 30.3691 19.5684 31 20.3438 31H25.0313C25.8066 31 26.4375 30.3691 26.4375 29.5938V29.0388C26.9818 28.8448 27.375 28.3292 27.375 27.7188V26.7813C27.375 26.5226 27.1655 26.3125 26.9063 26.3125V26.3125ZM20.8125 25.8438C20.8125 25.5855 21.0226 25.375 21.2813 25.375H24.0938C24.3524 25.375 24.5625 25.5855 24.5625 25.8438V28.1875H20.8125V25.8438ZM25.5 29.5938C25.5 29.852 25.2899 30.0625 25.0313 30.0625H20.3438C20.0851 30.0625 19.875 29.852 19.875 29.5938V29.125H25.5V29.5938Z" fill="black"/>
<path d="M12.8438 26.3125C12.5851 26.3125 12.375 26.5226 12.375 26.7813V27.7188C12.375 27.977 12.1645 28.1875 11.9063 28.1875H11.4375V25.8438C11.4375 25.0684 10.8066 24.4375 10.0313 24.4375H7.21875C6.44341 24.4375 5.8125 25.0684 5.8125 25.8438V28.1875H5.34375C5.08552 28.1875 4.875 27.977 4.875 27.7188V26.7813C4.875 26.5226 4.6649 26.3125 4.40625 26.3125C4.1476 26.3125 3.9375 26.5226 3.9375 26.7813V27.7188C3.9375 28.329 4.3307 28.8446 4.875 29.0388V29.5938C4.875 30.3691 5.50591 31 6.28125 31H10.9688C11.7441 31 12.375 30.3691 12.375 29.5938V29.0388C12.9193 28.8448 13.3125 28.3292 13.3125 27.7188V26.7813C13.3125 26.5226 13.1024 26.3125 12.8438 26.3125V26.3125ZM6.75 25.8438C6.75 25.5855 6.96052 25.375 7.21875 25.375H10.0313C10.2895 25.375 10.5 25.5855 10.5 25.8438V28.1875H6.75V25.8438ZM11.4375 29.5938C11.4375 29.852 11.227 30.0625 10.9688 30.0625H6.28125C6.02302 30.0625 5.8125 29.852 5.8125 29.5938V29.125H11.4375V29.5938Z" fill="black"/>
<path d="M26.9063 8.99023H4.40625C3.63091 8.99023 3 9.62115 3 10.3965V21.6047C3 22.38 3.63091 23.0109 4.40625 23.0109H26.9063C27.6816 23.0109 28.3125 22.38 28.3125 21.6047V10.3965C28.3125 9.62115 27.6816 8.99023 26.9063 8.99023V8.99023ZM27.375 21.6052C27.375 21.8635 27.1649 22.074 26.9063 22.074H4.40625C4.14802 22.074 3.9375 21.8635 3.9375 21.6052V10.3965C3.9375 10.1383 4.14802 9.92773 4.40625 9.92773H26.9063C27.1649 9.92773 27.375 10.1383 27.375 10.3965V21.6052Z" fill="black"/>
<path d="M25.9688 10.8652H5.34375C5.0851 10.8652 4.875 11.0753 4.875 11.334V20.6672C4.875 20.9258 5.0851 21.1359 5.34375 21.1359H25.9688C26.228 21.1359 26.4375 20.9258 26.4375 20.6672V11.334C26.4375 11.0751 26.228 10.8652 25.9688 10.8652V10.8652ZM25.5 20.199H5.8125V11.8027H25.5V20.199Z" fill="black"/>
</svg>
