<svg width="32" height="32" viewBox="0 0 32 32" fill="none" xmlns="http://www.w3.org/2000/svg">
<path d="M24.3382 3.98126C22.3618 3.01537 20.0279 3.13254 18.1584 4.29167C16.6989 2.27327 14.463 1 12.0097 1C9.55659 1 7.28948 2.21111 5.76789 4.35383C4.88518 5.61235 4.31245 7.06152 4.09668 8.58345C3.88072 10.1054 4.0278 11.6568 4.52558 13.1111V13.1733L5.08444 14.4776V14.5397L5.08466 14.5395C6.10451 16.5018 7.87381 17.9688 9.99119 18.6075L9.61861 20.4087H9.6184C9.56294 20.6807 9.63161 20.9634 9.80577 21.1796C9.97993 21.3957 10.2414 21.5229 10.5191 21.5266H11.4507C11.5129 22.0545 11.4507 23.0171 10.7054 24.3214C9.21485 26.9611 10.6122 29.321 11.668 30.2837C11.8491 30.4525 12.09 30.5424 12.3376 30.5337C12.5851 30.525 12.8189 30.4182 12.9879 30.2371C13.1566 30.0558 13.2465 29.815 13.2378 29.5676C13.2292 29.32 13.1224 29.0861 12.9413 28.9173C12.755 28.762 11.2333 27.2405 12.3512 25.2218C13.4691 23.2034 13.407 22.3958 13.345 21.5263H13.842H13.8417C14.1194 21.5226 14.3809 21.3955 14.555 21.1793C14.7292 20.9631 14.7979 20.6804 14.7424 20.4084L14.3386 18.5141C15.2114 18.2061 16.0213 17.7432 16.7299 17.1477C17.4588 17.9071 18.3508 18.4911 19.3383 18.8557L18.9346 20.75C18.8791 21.0221 18.9478 21.3047 19.1219 21.5209C19.2961 21.7371 19.5576 21.8642 19.8352 21.8679H20.7048C20.7979 22.3958 20.7669 23.3585 19.9594 24.7871C18.4689 27.4268 19.8663 29.7868 20.922 30.7494C21.1033 30.9182 21.3442 31.0083 21.5916 30.9994C21.8392 30.9907 22.0731 30.8839 22.2419 30.7029C22.4108 30.5215 22.5007 30.2809 22.4919 30.0333C22.4832 29.7857 22.3766 29.552 22.1953 29.383C22.009 29.2277 20.4873 27.7062 21.6052 25.6875C22.7232 23.6691 22.661 22.7374 22.5678 21.8679H23.0026C23.2803 21.8642 23.5417 21.7371 23.7159 21.5209C23.89 21.3047 23.9587 21.022 23.9033 20.75L23.5307 18.9179C26.4498 17.924 28.5925 14.8808 28.5925 11.3096C28.5923 7.73831 27.0087 5.25409 24.338 3.98088L24.3382 3.98126ZM12.6929 19.6635H12.4754C12.2746 19.5927 12.0554 19.5927 11.8544 19.6635H11.6681L11.8234 18.8872H12.5066L12.6929 19.6635ZM12.0097 17.0238C9.86696 17.0238 7.94172 15.7818 6.79278 13.67L6.26489 12.4589L6.26467 12.4591C5.4708 10.0897 5.85137 7.48431 7.28945 5.4409C8.34634 3.86092 10.1094 2.89824 12.0097 2.86342C15.3636 2.86342 18.1274 6.06198 18.1274 9.97479C18.1274 13.8877 15.3636 17.0551 12.0097 17.0551L12.0097 17.0238ZM21.916 20.0051H21.0153L21.1706 19.2288H21.7295L21.916 20.0051ZM21.5434 17.3966H21.5432C20.2106 17.3806 18.9425 16.8194 18.0342 15.8439C19.3185 14.1583 20.0067 12.0939 19.9905 9.97474C20.0013 8.56156 19.7045 7.16285 19.121 5.87572C20.4521 5.03809 22.1237 4.95574 23.5308 5.65824C25.5492 6.62085 26.7915 8.76364 26.7915 11.279C26.7913 14.6328 24.4313 17.3656 21.5431 17.3656L21.5434 17.3966Z" fill="#00AEEF"/>
</svg>
