<svg width="32" height="32" viewBox="0 0 32 32" fill="none" xmlns="http://www.w3.org/2000/svg">
<path d="M23.3454 18.7599C22.8519 18.2105 22.1529 17.89 21.4145 17.8746C20.6726 17.8914 19.9691 18.2079 19.4647 18.7522L17.6597 20.5458L17.2208 20.3168C17.0148 20.2138 16.8202 20.1145 16.6522 20.0115C14.8643 18.8517 13.2776 17.4083 11.9548 15.7374C11.3463 14.9942 10.8334 14.1775 10.4283 13.3066C10.8976 12.8791 11.3328 12.4327 11.7526 12.0052L12.2333 11.5205C13.4317 10.3183 13.4317 8.76516 12.2333 7.56706L10.6727 6.01013C10.4973 5.83072 10.3139 5.65132 10.1422 5.46818C9.80254 5.11336 9.43997 4.74682 9.07002 4.40344V4.40398C8.57093 3.88119 7.8842 3.57883 7.16202 3.56445C6.41912 3.57217 5.70975 3.87403 5.18907 4.40398L3.24672 6.36548V6.36521C2.52351 7.07594 2.08406 8.02538 2.01026 9.03635C1.94478 10.4844 2.19339 11.9295 2.73905 13.2721C3.76147 15.93 5.23561 18.3906 7.09701 20.5457C9.54805 23.4945 12.6017 25.8849 16.0531 27.5556C17.6198 28.3627 19.325 28.8663 21.0789 29.0401H21.4377H21.4374C22.6901 29.0699 23.8938 28.5533 24.7347 27.6243L24.7576 27.5977C25.0695 27.2343 25.402 26.8889 25.7536 26.5635C26.0017 26.3309 26.2535 26.0828 26.5168 25.827C27.0515 25.3061 27.3611 24.5967 27.3792 23.8503C27.3643 23.1049 27.0459 22.3978 26.4975 21.8925L23.3454 18.7599ZM25.3908 24.7701C25.1656 25.0105 24.9367 25.2279 24.6926 25.4683C24.3058 25.8311 23.938 26.2131 23.5897 26.6132C23.0451 27.2193 22.2594 27.552 21.4451 27.5214H21.1818C19.6262 27.3614 18.1151 26.9083 16.7285 26.1856C13.4811 24.608 10.6085 22.3544 8.30262 19.5763C6.54528 17.5498 5.15339 15.2335 4.18903 12.7306C3.70963 11.602 3.49192 10.3797 3.55178 9.15495C3.5965 8.51265 3.87626 7.9095 4.33781 7.46071L6.28391 5.51461V5.51434C6.51203 5.27318 6.82294 5.12731 7.1541 5.10601C7.47325 5.12518 7.77191 5.26918 7.98592 5.50689L8.00509 5.52605C8.35246 5.85053 8.68439 6.18619 9.03146 6.545L9.57341 7.10212L11.134 8.65906C11.7369 9.26569 11.7369 9.80393 11.134 10.4297L10.6418 10.9219C10.1611 11.4103 9.70699 11.8682 9.21084 12.3148C9.21084 12.3148 9.18795 12.3148 9.18023 12.3414V12.3411C9.00402 12.5011 8.88077 12.7111 8.8278 12.9432C8.77456 13.1751 8.79373 13.4178 8.88263 13.6388V13.6883C9.35271 14.7735 9.97319 15.7872 10.7257 16.6991C12.1591 18.5052 13.8803 20.0626 15.8202 21.3089C16.0473 21.4484 16.2818 21.5759 16.5224 21.6906C16.7285 21.7936 16.9041 21.8929 17.0873 21.9959L17.156 22.034H17.1557C17.3306 22.1245 17.5238 22.1729 17.7205 22.175C18.0501 22.1702 18.3639 22.0326 18.5907 21.7936L20.5408 19.8435C20.7601 19.5901 21.0691 19.4315 21.4029 19.4009C21.7237 19.4219 22.0218 19.5736 22.2273 19.8206L25.3832 22.9765C25.9709 23.5602 25.9709 24.1594 25.3832 24.7623L25.3908 24.7701Z" fill="black"/>
<path d="M16.5868 8.43657C18.0814 8.68652 19.4591 9.40094 20.525 10.4779C21.6022 11.5536 22.3172 12.9382 22.5703 14.439C22.6326 14.8109 22.9568 15.0816 23.3335 15.0763C23.3769 15.08 23.4202 15.08 23.4634 15.0763C23.6665 15.0446 23.848 14.9325 23.9673 14.7651C24.0865 14.5977 24.1331 14.3895 24.0969 14.1872C23.7852 12.3777 22.9209 10.7093 21.6227 9.41107C20.3242 8.1126 18.6558 7.24834 16.8462 6.93686C16.6447 6.89906 16.4363 6.94431 16.2684 7.06196C16.1004 7.17988 15.9867 7.36009 15.9535 7.56266C15.9157 7.76416 15.9609 7.97258 16.0786 8.14055C16.1965 8.3085 16.3767 8.42217 16.5793 8.45544L16.5868 8.43657Z" fill="black"/>
<path d="M28.9857 13.9321C28.4703 10.958 27.0484 8.21629 24.9141 6.08198C22.7801 3.94773 20.0381 2.52572 17.064 2.01042C16.6427 1.94095 16.2445 2.22604 16.175 2.64767C16.1055 3.06904 16.3908 3.46723 16.8122 3.53674C19.469 3.9967 21.9189 5.26641 23.8262 7.17231C25.7334 9.0782 27.0049 11.5271 27.4665 14.1836C27.5272 14.5568 27.8517 14.8293 28.2299 14.8245H28.3636H28.3633C28.5635 14.791 28.7418 14.6792 28.8592 14.5136C28.9766 14.3483 29.0234 14.1431 28.9891 13.9432L28.9857 13.9321Z" fill="black"/>
</svg>
