<svg width="32" height="32" viewBox="0 0 32 32" fill="none" xmlns="http://www.w3.org/2000/svg">
<path d="M28.5781 26.2034H28.5258C28.3909 24.9108 27.9482 23.6693 27.2346 22.5834C27.1131 22.4129 26.8852 22.3572 26.699 22.4523C26.5127 22.5474 26.4242 22.7647 26.4912 22.9631C26.8022 23.8966 26.5903 25.826 26.1925 27.0485H25.8993C25.7382 25.7073 25.3716 24.3991 24.8126 23.1697C26.2136 21.5257 27.1543 19.5401 27.5388 17.4143C27.5388 17.4085 27.5412 17.403 27.5421 17.397C27.8218 15.8393 27.7962 14.242 27.467 12.694C27.467 12.6882 27.464 12.6827 27.4632 12.6771C26.8975 10.0477 25.4817 7.67775 23.4347 5.93336C23.4153 5.91245 23.3936 5.89362 23.3701 5.87723C22.2192 4.90731 20.8993 4.1581 19.4766 3.6669C19.4595 3.65974 19.4416 3.6539 19.4235 3.64919C16.8794 2.7836 14.1209 2.7836 11.5766 3.64919C11.5585 3.6539 11.5406 3.65974 11.5235 3.6669C9.5307 4.35622 7.74884 5.54725 6.3501 7.12516C4.9513 8.70307 3.98253 10.6147 3.53689 12.6756C3.53689 12.6811 3.5335 12.6865 3.53312 12.6925C3.20335 14.2337 3.1783 15.8246 3.45967 17.3754C3.4625 17.404 3.46834 17.4324 3.47738 17.4597C3.79227 19.1444 4.45728 20.7441 5.42948 22.1556C4.9185 23.4988 4.64503 24.9207 4.62112 26.3575C4.08362 24.8779 3.69299 22.8236 4.07022 21.6958C4.13746 21.4903 4.03839 21.2673 3.84101 21.1792C3.64345 21.0912 3.41142 21.1667 3.30367 21.3539C2.45746 22.9829 2.01075 24.7894 2 26.6247V29.5779C2 29.6897 2.04445 29.7971 2.12355 29.8762C2.20265 29.9553 2.31 29.9997 2.42188 29.9997H28.5781C28.69 29.9997 28.7974 29.9553 28.8765 29.8762C28.9556 29.7971 29 29.6897 29 29.5779V26.6247C29 26.5127 28.9554 26.4051 28.8759 26.326C28.7968 26.2475 28.6898 26.2032 28.5781 26.2029L28.5781 26.2034ZM24.04 21.6214C23.9882 21.5116 23.9255 21.4072 23.8531 21.3097C23.7179 21.1279 23.4633 21.0854 23.2763 21.2134C23.0894 21.3413 23.0369 21.594 23.1574 21.786C23.1608 21.7911 23.2149 21.8792 23.3038 22.0357H23.304C23.4531 22.4557 23.517 22.9015 23.4915 23.3466C22.9996 23.8304 22.4651 24.269 21.8944 24.6568C21.3208 24.0639 20.5428 23.7117 19.7188 23.6722C19.5372 23.6722 19.376 23.7884 19.3186 23.9607C19.2611 24.1329 19.3204 24.3227 19.4656 24.4316C19.8276 24.7386 20.0779 25.1565 20.1778 25.6203C20.0262 25.6887 19.8732 25.7537 19.7188 25.8153V25.2753C19.7188 25.1246 19.6384 24.9853 19.5079 24.9099L15.9219 22.8411V19.8627L19.3092 17.9069L22.0595 19.3126V23.4385C22.0595 23.6715 22.2482 23.8604 22.4813 23.8604C22.7143 23.8604 22.9032 23.6715 22.9032 23.4385V19.2977L26.2782 17.3496L26.6415 17.5605H26.6413C26.2788 19.2977 25.5149 20.9259 24.4104 22.3151C24.2645 22.0269 24.1349 21.7881 24.04 21.6214L24.04 21.6214ZM23.3919 24.5775C23.3239 25.0728 23.2232 25.6131 23.0881 26.2034H22.8252H22.8254C22.723 25.8951 22.5855 25.5998 22.4154 25.3229C22.7533 25.0909 23.0787 24.8425 23.3921 24.5775H23.3919ZM12.4256 26.2034C12.3235 26.1748 12.2256 26.1384 12.1252 26.1072V25.5203L15.5002 23.5722L18.8752 25.5203V26.1143C18.7765 26.1446 18.6778 26.1755 18.5799 26.2034L12.4256 26.2034ZM4.10959 15.2347C4.11015 14.6216 4.15988 14.0095 4.25856 13.4046L4.51169 13.5505C4.6422 13.6259 4.80305 13.6259 4.93356 13.5505L8.50764 11.4871L11.2815 13.2725V17.1685L8.53117 18.5742L4.93298 16.4969C4.80247 16.4215 4.64181 16.4215 4.51111 16.4969L4.21033 16.6703C4.1463 16.1944 4.11259 15.7149 4.10958 15.2347H4.10959ZM4.72206 17.3495L8.09706 19.2976V23.1949L7.63299 23.464V23.4642C5.97317 21.8694 4.833 19.811 4.36141 17.558L4.72206 17.3495ZM7.36516 24.3565C7.51527 24.4911 7.66255 24.6282 7.81906 24.7555C7.71152 25.1573 7.63223 25.5661 7.58194 25.979C7.48231 25.4475 7.38569 24.861 7.30301 24.3112L7.3032 24.3114C7.32241 24.3284 7.34313 24.3435 7.36516 24.3564L7.36516 24.3565ZM8.29743 24.054L8.72986 23.8039C8.86056 23.7285 8.9408 23.5892 8.9408 23.4385V19.3126L11.6911 17.9069L15.0783 19.8627V22.8411L11.4924 24.9116C11.3619 24.987 11.2815 25.1263 11.2815 25.277V25.8094C10.2027 25.3808 9.19619 24.7887 8.29742 24.054L8.29743 24.054ZM19.7189 4.77213V4.65744C20.6743 5.03957 21.5735 5.54959 22.392 6.1732L22.2705 6.24363C22.1398 6.31897 22.0596 6.45834 22.0596 6.60901V10.7628L19.2853 12.5482L15.922 10.6066V7.20638L19.508 5.13582C19.6379 5.06067 19.7183 4.92224 19.7189 4.77214L19.7189 4.77213ZM26.8908 15.2346C26.8872 15.7145 26.8533 16.1935 26.7891 16.669L26.4891 16.4961H26.4893C26.3586 16.4206 26.1979 16.4206 26.0674 16.4961L22.4692 18.5735L19.7189 17.1685V13.2725L22.4931 11.4871L26.0672 13.5505H26.0674C26.1979 13.6258 26.3585 13.6258 26.4892 13.5505L26.7424 13.4046C26.8407 14.0097 26.8904 14.6216 26.8908 15.2346L26.8908 15.2346ZM15.5002 11.3378L18.8752 13.2859V17.1832L15.5002 19.1313L12.1252 17.1832V13.2859L15.5002 11.3378ZM26.5644 12.5346L26.2783 12.6996L22.9033 10.7515L22.9035 6.85234L23.0862 6.74687H23.086C24.8036 8.28051 26.0163 10.2983 26.5644 12.5345L26.5644 12.5346ZM18.8752 4.3546V4.52711L15.5002 6.47545L12.1252 4.52731V4.3546C14.3236 3.67396 16.6767 3.67396 18.8752 4.3546V4.3546ZM11.2814 4.65764V4.77233C11.2814 4.923 11.3618 5.06237 11.4924 5.1377L15.0783 7.20658V10.6068L11.7152 12.5474L8.94076 10.7629V7.64104C8.94076 7.40807 8.75204 7.21916 8.51888 7.21916C8.28591 7.21916 8.09701 7.40807 8.09701 7.64104V10.7499L4.72201 12.698L4.43611 12.5348C4.87004 10.7727 5.71716 9.13922 6.90748 7.76945C8.09779 6.39968 9.59711 5.33294 11.2814 4.65755L11.2814 4.65764ZM28.1564 29.1568H2.84392V26.6255C2.84712 25.7629 2.95805 24.9041 3.17389 24.069C3.36015 25.3122 3.72589 26.5219 4.25929 27.6604C4.33142 27.8022 4.477 27.8913 4.63615 27.8911H5.09418C5.21472 27.8911 5.3296 27.8395 5.40965 27.7495C5.48969 27.6593 5.52736 27.5391 5.51304 27.4195C5.39138 25.9119 5.56653 24.3952 6.0287 22.9552C6.12155 23.0699 6.21308 23.1855 6.31045 23.2965C6.48052 24.7419 6.73741 26.1758 7.07961 27.5904C7.1331 27.7691 7.29789 27.8915 7.48454 27.8912H7.86422C8.0891 27.8915 8.27461 27.7154 8.2861 27.4907C8.32414 26.7559 8.4136 26.0245 8.55391 25.3021C8.81853 25.4851 9.09107 25.6578 9.3711 25.8202C9.3711 26.0906 9.37788 26.3686 9.40142 26.6598L9.40161 26.6596C9.41931 26.8792 9.60313 27.0481 9.82348 27.0474H20.7599C20.8763 27.0476 20.9878 26.9997 21.0677 26.915C21.1475 26.8304 21.1888 26.7165 21.1818 26.6003C21.166 26.3445 21.1353 26.0901 21.0899 25.8379V25.8345C21.0351 25.5015 20.9426 25.1761 20.814 24.8642C21.4662 25.2804 21.9269 25.9381 22.0948 26.6935C22.1287 26.8965 22.3045 27.0455 22.5103 27.0457H23.4224C23.6164 27.0457 23.7855 26.9135 23.8321 26.7251C24.0505 25.8748 24.2069 25.0098 24.2995 24.1368C24.7351 25.2066 25.0015 26.3375 25.0888 27.489C25.1005 27.7135 25.286 27.8892 25.5107 27.889H26.4899C26.6645 27.8888 26.8208 27.7815 26.8835 27.6186C27.176 26.7861 27.3627 25.9203 27.4391 25.0414C27.5928 25.563 27.6834 26.1011 27.7092 26.6445C27.719 26.8701 27.905 27.0479 28.131 27.0477H28.1563L28.1564 29.1568Z" fill="#00AEEF"/>
</svg>
