<svg width="32" height="32" viewBox="0 0 32 32" fill="none" xmlns="http://www.w3.org/2000/svg">
<path d="M28.873 19.3043L18.0986 12.0467C18.0063 11.9844 17.8854 11.9844 17.7932 12.0467L17.0482 12.5485L15.5 13.5916L13.2065 12.0467C13.1143 11.9844 12.9934 11.9844 12.9011 12.0467L12.1561 12.5485L2.12063 19.3092C2.02087 19.3765 1.97678 19.5021 2.01201 19.6169C2.04723 19.7319 2.15313 19.8117 2.27335 19.8117H3.7632C3.81751 19.8117 3.87069 19.7942 3.91591 19.7637L13.0537 13.6069L14.2669 14.4229L15.5001 15.2531L22.1916 19.7631C22.2369 19.7936 22.29 19.8113 22.3444 19.8113H23.8342H23.8344C23.9853 19.8113 24.1078 19.6877 24.1078 19.5368C24.1078 19.4397 24.0571 19.3541 23.9808 19.3057L16.7331 14.4229L17.946 13.6054L27.0838 19.7629C27.129 19.7933 27.182 19.8111 27.2365 19.8111H28.7266C28.8775 19.8111 29 19.6874 29 19.5365C28.9998 19.4395 28.9491 19.3522 28.8727 19.3038L28.873 19.3043Z" fill="black"/>
</svg>
