<svg width="32" height="32" viewBox="0 0 32 32" fill="none" xmlns="http://www.w3.org/2000/svg">
<path d="M13.25 27C13.25 26.7017 13.1315 26.4154 12.9205 26.2045C12.7096 25.9935 12.4233 25.875 12.125 25.875H3.12498C2.72295 25.875 2.35156 26.0895 2.15067 26.4375C1.94978 26.7855 1.94978 27.2145 2.15067 27.5625C2.35156 27.9105 2.72296 28.125 3.12498 28.125H12.125C12.4233 28.125 12.7096 28.0065 12.9205 27.7955C13.1315 27.5846 13.25 27.2983 13.25 27Z" fill="#00AEEF"/>
<path d="M7.625 9C8.81853 9 9.96314 8.52589 10.8069 7.68189C11.6509 6.83814 12.125 5.69353 12.125 4.5C12.125 3.30647 11.6509 2.16186 10.8069 1.31811C9.96314 0.474107 8.81853 0 7.625 0C6.43147 0 5.28686 0.474107 4.44311 1.31811C3.59911 2.16186 3.125 3.30647 3.125 4.5C3.125 5.69353 3.59911 6.83814 4.44311 7.68189C5.28686 8.52589 6.43147 9 7.625 9V9ZM7.625 2.25C8.22165 2.25 8.79397 2.48705 9.21607 2.90893C9.63795 3.33105 9.875 3.90336 9.875 4.5C9.875 5.09664 9.63795 5.66897 9.21607 6.09107C8.79395 6.51295 8.22164 6.75 7.625 6.75C7.02836 6.75 6.45603 6.51295 6.03393 6.09107C5.61205 5.66895 5.375 5.09664 5.375 4.5C5.375 3.90336 5.61205 3.33103 6.03393 2.90893C6.45605 2.48705 7.02836 2.25 7.625 2.25Z" fill="#00AEEF"/>
<path d="M15.5 31.4998H18.875C19.1733 31.4998 19.4596 31.3813 19.6705 31.1703C19.8815 30.9594 20 30.6731 20 30.3748V22.4998C20 21.6046 19.6444 20.7463 19.0116 20.1132C18.3785 19.4804 17.5202 19.1248 16.625 19.1248H13.25V15.9412C13.2716 14.5163 12.7651 13.1339 11.8285 12.0599C10.8918 10.9862 9.59073 10.2968 8.17625 10.1248C6.59148 9.9686 5.01468 10.4917 3.83748 11.564C2.66002 12.6362 1.99229 14.1572 2.00007 15.7498V23.6248C2.00007 23.9231 2.1186 24.2094 2.32953 24.4203C2.54047 24.6313 2.82674 24.7498 3.12507 24.7498H14.3751V30.3748C14.3751 30.6731 14.4936 30.9594 14.7045 31.1703C14.9155 31.3813 15.2017 31.4998 15.5 31.4998ZM4.25 22.4998V15.7498C4.24523 14.793 4.64677 13.8792 5.35469 13.2356C6.0626 12.592 7.01056 12.2791 7.9625 12.3748C8.81904 12.4908 9.60282 12.919 10.1633 13.5771C10.7238 14.235 11.0216 15.0768 11 15.9411V20.2497C11 20.5481 11.1185 20.8343 11.3295 21.0453C11.5404 21.2562 11.8267 21.3747 12.125 21.3747H16.625C16.9233 21.3747 17.2096 21.4933 17.4205 21.7042C17.6315 21.9151 17.75 22.2014 17.75 22.4997V29.2497H16.625V23.6247C16.625 23.3264 16.5065 23.0401 16.2955 22.8292C16.0846 22.6183 15.7983 22.4997 15.5 22.4997L4.25 22.4998Z" fill="#00AEEF"/>
<path d="M20 3.37498C20 2.97295 19.7855 2.60156 19.4375 2.40067C19.0895 2.19978 18.6605 2.19978 18.3125 2.40067C17.9645 2.60156 17.75 2.97296 17.75 3.37498V10.125C17.75 10.527 17.9645 10.8984 18.3125 11.0993C18.6605 11.3002 19.0895 11.3002 19.4375 11.0993C19.7855 10.8984 20 10.527 20 10.125V3.37498Z" fill="#00AEEF"/>
<path d="M26.75 3.37498V10.125C26.75 10.527 26.9645 10.8984 27.3125 11.0993C27.6605 11.3002 28.0895 11.3002 28.4375 11.0993C28.7855 10.8984 29 10.527 29 10.125V3.37498C29 2.97295 28.7855 2.60156 28.4375 2.40067C28.0895 2.19978 27.6605 2.19978 27.3125 2.40067C26.9645 2.60156 26.75 2.97296 26.75 3.37498Z" fill="#00AEEF"/>
<path d="M22.25 1.12498V12.375C22.25 12.777 22.4645 13.1484 22.8125 13.3493C23.1605 13.5502 23.5895 13.5502 23.9375 13.3493C24.2855 13.1484 24.5 12.777 24.5 12.375V1.12498C24.5 0.722947 24.2855 0.351562 23.9375 0.15067C23.5895 -0.0502232 23.1605 -0.0502232 22.8125 0.15067C22.4645 0.351562 22.25 0.72296 22.25 1.12498Z" fill="#00AEEF"/>
</svg>
