<svg width="32" height="32" viewBox="0 0 32 32" fill="none" xmlns="http://www.w3.org/2000/svg">
<path fill-rule="evenodd" clip-rule="evenodd" d="M15.5002 9.67715C17.7335 9.67715 19.7299 9.07474 21.1515 8.13065L21.7739 9.06781C20.1435 10.1505 17.9238 10.8022 15.5002 10.8022C13.1517 10.8022 10.9957 10.1907 9.38128 9.16834L9.98318 8.21789C11.3954 9.11221 13.337 9.67715 15.5002 9.67715Z" fill="#00AEEF"/>
<path fill-rule="evenodd" clip-rule="evenodd" d="M9.35945 2.85277C10.9568 2.31999 13.1278 2.0001 15.5001 2C17.8723 2 20.0433 2.31989 21.6407 2.85269C22.4365 3.11812 23.121 3.44657 23.6182 3.83861C24.109 4.22568 24.495 4.74065 24.495 5.37506C24.495 6.00461 24.1144 6.52954 23.6251 6.92808C23.2069 7.26867 22.6554 7.56421 22.014 7.80858V10.1367L22.156 10.2594L22.1835 10.2915C22.5813 10.7558 22.6549 11.3257 22.6119 11.8226C22.569 12.3178 22.406 12.8084 22.2474 13.2028L21.7255 12.993L22.2475 13.2028L22.2474 13.2028C22.0266 13.7524 21.6262 14.3641 20.9144 14.7982C20.9407 14.7241 20.965 14.6492 20.9871 14.5735L20.4471 14.4159L20.7052 14.9157C20.7778 14.8782 20.8474 14.839 20.9144 14.7982C20.2196 16.7505 18.0746 18.0819 15.6515 18.0819C13.2483 18.0819 11.1206 16.7733 10.4069 14.8481C10.4437 14.8718 10.4768 14.8927 10.5039 14.9098C10.5272 14.9244 10.5463 14.9363 10.5598 14.9446L10.5664 14.9487C10.5701 14.951 10.5732 14.9529 10.5756 14.9544L10.5814 14.9579L10.5818 14.9581L10.5819 14.9582L10.582 14.9583C10.582 14.9583 10.582 14.9583 10.8747 14.4779C11.1675 13.9976 11.1675 13.9976 11.1675 13.9976L11.1675 13.9977L11.3485 14.1079L11.4117 14.3103C11.8684 15.7729 13.54 16.9569 15.6515 16.9569C17.7889 16.9569 19.4735 15.7446 19.9071 14.2584L19.9746 14.0268L20.1889 13.9161C20.7383 13.6324 21.0368 13.1984 21.2036 12.7833L21.2036 12.7832C21.3468 12.4269 21.4624 12.057 21.4911 11.7256C21.5179 11.4156 21.4648 11.2003 21.3514 11.0509L21.3886 11.0831L21.7563 10.6574L21.3292 11.0234C21.3368 11.0323 21.3442 11.0415 21.3514 11.0509L20.889 10.6514V6.97942L21.3008 6.86915C21.2955 6.87092 21.2902 6.87269 21.2849 6.87446L21.4629 7.40804L21.3174 6.86469L21.3008 6.86915C22.0175 6.62851 22.5611 6.34374 22.9147 6.05579C23.2787 5.75929 23.37 5.52226 23.37 5.37506C23.37 5.23282 23.2841 5.0079 22.9216 4.72199C22.5653 4.44106 22.0149 4.16345 21.2847 3.9199C19.8302 3.43474 17.785 3.125 15.5001 3.125C13.2152 3.1251 11.1699 3.43485 9.7154 3.91997C8.98519 4.16352 8.43485 4.44111 8.07861 4.72202C7.71606 5.00791 7.63016 5.23281 7.63016 5.37506C7.63016 5.52175 7.72227 5.75681 8.11197 6.05391C8.49333 6.34466 9.07994 6.62914 9.85277 6.87486L9.68241 7.41067H10.2436V10.7866L9.95435 11.0787C9.83308 11.2285 9.77546 11.4477 9.80317 11.7678C9.83186 12.0991 9.94744 12.469 10.0908 12.8253C10.2039 13.1066 10.3768 13.3937 10.6411 13.6361L10.6412 13.6362C10.6901 13.681 10.8074 13.7651 10.9425 13.8543C11.004 13.8949 11.0609 13.9311 11.1024 13.9572C11.1231 13.9702 11.1398 13.9806 11.1511 13.9876C11.154 13.9893 11.1565 13.9909 11.1586 13.9922C11.1607 13.9935 11.1625 13.9946 11.1638 13.9954L11.1669 13.9973L11.1675 13.9976L10.8747 14.4779L10.3378 14.6456C10.3591 14.7138 10.3821 14.7813 10.4069 14.8481C10.3805 14.8311 10.3522 14.8126 10.3229 14.7933C10.1943 14.7084 10.0047 14.579 9.88074 14.4652L9.88085 14.4653L10.2603 14.0514L9.88074 14.4652C9.46772 14.0865 9.20891 13.6477 9.04701 13.2451V13.2451C8.88837 12.8506 8.72524 12.36 8.68237 11.8648C8.63933 11.3678 8.71302 10.7979 9.111 10.3336L9.11861 10.3247V7.81383C8.4481 7.57216 7.86936 7.2836 7.4299 6.94856C6.91497 6.55599 6.50516 6.02919 6.50516 5.37506C6.50516 4.74066 6.89116 4.22569 7.38201 3.83864C7.87916 3.44661 8.5637 3.11818 9.35945 2.85277Z" fill="#00AEEF"/>
<path fill-rule="evenodd" clip-rule="evenodd" d="M21.4514 7.97317H9.68223V6.84817H21.4514V7.97317Z" fill="#00AEEF"/>
<path fill-rule="evenodd" clip-rule="evenodd" d="M14.4422 14.5079C14.1315 14.5079 13.8796 14.7599 13.8796 15.0705V15.5H12.7546V15.0705C12.7546 14.1386 13.5102 13.3829 14.4422 13.3829H16.6251C17.557 13.3829 18.3127 14.1385 18.3127 15.0705V15.5H17.1877V15.0705C17.1877 14.7599 16.9357 14.5079 16.6251 14.5079H14.4422Z" fill="#00AEEF"/>
<path fill-rule="evenodd" clip-rule="evenodd" d="M11.3948 22.8124L10.144 19.3547L9.08611 19.7374L10.6054 23.9374H20.3948L21.914 19.7374L20.8561 19.3547L19.6054 22.8124H11.3948Z" fill="#00AEEF"/>
<path fill-rule="evenodd" clip-rule="evenodd" d="M11.9393 17.3283L12.6641 16.5428L13.4909 17.3057L12.7662 18.0912C11.5353 19.4253 9.86991 20.2783 8.06773 20.497L8.06592 20.4972L8.0641 20.4974C5.24967 20.8205 3.125 23.2029 3.125 26.0361V27.8753H27.875V26.0361C27.875 23.2136 25.7658 20.838 22.9669 20.5011H22.9657L22.9319 20.497C21.13 20.2783 19.4646 19.4258 18.2338 18.0916V18.0916L17.6014 17.406L18.4282 16.6432L19.0607 17.3287C20.1091 18.4653 21.5275 19.1921 23.0623 19.3796L23.064 19.3798C26.4464 19.7679 29 22.6315 29 26.0361V29.0003H2V26.0361C2 22.6319 4.55246 19.7691 7.93394 19.38C9.4702 19.1931 10.8899 18.4658 11.9393 17.3283Z" fill="#00AEEF"/>
</svg>
