<svg width="32" height="32" viewBox="0 0 32 32" fill="none" xmlns="http://www.w3.org/2000/svg">
<path d="M2.94905 4.00053C1.82225 3.96629 1.63323 5.59885 2.73803 5.82294L4.77357 6.26874C5.85029 11.4198 7.02399 16.5494 8.16218 21.6876C8.25571 22.1088 8.62939 22.4086 9.06106 22.4084H25.225C26.4704 22.4268 26.4704 20.5492 25.225 20.5674H9.79962L9.39213 18.727H26.0405C26.4719 18.7272 26.8456 18.4274 26.9393 18.0062L28.9779 8.80265C29.105 8.22823 28.668 7.68352 28.0796 7.6833C21.037 7.68351 13.9949 7.68308 6.95224 7.67987L6.45186 5.30596C6.37738 4.95175 6.10194 4.67396 5.74836 4.59649L3.13091 4.02355C3.0712 4.00986 3.0102 4.00172 2.94877 4.00023L2.94905 4.00053ZM7.35276 9.52167C13.8793 9.52509 20.4063 9.52509 26.9329 9.52509L25.3018 16.8872H8.98439L7.35276 9.52167ZM12.8925 23.0229C11.5478 23.0229 10.4381 24.1328 10.4381 25.4775C10.4381 26.8222 11.5478 27.9321 12.8925 27.9321C14.2372 27.9321 15.3469 26.8222 15.3469 25.4775C15.3469 24.1328 14.2372 23.0229 12.8925 23.0229V23.0229ZM21.483 23.0229C20.1383 23.0229 19.0286 24.1328 19.0286 25.4775C19.0286 26.8222 20.1383 27.9321 21.483 27.9321C22.8277 27.9321 23.9374 26.8222 23.9374 25.4775C23.9374 24.1328 22.8277 23.0229 21.483 23.0229ZM12.8925 24.8639C13.2422 24.8639 13.5061 25.1278 13.5061 25.4775C13.5061 25.8272 13.2422 26.0911 12.8925 26.0911C12.5428 26.0911 12.2789 25.8272 12.2789 25.4775C12.2789 25.1278 12.5428 24.8639 12.8925 24.8639ZM21.483 24.8639C21.8327 24.8639 22.0966 25.1278 22.0966 25.4775C22.0966 25.8272 21.8327 26.0911 21.483 26.0911C21.1333 26.0911 20.8694 25.8272 20.8694 25.4775C20.8694 25.1278 21.1333 24.8639 21.483 24.8639Z" fill="black"/>
</svg>
