<svg width="32" height="32" viewBox="0 0 32 32" fill="none" xmlns="http://www.w3.org/2000/svg">
<path d="M28.3858 7.20401C28.3068 6.33013 27.9044 5.51697 27.2571 4.92425C26.6101 4.33175 25.7648 4.00204 24.8872 4H6.11277C5.23516 4.00199 4.38995 4.33171 3.74289 4.92425C3.09561 5.51697 2.69324 6.33013 2.61415 7.20401C2.27206 7.21439 2 7.49486 2 7.83715V9.15427C2.00022 9.77747 2.21113 10.3822 2.59849 10.8703V24.8324C2.60004 25.7639 2.97083 26.6568 3.62959 27.3155C4.28835 27.9741 5.18122 28.3449 6.11277 28.3466H24.8872C25.8188 28.3449 26.7116 27.9741 27.3704 27.3155C28.0292 26.6568 28.4 25.7639 28.4015 24.8324V10.8703C28.7895 10.3813 29.0007 9.77532 29 9.15122V7.83721C29 7.4949 28.7279 7.21441 28.3858 7.20406V7.20401ZM27.7337 9.15116H27.7335C27.7335 9.69113 27.4455 10.1902 26.9778 10.4603C26.51 10.7304 25.9336 10.7304 25.4659 10.4603C24.9981 10.1902 24.7099 9.69114 24.7099 9.15116V8.47053H27.7335L27.7337 9.15116ZM18.9825 8.47053H23.4464V9.62929V9.62907C23.4464 10.4243 23.0222 11.159 22.3336 11.5566C21.645 11.9543 20.7965 11.9543 20.1079 11.5566C19.4193 11.1591 18.9951 10.4244 18.9951 9.62907L18.9825 8.47053ZM6.11265 5.26629H24.8871C25.4277 5.26961 25.9489 5.46704 26.3559 5.82282C26.7627 6.17838 27.0282 6.66888 27.1033 7.204H3.88734C3.96265 6.66712 4.22943 6.17555 4.63819 5.81977C5.0472 5.46377 5.57081 5.26722 6.11299 5.26633L6.11265 5.26629ZM13.2837 8.47053H17.716V9.62929V9.62907C17.716 10.4243 17.2917 11.159 16.6031 11.5566C15.9145 11.9543 15.066 11.9543 14.3775 11.5566C13.6889 11.1591 13.2646 10.4244 13.2646 9.62907L13.2837 8.47053ZM3.26663 9.15116V8.47053H6.2869V9.1545V9.15428C6.2869 9.69446 5.99891 10.1936 5.53118 10.4634C5.06344 10.7335 4.48702 10.7335 4.01929 10.4634C3.55155 10.1936 3.26335 9.69442 3.26335 9.15428L3.26663 9.15116ZM7.55653 9.15116V8.47053H12.0173V9.62929V9.62907C12.0173 10.4243 11.5933 11.159 10.9045 11.5566C10.2159 11.9543 9.36737 11.9543 8.67882 11.5566C7.99021 11.1591 7.56597 10.4244 7.56597 9.62907L7.55653 9.15116ZM17.716 27.0804H13.2837V21.4827C13.2837 20.6877 13.708 19.9529 14.3966 19.5551C15.0852 19.1576 15.9337 19.1576 16.6222 19.5551C17.3108 19.9529 17.7351 20.6876 17.7351 21.4827L17.716 27.0804ZM24.8746 27.0804H18.983V21.4827C18.983 20.2352 18.3174 19.0823 17.2368 18.4585C16.1564 17.8348 14.8252 17.8348 13.7448 18.4585C12.6642 19.0823 11.9986 20.2352 11.9986 21.4827V27.0804H6.11316C5.51642 27.0795 4.94422 26.8421 4.52218 26.4201C4.10037 25.998 3.86297 25.4261 3.86207 24.8293V11.7723C4.33688 11.94 4.84879 11.974 5.34173 11.8706C5.83465 11.7675 6.28984 11.5307 6.65772 11.1866C7.20276 12.2959 8.29528 13.0333 9.52822 13.1239C10.761 13.2145 11.9493 12.6447 12.6509 11.6268C13.302 12.5626 14.3697 13.1206 15.5097 13.1206C16.6497 13.1206 17.7177 12.5626 18.3685 11.6268C19.0713 12.6383 20.2561 13.2037 21.4844 13.1131C22.7129 13.0228 23.8021 12.2902 24.3492 11.1867C24.7169 11.5308 25.1721 11.7675 25.6649 11.8707C26.1579 11.974 26.6698 11.94 27.1448 11.7724V24.8322C27.1431 25.4296 26.9043 26.0018 26.4812 26.4232C26.0578 26.8448 25.4848 27.0809 24.8874 27.0802L24.8746 27.0804Z" fill="#00AEEF"/>
<path d="M9.88371 18.2793H5.83432C5.48472 18.2793 5.20117 18.5629 5.20117 18.9127V22.6706C5.20117 22.8386 5.26787 22.9996 5.38668 23.1184C5.50527 23.2373 5.66649 23.3039 5.83433 23.3039H9.88372C10.0516 23.3039 10.2128 23.2372 10.3314 23.1184C10.4502 22.9996 10.5169 22.8386 10.5169 22.6706V18.9127C10.5169 18.7446 10.4502 18.5836 10.3314 18.4648C10.2128 18.3462 10.0516 18.2793 9.88372 18.2793L9.88371 18.2793ZM9.25056 22.0341L6.46746 22.0343V19.5458H9.25034L9.25056 22.0341Z" fill="#00AEEF"/>
<path d="M25.1659 18.2793H21.1165C20.7669 18.2793 20.4834 18.5629 20.4834 18.9127V22.6706C20.4834 22.8386 20.5501 22.9996 20.6689 23.1184C20.7875 23.2373 20.9487 23.3039 21.1166 23.3039H25.1659C25.3338 23.3039 25.495 23.2372 25.6136 23.1184C25.7324 22.9996 25.7991 22.8386 25.7991 22.6706V18.9127C25.7991 18.7446 25.7324 18.5836 25.6136 18.4648C25.495 18.3462 25.3338 18.2793 25.1659 18.2793L25.1659 18.2793ZM24.5328 22.0341L21.7497 22.0343V19.5458H24.5326L24.5328 22.0341Z" fill="#00AEEF"/>
</svg>
