<svg width="32" height="32" viewBox="0 0 32 32" fill="none" xmlns="http://www.w3.org/2000/svg">
<path d="M27.0116 2H3.98838C2.88939 2 2 2.88938 2 3.98838V28.8953C2 29.9943 2.88938 30.8837 3.98838 30.8837H27.0116C28.1106 30.8837 29 29.9943 29 28.8953V3.98838C29 2.88939 28.1106 2.05208 27.0116 2V2ZM27.9534 28.8949C27.9534 29.4182 27.5349 29.8367 27.0116 29.8367H3.98838C3.46509 29.8367 3.04664 29.4182 3.04664 28.9473V28.1099H24.2905C24.6046 28.1099 24.8138 27.9007 24.8138 27.5867C24.8138 27.2726 24.6046 27.0634 24.2905 27.0634H20.3662V6.91779C20.3662 6.60374 20.157 6.3945 19.8429 6.3945C19.5289 6.3945 19.3197 6.60374 19.3197 6.91779V27.0634H11.7323V25.389C11.7323 25.075 11.5231 24.8657 11.2091 24.8657C10.895 24.8657 10.6858 25.075 10.6858 25.389V27.0634H3.04638V3.98795C3.04638 3.46466 3.46486 3.04621 3.98812 3.04621H10.6858V23.1918C10.6858 23.5058 10.895 23.7151 11.2091 23.7151C11.5231 23.7151 11.7323 23.5058 11.7323 23.1918V3.04621H19.3197V4.72055C19.3197 5.0346 19.5289 5.24384 19.8429 5.24384C20.157 5.24384 20.3662 5.0346 20.3662 4.72055V3.04621H27.0639C27.5872 3.04621 28.0056 3.4647 28.0056 3.98795V27.0112H26.9591C26.645 27.0112 26.4358 27.2204 26.4358 27.5345C26.4358 27.8485 26.645 28.0578 26.9591 28.0578H28.0056V28.8947L27.9534 28.8949Z" fill="#00AEEF"/>
<path d="M5.24434 15.97V14.1385C5.24434 13.8245 5.03509 13.6152 4.72105 13.6152C4.407 13.6152 4.19775 13.8245 4.19775 14.1385V15.97C4.19775 16.2841 4.407 16.4933 4.72105 16.4933C5.03509 16.4933 5.24434 16.2317 5.24434 15.97Z" fill="#00AEEF"/>
<path d="M13.8781 15.97V14.1385C13.8781 13.8245 13.6689 13.6152 13.3548 13.6152C13.0408 13.6152 12.8315 13.8245 12.8315 14.1385V15.97C12.8315 16.2841 13.0408 16.4933 13.3548 16.4933C13.6685 16.4933 13.8781 16.2317 13.8781 15.97Z" fill="#00AEEF"/>
<path d="M22.5642 15.97V14.1385C22.5642 13.8245 22.3549 13.6152 22.0409 13.6152C21.7268 13.6152 21.5176 13.8245 21.5176 14.1385V15.97C21.5176 16.2841 21.7268 16.4933 22.0409 16.4933C22.3549 16.4933 22.5642 16.2317 22.5642 15.97Z" fill="#00AEEF"/>
<path d="M8.80178 4.19727H4.92954C4.61549 4.19727 4.40625 4.40651 4.40625 4.72056C4.40625 5.0346 4.61549 5.24385 4.92954 5.24385H8.80178C9.11582 5.24385 9.32507 5.0346 9.32507 4.72056C9.32507 4.40651 9.11582 4.19727 8.80178 4.19727Z" fill="#00AEEF"/>
<path d="M8.80178 6.39453H4.92954C4.61549 6.39453 4.40625 6.60377 4.40625 6.91782C4.40625 7.23187 4.61549 7.44111 4.92954 7.44111H8.80178C9.11582 7.44111 9.32507 7.23187 9.32507 6.91782C9.32507 6.60377 9.11582 6.39453 8.80178 6.39453Z" fill="#00AEEF"/>
<path d="M17.4359 4.19727H13.6161C13.302 4.19727 13.0928 4.40651 13.0928 4.72056C13.0928 5.0346 13.302 5.24385 13.6161 5.24385H17.4359C17.75 5.24385 17.9592 5.0346 17.9592 4.72056C17.9592 4.40651 17.75 4.19727 17.4359 4.19727Z" fill="#00AEEF"/>
<path d="M17.4359 6.39453H13.6161C13.302 6.39453 13.0928 6.60377 13.0928 6.91782C13.0928 7.23187 13.302 7.44111 13.6161 7.44111H17.4359C17.75 7.44111 17.9592 7.23187 17.9592 6.91782C17.9592 6.60377 17.75 6.39453 17.4359 6.39453Z" fill="#00AEEF"/>
<path d="M22.2503 5.24385H26.0702C26.3843 5.24385 26.5935 5.0346 26.5935 4.72056C26.5935 4.40651 26.3843 4.19727 26.0702 4.19727H22.2503C21.9363 4.19727 21.7271 4.40651 21.7271 4.72056C21.7271 5.0346 21.9363 5.24385 22.2503 5.24385Z" fill="#00AEEF"/>
<path d="M22.2503 7.44111H26.0702C26.3843 7.44111 26.5935 7.23187 26.5935 6.91782C26.5935 6.60378 26.3843 6.39453 26.0702 6.39453H22.2503C21.9363 6.39453 21.7271 6.60378 21.7271 6.91782C21.7271 7.23187 21.9363 7.44111 22.2503 7.44111Z" fill="#00AEEF"/>
<path d="M26.0697 22.668H22.2499C21.9358 22.668 21.7266 22.8772 21.7266 23.1913C21.7266 23.5053 21.9358 23.7146 22.2499 23.7146H26.0697C26.3838 23.7146 26.593 23.5053 26.593 23.1913C26.593 22.8772 26.3838 22.668 26.0697 22.668Z" fill="#00AEEF"/>
<path d="M26.5935 25.3885C26.5935 25.0745 26.3843 24.8652 26.0702 24.8652H22.2503C21.9363 24.8652 21.7271 25.0745 21.7271 25.3885C21.7271 25.7026 21.9363 25.9118 22.2503 25.9118H26.0702C26.3843 25.9118 26.5935 25.6502 26.5935 25.3885Z" fill="#00AEEF"/>
<path d="M17.4359 22.668H13.6161C13.302 22.668 13.0928 22.8772 13.0928 23.1913C13.0928 23.5053 13.302 23.7146 13.6161 23.7146H17.4359C17.75 23.7146 17.9592 23.5053 17.9592 23.1913C17.9592 22.8772 17.75 22.668 17.4359 22.668Z" fill="#00AEEF"/>
<path d="M17.4359 24.8652H13.6161C13.302 24.8652 13.0928 25.0745 13.0928 25.3885C13.0928 25.7026 13.302 25.9118 13.6161 25.9118H17.4359C17.75 25.9118 17.9592 25.7026 17.9592 25.3885C17.9592 25.0745 17.75 24.8652 17.4359 24.8652Z" fill="#00AEEF"/>
<path d="M8.80178 22.668H4.92954C4.61549 22.668 4.40625 22.8772 4.40625 23.1913C4.40625 23.5053 4.61549 23.7146 4.92954 23.7146H8.80178C9.11582 23.7146 9.32507 23.5053 9.32507 23.1913C9.32507 22.8772 9.11582 22.668 8.80178 22.668Z" fill="#00AEEF"/>
<path d="M8.80178 24.8652H4.92954C4.61549 24.8652 4.40625 25.0745 4.40625 25.3885C4.40625 25.7026 4.61549 25.9118 4.92954 25.9118L8.80178 25.9115C9.11582 25.9115 9.32507 25.7022 9.32507 25.3882C9.32507 25.0745 9.11582 24.8652 8.80178 24.8652V24.8652Z" fill="#00AEEF"/>
</svg>
