<svg width="32" height="32" viewBox="0 0 32 32" fill="none" xmlns="http://www.w3.org/2000/svg">
<path d="M26.0961 1H26.0668H23.1478C19.8238 1 16.8247 2.98496 15.4999 5.99507C14.1754 2.98496 11.1726 1 7.84868 1H4.9335H4.90423C3.24785 1 2 1.63476 2 2.47772C2 3.32069 3.24785 3.95544 4.90423 3.95544C6.56087 3.95544 7.81231 3.32069 7.81231 2.47772C7.81231 2.45583 7.80874 2.43751 7.80493 2.41944H7.8487C11.6761 2.41944 14.7884 5.53191 14.7884 9.35913V18.9513H14.2702C14.1389 18.9513 14.033 19.0572 14.033 19.1885V28.3356H12.9931C12.8617 28.3356 12.7559 28.4415 12.7559 28.5729V29.9556C12.7559 30.087 12.8617 30.1928 12.9931 30.1928H18.0027C18.134 30.1928 18.2399 30.087 18.2399 29.9556V28.5729C18.2399 28.4415 18.134 28.3356 18.0027 28.3356H16.9627L16.9632 19.1885C16.9632 19.0572 16.8573 18.9513 16.726 18.9513H16.2078V9.35913C16.2078 5.53178 19.3203 2.41944 23.1475 2.41944H23.1913C23.1913 2.43776 23.1839 2.45965 23.1839 2.47772C23.1839 3.3207 24.4318 3.95544 26.0881 3.95544C27.745 3.95544 29 3.32069 29 2.47772C29 1.63476 27.7521 1 26.0958 1H26.0961ZM4.90433 3.48098C3.55437 3.48098 2.602 3.01395 2.49254 2.56145C2.99597 2.40085 3.58721 2.30973 4.2258 2.30973C5.36426 2.30973 6.38941 2.59071 6.90023 3.02846C6.47697 3.28781 5.77272 3.48098 4.90433 3.48098V3.48098ZM7.25422 2.71489C6.65942 2.17863 5.51744 1.84291 4.22932 1.84291C3.72945 1.84291 3.25505 1.89763 2.82086 1.99257C3.2296 1.70421 3.97378 1.4782 4.90784 1.47438H4.91141H4.92591C6.35249 1.47795 7.34507 2.00352 7.34507 2.47764C7.34176 2.55425 7.30511 2.63468 7.25421 2.71485L7.25422 2.71489ZM17.7696 28.807V29.7156L13.2307 29.7153V28.8067H16.7261L17.7696 28.807ZM16.4925 19.4259V28.3359H14.5075L14.5078 19.4259H15.0186C15.0221 19.4259 15.0259 19.4295 15.0295 19.4295C15.0331 19.4295 15.0369 19.4295 15.0404 19.4259H15.9672C15.9707 19.4259 15.9745 19.4295 15.9781 19.4295C15.9817 19.4295 15.9855 19.4295 15.989 19.4259H16.4925ZM23.3702 1.94475H23.1478C19.0613 1.94475 15.7338 5.26871 15.7338 9.35877V18.9509H15.2632L15.2629 9.35877C15.2629 5.2723 11.939 1.94475 7.84891 1.94475H7.62646C7.4987 1.76608 7.30908 1.60905 7.06832 1.47415H7.84914C11.1731 1.47415 14.1577 3.57945 15.2742 6.71355C15.3071 6.80848 15.3982 6.87033 15.4967 6.87033C15.5952 6.87033 15.6863 6.80823 15.7191 6.71355C16.8357 3.57926 19.8203 1.47415 23.1442 1.47415H23.9286C23.6879 1.60905 23.4982 1.76608 23.3705 1.94475H23.3702ZM23.6622 2.47745C23.6622 2.00304 24.6545 1.47771 26.0813 1.47419H26.0923H26.0958C27.0335 1.47419 27.7779 1.70045 28.1867 1.99237C27.7489 1.89744 27.2745 1.84272 26.7782 1.84272C25.4901 1.84272 24.3481 2.17842 23.7533 2.71469C23.695 2.63452 23.6622 2.5541 23.6622 2.47749L23.6622 2.47745ZM26.0959 3.48071C25.2275 3.48071 24.527 3.28728 24.1 3.02819C24.6108 2.59399 25.6398 2.30946 26.7744 2.30946C27.4091 2.30946 28.0003 2.40057 28.5076 2.56117C28.3944 3.0137 27.4422 3.48071 26.0959 3.48071V3.48071Z" fill="black"/>
</svg>
