<svg width="32" height="32" viewBox="0 0 32 32" fill="none" xmlns="http://www.w3.org/2000/svg">
<path d="M28.2768 20.5681H27.9469C28.0041 20.4137 28.0341 20.2506 28.0358 20.0859V18.8302C28.0353 18.4467 27.8827 18.079 27.6117 17.8078C27.3405 17.5368 26.9729 17.3842 26.5893 17.3838H26.5788C26.5168 17.1076 26.5239 16.8207 26.5997 16.548C26.7239 15.9406 27.1647 15.8127 27.1647 14.5901C27.0803 13.918 26.9081 13.2595 26.6524 12.6321C26.3244 11.7298 26.0637 10.8043 25.8728 9.86344C25.6488 8.55929 26.2622 7.03687 27.6944 5.33863C27.8165 5.19441 27.8739 5.00629 27.8539 4.8186C27.8339 4.63069 27.7377 4.45915 27.5881 4.34378C27.2411 4.07967 26.5192 3.52865 25.7203 3.82396C25.2422 4.04631 24.8657 4.44083 24.6655 4.9286C24.5538 5.18667 24.3825 5.41461 24.166 5.5939C23.311 6.12124 22.2407 5.21055 21.9337 4.91912C21.1347 4.16124 20.5206 3.38034 19.7358 3.27961C19.0656 3.23893 18.4127 3.50217 17.9583 3.99682C17.3049 3.35477 16.4243 2.99661 15.508 3.00002H15.4921C14.5762 2.99723 13.6961 3.35539 13.0422 3.99682C12.5887 3.50133 11.9352 3.23768 11.2649 3.27961C10.4793 3.38034 9.86545 4.16147 9.06663 4.91912C8.75927 5.21056 7.68842 6.12084 6.83434 5.5939H6.83412C6.61759 5.4146 6.44647 5.18666 6.33455 4.9286C6.13459 4.44085 5.7579 4.0463 5.27984 3.82396C4.47976 3.52973 3.75957 4.07967 3.41199 4.34378H3.4122C3.26261 4.45893 3.16662 4.63026 3.14638 4.81796C3.12615 5.00543 3.18319 5.19334 3.3048 5.33777C4.73811 7.03711 5.35156 8.55931 5.12746 9.86346C4.93633 10.8043 4.67567 11.7298 4.34766 12.6321C4.09195 13.2596 3.91976 13.918 3.83538 14.5902C3.83538 15.8128 4.2762 15.9413 4.4004 16.548C4.47616 16.8207 4.48348 17.1078 4.42128 17.3838H4.41073C4.02717 17.3842 3.65952 17.5368 3.38831 17.8078C3.11732 18.079 2.96472 18.4467 2.96429 18.8302V20.086C2.96601 20.2506 2.99593 20.4138 3.05318 20.5681H2.72321C2.32394 20.5685 2.00044 20.892 2 21.2913V24.9074C2.00043 25.3067 2.32394 25.6302 2.72321 25.6306H3.20536V26.5161C2.99076 26.6099 2.80802 26.7643 2.67952 26.9601C2.55102 27.156 2.48257 27.3852 2.48214 27.6194V28.1016C2.48257 28.5008 2.80608 28.8243 3.20536 28.8248H5.61607C6.01535 28.8244 6.33885 28.5008 6.33929 28.1016V27.6194C6.33886 27.3852 6.27041 27.156 6.14191 26.9601C6.01341 26.7643 5.83067 26.6099 5.61607 26.5161V25.6306H25.3839V26.5161C25.1693 26.6099 24.9866 26.7643 24.8581 26.9601C24.7296 27.156 24.6611 27.3852 24.6607 27.6194V28.1016C24.6611 28.5008 24.9847 28.8243 25.3839 28.8248H27.7946C28.1939 28.8244 28.5174 28.5008 28.5179 28.1016V27.6194C28.5174 27.3852 28.449 27.156 28.3205 26.9601C28.192 26.7643 28.0092 26.6099 27.7946 26.5161V25.6306H28.2768C28.6761 25.6302 28.9996 25.3067 29 24.9074V21.2913C28.9996 20.892 28.6761 20.5685 28.2768 20.5681L28.2768 20.5681ZM5.34503 16.3549C5.16724 15.4819 4.79983 15.5695 4.79983 14.5902V14.5904C4.89776 14.0258 5.0523 13.4729 5.26174 12.9395C5.60548 11.9901 5.87822 11.0163 6.07774 10.0264C6.34142 8.49235 5.71979 6.78374 4.22967 4.94323C4.55749 4.72346 4.76886 4.66406 4.94688 4.72906C5.16772 4.80999 5.31753 5.0812 5.49123 5.39524H5.49102C5.67504 5.80334 5.96412 6.15527 6.32873 6.41507C7.77191 7.30315 9.29647 6.03 9.73062 5.6189C10.3019 5.07606 10.9829 4.28846 11.388 4.23639C11.8008 4.17892 12.2571 4.5571 12.566 4.87954H12.5658C12.6954 5.01622 12.8764 5.09178 13.0645 5.08768C13.2526 5.08338 13.4304 5.00008 13.5538 4.85802C14.0413 4.29085 14.752 3.96432 15.5 3.96432C16.2481 3.96432 16.9589 4.29041 17.4466 4.85757C17.5699 4.99942 17.7473 5.08293 17.9352 5.08724C18.1231 5.09155 18.3041 5.01664 18.4339 4.88061C18.7428 4.55817 19.1952 4.18147 19.6128 4.23641C20.4968 4.34984 22.3893 7.81848 24.6717 6.41509C25.0363 6.15529 25.3254 5.80335 25.5094 5.39526C25.6831 5.08122 25.8329 4.81002 26.0538 4.72908C26.2309 4.66407 26.4427 4.72348 26.771 4.94324C25.2808 6.78337 24.6592 8.49236 24.9229 10.0264H24.9227C25.1222 11.0163 25.3949 11.9901 25.7387 12.9395C25.9479 13.4729 26.1027 14.0258 26.2006 14.5904C26.2006 15.5696 25.833 15.4826 25.6554 16.3551V16.3549C25.5742 16.6916 25.5544 17.0401 25.5966 17.3838H5.40394C5.44612 17.0401 5.42632 16.6916 5.34518 16.3549L5.34503 16.3549ZM3.92875 20.0859V18.8302C3.92896 18.564 4.14464 18.3483 4.41089 18.3481H26.5895C26.8557 18.3483 27.0714 18.564 27.0716 18.8302V20.0859C27.0714 20.3522 26.8557 20.5679 26.5895 20.5681H4.41089C4.14464 20.5679 3.92896 20.3522 3.92875 20.0859V20.0859ZM5.37517 27.8603H3.4466V27.6192C3.44682 27.4862 3.55465 27.3784 3.68767 27.3781H5.1341C5.26712 27.3784 5.37496 27.4862 5.37517 27.6192V27.8603ZM4.65196 26.4138H4.16982V25.6304H4.65196V26.4138ZM27.5535 27.8603H25.6249V27.6192C25.6251 27.4862 25.7329 27.3784 25.866 27.3781H27.3124C27.4454 27.3784 27.5533 27.4862 27.5535 27.6192V27.8603ZM26.8303 26.4138H26.3481V25.6304H26.8303V26.4138ZM28.0356 24.6661H2.96418V21.5321H28.0356V24.6661Z" fill="black"/>
<path d="M24.6628 16.9025H6.33636C6.10024 16.9025 5.89878 16.7316 5.86025 16.4985C5.84755 16.4208 5.83334 16.3408 5.81656 16.2583C5.62327 15.313 5.28125 15.3941 5.28125 14.5911V14.5913C5.28125 14.574 5.28211 14.5568 5.28405 14.5398C5.39339 14.048 5.53825 13.5648 5.71776 13.0938C6.0699 12.1212 6.34907 11.1233 6.55245 10.1088C6.67772 9.32728 6.61724 8.52725 6.37638 7.77346C6.32752 7.61202 6.36626 7.43703 6.47884 7.31155C6.59141 7.18606 6.76123 7.12838 6.92676 7.15937C8.07811 7.37375 9.212 6.77516 10.0611 5.9695C10.3414 5.70368 10.9413 5.08247 11.2166 4.86443H11.2168C11.3782 4.73636 11.6036 4.72517 11.7771 4.83666C11.9378 4.94515 12.0855 5.07192 12.2172 5.21441C12.446 5.43891 12.7558 5.56117 13.076 5.55363C13.3965 5.54588 13.7002 5.40899 13.9178 5.17373C14.3141 4.71247 14.8918 4.44727 15.4999 4.44727C16.1077 4.44748 16.6854 4.71287 17.0815 5.17434C17.2995 5.4096 17.6034 5.54649 17.9241 5.55381C18.2449 5.56113 18.5548 5.43801 18.7832 5.21286C18.9145 5.07081 19.0619 4.94424 19.2225 4.83619C19.396 4.72556 19.6207 4.73696 19.7823 4.86439C20.0576 5.08243 20.6575 5.70359 20.9378 5.96946C21.7841 6.7723 22.9208 7.37478 24.0717 7.15933C24.2372 7.12834 24.4073 7.18602 24.5198 7.31151C24.6324 7.43699 24.6714 7.61199 24.6225 7.77342C24.3816 8.52743 24.3212 9.32746 24.4464 10.1092C24.6501 11.1237 24.929 12.1216 25.2811 13.0945C25.4669 13.5757 25.6124 14.0716 25.7163 14.577C25.7183 15.4036 25.3773 15.3063 25.1819 16.2594C25.1653 16.3403 25.1513 16.4208 25.1386 16.4985C25.1001 16.7316 24.8986 16.9025 24.6625 16.9025L24.6628 16.9025ZM6.73365 15.9383H24.266C24.3573 15.5624 24.5024 15.2017 24.6967 14.8676C24.7467 14.8076 24.7678 14.7288 24.7546 14.652C24.7217 14.4552 24.475 13.721 24.3672 13.4018C23.9989 12.382 23.7079 11.3359 23.4967 10.2726C23.3799 9.57458 23.3917 8.86106 23.5314 8.16733C22.3002 8.07886 21.1426 7.54655 20.2741 6.66921C19.9601 6.37067 19.7642 6.16318 19.476 5.88379C19.0649 6.31298 18.4918 6.54909 17.8976 6.53427C17.3034 6.51941 16.7429 6.25488 16.3535 5.80565C16.1406 5.55575 15.8288 5.41155 15.5005 5.41155C15.1721 5.41155 14.8602 5.55533 14.6471 5.80522C14.2578 6.25465 13.6973 6.51918 13.1028 6.53422C12.5085 6.54907 11.9351 6.31295 11.5238 5.88374C11.2356 6.16313 11.0397 6.37062 10.7257 6.66917C9.85716 7.54672 8.6998 8.07901 7.46843 8.16728C7.60812 8.86102 7.61996 9.57409 7.50309 10.2719C7.29215 11.3354 7.00114 12.3815 6.63264 13.4013C6.5177 13.7427 6.2833 14.439 6.24606 14.6273C6.24757 14.7946 6.24606 14.7649 6.30311 14.8669C6.49725 15.2016 6.64233 15.5623 6.73381 15.9381L6.73365 15.9383Z" fill="black"/>
<path d="M16.4323 9.51869C16.6159 9.70767 16.6137 10.009 16.4273 10.1954C16.2409 10.3818 15.9396 10.384 15.7506 10.2003L15.5001 9.9498L15.2495 10.2003C15.061 10.3863 14.7577 10.385 14.5705 10.1978C14.3832 10.0105 14.3819 9.70723 14.5679 9.51869L14.8184 9.26814L14.5679 9.0176C14.3819 8.82905 14.3832 8.52577 14.5705 8.33852C14.7577 8.15126 15.061 8.14997 15.2495 8.33594L15.5001 8.58648L15.7506 8.33594C15.9392 8.14997 16.2425 8.15126 16.4297 8.33852C16.617 8.52578 16.6183 8.82906 16.4323 9.0176L16.1817 9.26814L16.4323 9.51869Z" fill="black"/>
<path d="M20.2892 9.51867C20.4756 9.70722 20.4748 10.0109 20.2873 10.1984C20.0998 10.3859 19.7961 10.3867 19.6076 10.2003L19.357 9.9498L19.1065 10.2003C18.9175 10.3839 18.6161 10.3818 18.4298 10.1954C18.2434 10.009 18.2412 9.70765 18.4248 9.51869L18.6754 9.26814L18.4248 9.0176C18.2388 8.82905 18.2401 8.52577 18.4274 8.33852C18.6146 8.15126 18.9179 8.14997 19.1065 8.33594L19.357 8.58648L19.6076 8.33594C19.7961 8.14997 20.0994 8.15126 20.2866 8.33852C20.4739 8.52578 20.4752 8.82906 20.2892 9.0176L20.0387 9.26814L20.2892 9.51867Z" fill="black"/>
<path d="M12.5749 9.51867C12.7613 9.70722 12.7604 10.0109 12.5729 10.1984C12.3855 10.3859 12.0818 10.3867 11.8932 10.2003L11.6427 9.9498L11.3921 10.2003C11.2031 10.3839 10.9018 10.3818 10.7154 10.1954C10.529 10.009 10.5268 9.70765 10.7105 9.51869L10.961 9.26814L10.7105 9.0176C10.5245 8.82905 10.5258 8.52577 10.713 8.33852C10.9003 8.15126 11.2036 8.14997 11.3921 8.33594L11.6427 8.58648L11.8932 8.33594C12.0818 8.14997 12.385 8.15126 12.5723 8.33852C12.7595 8.52578 12.7608 8.82906 12.5749 9.0176L12.3243 9.26814L12.5749 9.51867Z" fill="black"/>
<path d="M14.5036 13.3761C14.69 13.5646 14.6891 13.8684 14.5016 14.0558C14.3142 14.2433 14.0105 14.2442 13.8219 14.0578L13.5714 13.8072L13.3208 14.0578C13.1318 14.2414 12.8305 14.2392 12.6441 14.0528C12.4577 13.8664 12.4556 13.5651 12.6392 13.3761L12.8897 13.1256L12.6392 12.875C12.4532 12.6865 12.4545 12.3832 12.6417 12.1959C12.829 12.0087 13.1323 12.0074 13.3208 12.1934L13.5714 12.4439L13.8219 12.1934C14.0105 12.0074 14.3137 12.0087 14.501 12.1959C14.6882 12.3832 14.6895 12.6865 14.5036 12.875L14.253 13.1256L14.5036 13.3761Z" fill="black"/>
<path d="M18.3605 13.3761C18.5469 13.5646 18.5461 13.8684 18.3586 14.0558C18.1711 14.2433 17.8674 14.2442 17.6788 14.0578L17.4283 13.8072L17.1778 14.0578C16.9888 14.2414 16.6874 14.2392 16.501 14.0528C16.3146 13.8664 16.3125 13.5651 16.4961 13.3761L16.7466 13.1256L16.4961 12.875C16.3101 12.6865 16.3114 12.3832 16.4987 12.1959C16.6859 12.0087 16.9892 12.0074 17.1778 12.1934L17.4283 12.4439L17.6788 12.1934C17.8674 12.0074 18.1707 12.0087 18.3579 12.1959C18.5452 12.3832 18.5465 12.6865 18.3605 12.875L18.11 13.1256L18.3605 13.3761Z" fill="black"/>
<path d="M22.2179 13.3761C22.4043 13.5646 22.4035 13.8684 22.216 14.0558C22.0285 14.2433 21.7248 14.2442 21.5363 14.0578L21.2857 13.8072L21.0352 14.0578C20.8462 14.2414 20.5449 14.2392 20.3585 14.0528C20.1721 13.8664 20.1699 13.5651 20.3535 13.3761L20.6041 13.1256L20.3535 12.875C20.1675 12.6865 20.1688 12.3832 20.3561 12.1959C20.5434 12.0087 20.8466 12.0074 21.0352 12.1934L21.2857 12.4439L21.5363 12.1934C21.7248 12.0074 22.0281 12.0087 22.2153 12.1959C22.4026 12.3832 22.4039 12.6865 22.2179 12.875L21.9674 13.1256L22.2179 13.3761Z" fill="black"/>
<path d="M10.6462 13.3761C10.8326 13.5646 10.8317 13.8684 10.6442 14.0558C10.4568 14.2433 10.153 14.2442 9.96449 14.0578L9.71394 13.8072L9.4634 14.0578C9.27442 14.2414 8.97308 14.2392 8.78669 14.0528C8.60029 13.8664 8.59814 13.5651 8.78174 13.3761L9.03228 13.1256L8.78174 12.875C8.59577 12.6865 8.59706 12.3832 8.78432 12.1959C8.97158 12.0087 9.27486 12.0074 9.4634 12.1934L9.71394 12.4439L9.96449 12.1934C10.153 12.0074 10.4563 12.0087 10.6436 12.1959C10.8308 12.3832 10.8321 12.6865 10.6461 12.875L10.3956 13.1256L10.6462 13.3761Z" fill="black"/>
</svg>
