<svg width="32" height="32" viewBox="0 0 32 32" fill="none" xmlns="http://www.w3.org/2000/svg">
<path fill-rule="evenodd" clip-rule="evenodd" d="M19.0805 24.4114C19.2396 24.2848 19.471 24.3086 19.6013 24.4648C19.7318 24.6208 19.7134 24.8524 19.5605 24.9865C17.6161 26.7227 15.1252 27.7666 12.41 27.7666C9.69546 27.7666 7.20413 26.7226 5.2606 24.9858C5.1119 24.851 5.09594 24.6232 5.2247 24.4692C5.35301 24.3154 5.58016 24.2899 5.73905 24.412C7.61411 25.8839 9.91908 26.7525 12.4096 26.7525C14.9003 26.7525 17.2052 25.8839 19.0796 24.4113L19.0805 24.4114Z" fill="black"/>
<path fill-rule="evenodd" clip-rule="evenodd" d="M6.06607 14.2736C6.09599 14.4746 5.95992 14.6632 5.75959 14.698C5.55903 14.7325 5.36755 14.6011 5.32811 14.4015C4.79669 11.8496 5.13819 9.17012 6.49554 6.8192C7.85269 4.46856 10.0023 2.83308 12.4785 2.01801C12.6695 1.95663 12.8748 2.05701 12.9437 2.24516C13.013 2.43353 12.9211 2.64251 12.7358 2.71941C10.5237 3.60738 8.61898 5.1691 7.37371 7.326C6.12827 9.48313 5.72802 11.9135 6.06597 14.2734L6.06607 14.2736Z" fill="black"/>
<path fill-rule="evenodd" clip-rule="evenodd" d="M9.64638 23.0987C9.83563 23.1733 9.9307 23.3852 9.86089 23.5762C9.79064 23.7673 9.581 23.8672 9.38842 23.8018C6.91257 22.9863 4.76299 21.3508 3.40601 18.9997C2.04841 16.6487 1.70694 13.9696 2.23949 11.4181C2.28204 11.2219 2.47151 11.0943 2.66897 11.1286C2.86664 11.163 3.00183 11.3469 2.97545 11.5457C2.63838 13.9052 3.03861 16.3356 4.28403 18.4931C5.52948 20.6502 7.43397 22.2122 9.64653 23.0991L9.64638 23.0987Z" fill="black"/>
<path fill-rule="evenodd" clip-rule="evenodd" d="M11.9199 6.75903C11.7607 6.88579 11.5294 6.86185 11.3991 6.70606C11.2685 6.54983 11.2869 6.31825 11.4398 6.18417C13.3842 4.44789 15.8752 3.4043 18.5904 3.4043C21.3049 3.4043 23.7962 4.44788 25.7398 6.18508C25.8885 6.31982 25.9044 6.54763 25.7757 6.70143C25.6473 6.85545 25.4202 6.88072 25.2613 6.75861C23.3862 5.28709 21.0813 4.41841 18.5907 4.41841C16.1001 4.41841 13.7951 5.28692 11.9207 6.75929L11.9199 6.75903Z" fill="black"/>
<path fill-rule="evenodd" clip-rule="evenodd" d="M24.9339 16.8635C24.904 16.6625 25.0401 16.4739 25.2404 16.4391C25.4409 16.4045 25.6324 16.536 25.6719 16.7356C26.2033 19.2874 25.8618 21.967 24.5044 24.3179C23.1473 26.6685 20.9977 28.304 18.5215 29.1191C18.3304 29.1804 18.1252 29.0801 18.0563 28.8919C17.9869 28.7035 18.0789 28.4946 18.2642 28.4177C20.4763 27.5297 22.381 25.968 23.6263 23.8111C24.8717 21.6539 25.272 19.2235 24.934 16.8637L24.9339 16.8635Z" fill="black"/>
<path fill-rule="evenodd" clip-rule="evenodd" d="M21.3536 8.07083C21.1644 7.99659 21.0693 7.78429 21.1391 7.59326C21.2094 7.40223 21.419 7.30229 21.6116 7.36766C24.0874 8.18341 26.237 9.81911 27.594 12.1698C28.9516 14.5208 29.293 17.2003 28.7605 19.7514C28.718 19.9476 28.5285 20.0752 28.331 20.0409C28.1333 20.0065 27.9982 19.8226 28.0245 19.6238C28.3616 17.2643 27.9614 14.8339 26.716 12.6764C25.4705 10.5194 23.566 8.95775 21.3535 8.0704L21.3536 8.07083Z" fill="black"/>
</svg>
