<svg xmlns="http://www.w3.org/2000/svg" width="432" height="432"><g fill="#3E6582"><path d="M422.973 260.617c-17.958-24.048-50.268-30.689-76.83-15.801a8.42 8.42 0 00-.62.385l-47.165 31.874c-5.749-10.294-16.745-17.283-29.351-17.283l-41.824-.022c-1.43 0-5.947-1.777-9.419-3.986-.971-.618-3.571-2.527-6.085-4.374-3.504-2.574-7.866-5.778-11.72-8.396-8.368-5.679-19.125-11.741-40.974-11.741-25.981 0-45.18 12.71-54.314 20.289-7.083 5.874-22.206 16.937-32.266 24.203-.579-6.625-6.095-11.855-12.865-11.855H19.243c-7.156 0-12.978 5.822-12.978 12.979V392.2c0 7.155 5.822 12.979 12.978 12.979H59.54c7.157 0 12.979-5.823 12.979-12.979v-16.855h25.87l139.761 29.641a8.753 8.753 0 001.817.193 8.778 8.778 0 005.226-1.728l57.331-42.53a8.762 8.762 0 001.817-12.264c-2.882-3.894-8.378-4.703-12.264-1.82l-54.159 40.175-136.794-29.014a8.663 8.663 0 00-1.817-.189H72.518v-60.567c.069-.046.143-.071.209-.12 1.286-.913 31.574-22.467 43.144-32.064 7.312-6.069 22.637-16.248 43.114-16.248 18.286 0 25.703 5.039 31.121 8.718 3.588 2.436 7.807 5.531 11.195 8.021 3.243 2.379 5.585 4.099 7.05 5.031 1.763 1.123 10.968 6.729 18.827 6.729l41.824.021c8.862 0 16.076 7.214 16.076 16.077 0 8.862-7.214 16.075-16.076 16.075h-97.599a8.768 8.768 0 00-8.77 8.768 8.769 8.769 0 008.77 8.77h97.599c17.849 0 32.453-13.997 33.512-31.584l52.509-35.488c16.032-8.829 34.916-6.678 47.895 4.669l-51.037 37.857a8.767 8.767 0 00-1.816 12.268 8.749 8.749 0 007.047 3.544 8.727 8.727 0 005.217-1.728l58.846-43.649a8.774 8.774 0 003.455-5.773 8.787 8.787 0 00-1.657-6.519zM54.981 387.641h-31.18V281.446h31.18v106.195z"/><circle cx="325.826" cy="332.476" r="8.665"/><path d="M141.687 136.525c-18.935 0-34.342-15.409-34.342-34.344s15.407-34.342 34.342-34.342c18.938 0 34.344 15.406 34.344 34.342s-15.406 34.344-34.344 34.344zm0-51.149c-9.267 0-16.805 7.539-16.805 16.805 0 9.27 7.538 16.808 16.805 16.808 9.27 0 16.808-7.538 16.808-16.808 0-9.266-7.539-16.805-16.808-16.805z"/><path d="M420.17 95.222l-46.767-48.227a8.765 8.765 0 00-6.225-2.662c-2.275-.074-4.605.904-6.266 2.569l-17.916 17.913-17.913-17.913a8.764 8.764 0 00-12.399 0l-17.913 17.913-18.919-18.918a8.764 8.764 0 00-12.399 0l-22.914 22.915h-23.601c-12.828-28.816-41.73-48.958-75.252-48.958-45.394 0-82.327 36.933-82.327 82.327 0 45.397 36.933 82.327 82.327 82.327 33.749 0 62.761-20.438 75.461-49.566h154.348c1.56 0 3.089-.418 4.436-1.207l42.383-24.843a8.77 8.77 0 001.856-13.67zm-51.056 22.181H211.23c-3.83 0-7.05 2.47-8.245 5.888l-.035-.002c-8.776 25.395-32.926 43.683-61.264 43.683-35.723 0-64.79-29.065-64.79-64.791 0-35.724 29.067-64.79 64.79-64.79 27.907 0 51.746 17.741 60.843 42.533 1.029 3.696 4.386 6.425 8.413 6.425h33.226a8.763 8.763 0 006.201-2.568l19.283-19.285 18.918 18.92a8.771 8.771 0 0012.401 0L318.886 65.5l17.913 17.916a8.767 8.767 0 0012.397 0l17.819-17.817 32.788 33.815-30.689 17.989z"/></g></svg>