<svg xmlns="http://www.w3.org/2000/svg" width="432" height="432"><g fill="#FFF"><path d="M239.115 151.668H192.59v-46.525c0-11.295-9.155-20.451-20.451-20.451-11.296 0-20.451 9.155-20.451 20.451v46.525h-46.525c-11.296 0-20.451 9.155-20.451 20.451 0 11.296 9.155 20.451 20.451 20.451h46.525v46.525c0 11.296 9.155 20.451 20.451 20.451 11.295 0 20.451-9.155 20.451-20.451V192.57h46.525c11.296 0 20.45-9.155 20.45-20.451 0-11.296-9.154-20.451-20.45-20.451z"/><path d="M422.517 391.596L303.683 272.767c21.437-27.952 34.331-62.782 34.331-100.648 0-91.465-74.409-165.875-165.875-165.875S6.265 80.654 6.265 172.119 80.674 337.994 172.14 337.994c38.88 0 74.601-13.541 102.909-36.024l118.55 118.547c3.991 3.993 9.227 5.99 14.459 5.99s10.469-1.997 14.46-5.99c7.987-7.987 7.987-20.936-.001-28.921zM47.166 172.119c0-68.909 56.063-124.973 124.973-124.973 68.909 0 124.973 56.063 124.973 124.973 0 68.909-56.064 124.973-124.973 124.973-68.91 0-124.973-56.065-124.973-124.973z"/></g></svg>