<svg xmlns="http://www.w3.org/2000/svg" width="432" height="432"><path fill="#FFF" d="M308.791 6.244H123.29c-14.577 0-26.395 11.817-26.395 26.395v366.763c0 14.576 11.817 26.394 26.395 26.394h185.501c14.577 0 26.394-11.817 26.394-26.394V32.639c0-14.577-11.817-26.395-26.394-26.395zM172.253 24.318h84.775a9.164 9.164 0 019.166 9.165 9.164 9.164 0 01-9.166 9.165h-84.775a9.164 9.164 0 01-9.166-9.165 9.165 9.165 0 019.166-9.165zm43.787 372.454c-11.038 0-19.985-8.947-19.985-19.985s8.948-19.986 19.985-19.986c11.038 0 19.986 8.948 19.986 19.986s-8.948 19.985-19.986 19.985zm94.833-68.101H121.208V60.978h189.666v267.693z"/></svg>