<svg xmlns="http://www.w3.org/2000/svg" width="432" height="432"><g fill="#FFF"><path d="M388.555 38.853h-36.02V22.602c0-7.77-6.298-14.071-14.072-14.071s-14.071 6.302-14.071 14.071v16.251H304.47V22.602c0-7.77-6.299-14.071-14.072-14.071s-14.072 6.302-14.072 14.071v16.251h-19.922V22.602c0-7.77-6.297-14.071-14.071-14.071s-14.071 6.302-14.071 14.071v16.251h-19.923V22.602c0-7.77-6.297-14.071-14.072-14.071-7.774 0-14.072 6.302-14.072 14.071v16.251h-19.922V22.602c0-7.77-6.297-14.071-14.072-14.071s-14.072 6.302-14.072 14.071v16.251h-19.922V22.602c0-7.77-6.298-14.071-14.072-14.071-7.774 0-14.072 6.302-14.072 14.071v16.251H43.921c-19.184 0-34.74 15.552-34.74 34.736v44.002h414.113V73.589c0-19.184-15.556-34.736-34.739-34.736zM337.27 271.886c-36.915 0-66.842 29.926-66.842 66.842 0 36.914 29.927 66.841 66.842 66.841s66.841-29.927 66.841-66.841c-.001-36.916-29.926-66.842-66.841-66.842zm22.709 76.892H337.27c-5.552 0-10.051-4.5-10.051-10.051v-31.505c0-5.552 4.499-10.052 10.051-10.052s10.052 4.5 10.052 10.052v21.453h12.657a10.05 10.05 0 0110.052 10.052c-.001 5.551-4.5 10.051-10.052 10.051z"/><path d="M9.181 137.693v252.394c0 19.184 15.556 34.736 34.74 34.736h281.868c-42.521-5.646-75.464-42.059-75.464-86.096 0-47.94 39.004-86.944 86.944-86.944 43.88 0 80.175 32.706 86.024 75.004V137.693H9.181zM86.073 361.5c-6.659 0-12.062-5.399-12.062-12.062 0-6.662 5.403-12.061 12.062-12.061s12.062 5.398 12.062 12.061S92.732 361.5 86.073 361.5zm0-52.771c-6.659 0-12.062-5.398-12.062-12.061s5.403-12.062 12.062-12.062 12.062 5.399 12.062 12.062c0 6.663-5.403 12.061-12.062 12.061zm0-52.768c-6.659 0-12.062-5.398-12.062-12.062s5.403-12.062 12.062-12.062 12.062 5.398 12.062 12.062-5.403 12.062-12.062 12.062zM139.346 361.5c-6.66 0-12.062-5.399-12.062-12.062 0-6.662 5.402-12.061 12.062-12.061 6.659 0 12.062 5.398 12.062 12.061-.001 6.663-5.404 12.062-12.062 12.062zm0-52.771c-6.66 0-12.062-5.398-12.062-12.061s5.402-12.062 12.062-12.062c6.659 0 12.062 5.399 12.062 12.062-.001 6.663-5.404 12.061-12.062 12.061zm0-52.768c-6.66 0-12.062-5.398-12.062-12.062s5.402-12.062 12.062-12.062c6.659 0 12.062 5.398 12.062 12.062s-5.404 12.062-12.062 12.062zm0-52.77c-6.66 0-12.062-5.398-12.062-12.062 0-6.663 5.402-12.062 12.062-12.062 6.659 0 12.062 5.399 12.062 12.062-.001 6.664-5.404 12.062-12.062 12.062zM192.617 361.5c-6.659 0-12.062-5.399-12.062-12.062 0-6.662 5.403-12.061 12.062-12.061s12.062 5.398 12.062 12.061-5.403 12.062-12.062 12.062zm0-52.771c-6.659 0-12.062-5.398-12.062-12.061s5.403-12.062 12.062-12.062 12.062 5.399 12.062 12.062c0 6.663-5.403 12.061-12.062 12.061zm0-52.768c-6.659 0-12.062-5.398-12.062-12.062s5.403-12.062 12.062-12.062 12.062 5.398 12.062 12.062-5.403 12.062-12.062 12.062zm0-52.77c-6.659 0-12.062-5.398-12.062-12.062 0-6.663 5.403-12.062 12.062-12.062s12.062 5.399 12.062 12.062c0 6.664-5.403 12.062-12.062 12.062zm53.272 52.77c-6.659 0-12.062-5.398-12.062-12.062s5.402-12.062 12.062-12.062c6.66 0 12.062 5.398 12.062 12.062s-5.402 12.062-12.062 12.062zm0-52.77c-6.659 0-12.062-5.398-12.062-12.062 0-6.663 5.402-12.062 12.062-12.062 6.66 0 12.062 5.399 12.062 12.062-.001 6.664-5.402 12.062-12.062 12.062zm53.272 0c-6.659 0-12.062-5.398-12.062-12.062 0-6.663 5.402-12.062 12.062-12.062s12.062 5.399 12.062 12.062c0 6.664-5.403 12.062-12.062 12.062zm53.273 0c-6.66 0-12.062-5.398-12.062-12.062 0-6.663 5.402-12.062 12.062-12.062 6.658 0 12.061 5.399 12.061 12.062-.001 6.664-5.403 12.062-12.061 12.062z"/></g></svg>