<svg xmlns="http://www.w3.org/2000/svg" width="432" height="432"><g fill="#01D4FF"><path d="M181.914 277.361H66.324c-6.405 0-11.6-5.194-11.6-11.599 0-6.408 5.194-11.603 11.6-11.603h115.59c6.404 0 11.599 5.194 11.599 11.603 0 6.405-5.195 11.599-11.599 11.599zM181.914 325.835H66.324c-6.405 0-11.6-5.194-11.6-11.602s5.194-11.6 11.6-11.6h115.59c6.404 0 11.599 5.192 11.599 11.6s-5.195 11.602-11.599 11.602z"/><path d="M406.104 207.573l8.123-8.126c6.945-6.942 10.771-16.178 10.771-26.002 0-9.822-3.826-19.058-10.771-26-6.942-6.945-16.179-10.772-26.003-10.772-9.821 0-19.057 3.827-25.999 10.772l-71.008 71.007V86.368h54.74c6.405 0 11.6-5.192 11.6-11.6v-21.13c0-22.645-15.975-41.607-37.243-46.27-1.496-.703-3.144-1.124-4.904-1.124-.886 0-1.75.084-2.625.133-.873-.049-1.736-.133-2.624-.133h-256.5c-26.135 0-47.396 21.261-47.396 47.394v323.453c0 26.133 21.261 47.394 47.396 47.394h256.5c.888 0 1.751-.084 2.624-.133.875.049 1.739.133 2.625.133 1.761 0 3.414-.42 4.904-1.12 21.269-4.665 37.243-23.628 37.243-46.273V356.49c0-6.404-5.194-11.6-11.6-11.6h-54.74v-22.43l98.483-98.481 3.083 3.086c2.562 2.562 3.974 5.971 3.974 9.594s-1.411 7.031-3.974 9.596l-62.778 62.782c-4.532 4.529-4.532 11.874 0 16.405a11.56 11.56 0 008.201 3.396c2.97 0 5.936-1.131 8.202-3.397l62.778-62.779c6.948-6.944 10.771-16.177 10.771-26.002 0-9.822-3.823-19.058-10.771-26.002l-3.082-3.085zM291.218 53.638c0-12.451 9.455-22.731 21.567-24.045 12.112 1.313 21.574 11.594 21.574 24.045v9.532h-43.142v-9.532zM53.661 401.286c-13.342 0-24.198-10.855-24.198-24.195V53.638c0-13.339 10.855-24.194 24.198-24.194h221.071c-4.238 7.094-6.716 15.35-6.716 24.194v188.014l-34.438 34.44c-1.232 1.243-28.746 29.514-27.134 61.837l-13.179 13.179H66.324c-6.405 0-11.6 5.192-11.6 11.6s5.194 11.6 11.6 11.6H198.07c3.078 0 6.028-1.221 8.202-3.395l15.795-15.79c1.482.119 2.958.198 4.429.198 15.953 0 30.717-6.823 41.521-13.651v35.422c0 8.845 2.478 17.101 6.716 24.195H53.661zm280.698-33.194v8.999c0 12.452-9.462 22.732-21.574 24.046-12.112-1.313-21.567-11.594-21.567-24.046v-8.999h43.141zm-65.087-56.496c-.211.209-19.404 18.614-39.599 20.392 1.748-20.306 20.205-39.381 20.357-39.538L354.1 188.38l19.193 19.193-104.021 104.023zm128.552-128.552l-8.123 8.125-19.196-19.195 8.124-8.125a13.49 13.49 0 019.596-3.974c3.626 0 7.035 1.411 9.6 3.977a13.476 13.476 0 013.977 9.594 13.493 13.493 0 01-3.978 9.598z"/><path d="M234.149 125.159l-77.891-65.873a11.59 11.59 0 00-14.978 0l-77.888 65.873c-4.896 4.136-5.506 11.456-1.37 16.348 4.089 4.832 11.282 5.472 16.167 1.49v72.367c0 6.407 5.194 11.6 11.6 11.6h117.959c6.405 0 11.602-5.192 11.602-11.6V143a11.537 11.537 0 007.301 2.616c3.297 0 6.57-1.397 8.866-4.109 4.135-4.893 3.522-12.212-1.368-16.348zm-73.778 78.606v-22.52c0-6.408-5.194-11.6-11.602-11.6-6.405 0-11.6 5.192-11.6 11.6v22.52h-35.778v-80.362l47.377-40.069 47.38 40.069v80.362h-35.777z"/><path d="M159.542 145.616h-22.374c-6.405 0-11.599-5.195-11.599-11.602 0-6.405 5.194-11.599 11.599-11.599h22.374c6.405 0 11.6 5.194 11.6 11.599 0 6.407-5.194 11.602-11.6 11.602z"/></g></svg>