<svg xmlns="http://www.w3.org/2000/svg" width="432" height="432"><path fill="#FFF" d="M251.984 81.839h73.789v-9.178a11.87 11.87 0 00-3.49-8.701l-17.717-17.709-34.703-34.711a11.869 11.869 0 00-8.701-3.49h-9.178v73.789z"/><path fill="#FFF" d="M238.436 106.552c-6.58 0-11.912-5.332-11.912-11.912V6.244H42.001c-19.736 0-35.737 16-35.737 35.737v349.405c0 19.736 16 35.736 35.737 35.736h247.013c19.74 0 35.741-16 35.741-35.736v-97.703l-9.396 9.396-14.623 14.626-2.666 3.074c-2.682 2.687-5.966 4.601-9.751 5.696l-.586.165-.597.138-40.812 9.186-.55.125-.562.098c-8.151 1.368-16.233-1.031-21.623-6.415-5.731-5.736-8.119-14.68-6.152-22.925l9.182-40.766c.938-4.031 2.95-7.671 5.825-10.543l3.212-2.912 14.626-14.623 74.473-74.476v-56.976h-86.319zM67.269 228.402h117.888c6.854 0 12.409 5.554 12.409 12.409s-5.555 12.409-12.409 12.409H67.269c-6.855 0-12.409-5.554-12.409-12.409s5.554-12.409 12.409-12.409zm-12.41-36.194c0-6.854 5.554-12.409 12.409-12.409h117.888c6.854 0 12.409 5.555 12.409 12.409 0 6.855-5.555 12.409-12.409 12.409H67.269c-6.855.001-12.41-5.553-12.41-12.409zm0 97.206c0-6.855 5.554-12.409 12.409-12.409h117.888c6.854 0 12.409 5.554 12.409 12.409s-5.555 12.409-12.409 12.409H67.269c-6.855 0-12.41-5.553-12.41-12.409zm183.037 64.114c6.854 0 12.409 5.554 12.409 12.409s-5.555 12.409-12.409 12.409h-72.387c-6.855 0-12.41-5.554-12.41-12.409s5.554-12.409 12.41-12.409h72.387zm0-197.513H67.269c-6.855 0-12.409-5.554-12.409-12.409 0-6.854 5.554-12.409 12.409-12.409h170.627c6.854 0 12.409 5.555 12.409 12.409 0 6.855-5.555 12.409-12.409 12.409z"/><path fill="#FFF" d="M264.903 252.627l83.151-83.151 35.83 35.83-83.152 83.15zM401.667 187.527l19.058-19.058c9.303-9.303 9.303-24.39 0-33.693l-2.138-2.137c-9.302-9.303-24.389-9.303-33.692 0l-19.059 19.058 35.831 35.83zM281.949 303.031c1.168 1.167 2.917 2.917.643 3.571l-40.807 9.186c-1.547.263-2.941-.013-3.567-.643-.581-.582-1.021-2.116-.642-3.566l9.189-40.808c.396-1.709 2.403-.521 3.567.643l31.617 31.617z"/></svg>