<svg xmlns="http://www.w3.org/2000/svg" width="432" height="432"><g fill="#FFF"><path d="M406.053 398.885H25.947l190.051-137.09zM6.265 379.436l144.998-104.651L6.265 170.135zM71.741 188.213l-55.888-40.337 55.888-40.336zM424.615 379.436L279.614 274.785l145.001-104.65zM359.137 188.213l55.884-40.337-55.884-40.336z"/><path d="M94.805 33.155v170.851l79.983 57.728 40.449-29.178 40.651 29.324 79.78-57.582V33.155H94.805zm36.13 33.074h83.28v24.086h-83.28V66.229zm168.604 134.452H130.935v-24.086h168.604v24.086zm0-55.183H130.935v-24.086h168.604v24.086z"/></g></svg>