<svg xmlns="http://www.w3.org/2000/svg" width="432" height="432"><path fill="#FFF" d="M405.698 399.07H25.205l190.244-137.228zM6.265 379.602L151.41 274.845 6.265 170.088zM71.808 188.186l-55.945-40.378 55.945-40.378zM425.04 379.602L279.893 274.845 425.04 170.088zM359.495 188.186l55.942-40.378-55.942-40.378z"/><g fill="#FFF"><path d="M218.195 112.873c-13.947 0-24.507 15.207-24.507 27.462 0 9.927 6.126 17.959 15.637 17.959 14.783 0 25.348-15.42 25.348-28.521.001-9.514-7.397-16.9-16.478-16.9z"/><path d="M94.895 32.969v171.025l80.063 57.787 40.49-29.21 40.692 29.355 79.862-57.641V32.969H94.895zm159.421 127.853c9.518 0 22.612-14.147 22.612-37.389 0-31.271-25.563-50.28-57.884-50.28-35.919 0-60.004 27.246-60.004 60.629 0 34.861 26.624 59.785 61.474 59.785 19.438 0 35.075-6.329 46.698-14.36h19.008c-14.993 21.552-38.663 33.801-66.333 33.801-46.481 0-84.086-33.588-84.086-79.647 0-45.424 37.389-79.647 83.448-79.647 39.085 0 75.848 25.777 75.848 65.067 0 45.424-39.928 61.483-53.445 61.483-7.822 0-12.896-3.804-13.522-11.406h-.423c-5.709 6.126-14.58 11.406-25.78 11.406-15.42 0-31.477-13.734-31.477-36.549 0-26.197 17.957-52.818 46.057-52.818 10.771 0 19.646 4.439 25.983 14.363l2.744-11.189h18.805l-12.466 53.654c-1.06 4.86-1.262 7.191-1.262 8.67 0 2.948 1.479 4.427 4.005 4.427z"/></g></svg>