<svg xmlns="http://www.w3.org/2000/svg" width="432" height="432"><g fill="#FFF"><path d="M315.633 75.415a11.487 11.487 0 00-3.38-8.425l-17.154-17.147-33.598-33.61a11.503 11.503 0 00-8.434-3.379h-8.886v71.448h71.451v-8.887z"/><path d="M220.861 248.768c0-55.572 40.671-101.702 93.786-110.506V108.23H231.07c-6.375 0-11.538-5.163-11.538-11.534V11.105H40.864c-19.11 0-34.599 15.493-34.599 34.603v338.319c0 19.111 15.489 34.604 34.599 34.604H280.04c19.118 0 34.607-15.493 34.607-34.604v-24.754c-53.115-8.804-93.786-54.933-93.786-110.505zM65.325 132.093h165.213c6.643 0 12.016 5.378 12.016 12.015 0 6.638-5.373 12.016-12.016 12.016H65.325c-6.633 0-12.016-5.378-12.016-12.016.001-6.636 5.383-12.015 12.016-12.015zm0 47.061h114.147c6.641 0 12.016 5.378 12.016 12.015 0 6.638-5.375 12.016-12.016 12.016H65.325c-6.633 0-12.016-5.378-12.016-12.016.001-6.637 5.383-12.015 12.016-12.015zm0 47.061h114.147c6.641 0 12.016 5.378 12.016 12.016s-5.375 12.016-12.016 12.016H65.325c-6.633 0-12.016-5.378-12.016-12.016s5.383-12.016 12.016-12.016zM53.31 285.291c0-6.638 5.382-12.016 12.016-12.016h114.147c6.641 0 12.016 5.378 12.016 12.016s-5.375 12.016-12.016 12.016H65.325c-6.633 0-12.015-5.378-12.015-12.016zm177.228 86.111h-70.09c-6.634 0-12.016-5.378-12.016-12.016 0-6.637 5.382-12.016 12.016-12.016h70.09c6.643 0 12.016 5.379 12.016 12.016 0 6.638-5.373 12.016-12.016 12.016z"/><path d="M333.007 156.648c-50.878 0-92.119 41.245-92.119 92.119 0 50.878 41.241 92.118 92.119 92.118s92.119-41.24 92.119-92.118c0-50.874-41.241-92.119-92.119-92.119zm31.04 84.093v52.979h-62.08v-52.979h-20.91l51.95-43.932 51.949 43.932h-20.909z"/></g></svg>